SplineFontDB: 3.2
FontName: Krub-Light
FullName: Krub Light
FamilyName: Krub Light
Weight: Light
Copyright: Copyright 2018 The Krub Project Authors (https://github.com/cadsondemak/Krub)
Version: 1.000; ttfautohint (v1.6)
ItalicAngle: 0
UnderlinePosition: -100
UnderlineWidth: 50
Ascent: 800
Descent: 200
InvalidEm: 0
sfntRevision: 0x00010000
LayerCount: 2
Layer: 0 1 "Back" 1
Layer: 1 1 "Fore" 0
XUID: [1021 226 -1497385041 3168809]
StyleMap: 0x0040
FSType: 0
OS2Version: 3
OS2_WeightWidthSlopeOnly: 0
OS2_UseTypoMetrics: 0
CreationTime: 1534948280
ModificationTime: 1627862893
PfmFamily: 81
TTFWeight: 300
TTFWidth: 5
LineGap: 0
VLineGap: 0
Panose: 0 0 4 0 0 0 0 0 0 0
OS2TypoAscent: 1007
OS2TypoAOffset: 0
OS2TypoDescent: -293
OS2TypoDOffset: 0
OS2TypoLinegap: 0
OS2WinAscent: 1232
OS2WinAOffset: 0
OS2WinDescent: 507
OS2WinDOffset: 0
HheadAscent: 1007
HheadAOffset: 0
HheadDescent: -293
HheadDOffset: 0
OS2SubXSize: 650
OS2SubYSize: 600
OS2SubXOff: 0
OS2SubYOff: 75
OS2SupXSize: 650
OS2SupYSize: 600
OS2SupXOff: 0
OS2SupYOff: 350
OS2StrikeYSize: 50
OS2StrikeYPos: 330
OS2CapHeight: 700
OS2XHeight: 550
OS2Vendor: 'CDK '
OS2CodePages: 20010193.00000000
OS2UnicodeRanges: 21000007.00000001.00000000.00000000
Lookup: 1 0 0 "'aalt' Access All Alternates lookup 0" { "'aalt' Access All Alternates lookup 0 subtable"  } ['aalt' ('DFLT' <'dflt' > 'latn' <'CAT ' 'MOL ' 'ROM ' 'dflt' > 'thai' <'dflt' > ) ]
Lookup: 3 0 0 "'aalt' Access All Alternates lookup 1" { "'aalt' Access All Alternates lookup 1 subtable"  } ['aalt' ('DFLT' <'dflt' > 'latn' <'CAT ' 'MOL ' 'ROM ' 'dflt' > 'thai' <'dflt' > ) ]
Lookup: 6 0 0 "'ccmp' Glyph Composition/Decomposition in Latin lookup 2" { "'ccmp' Glyph Composition/Decomposition in Latin lookup 2 contextual 0"  "'ccmp' Glyph Composition/Decomposition in Latin lookup 2 contextual 1"  } ['ccmp' ('latn' <'dflt' > ) ]

StartChar: A
Encoding: 65 65 4
Width: 620
GlyphClass: 2
Flags: W
AnchorPoint: "Anchor-10" 0 0 basechar 0
AnchorPoint: "Anchor-9" 310 660 basechar 0
AnchorPoint: "Anchor-8" 605 0 basechar 0
AnchorPoint: "Anchor-7" 310 0 basechar 0
LayerCount: 2
Fore
SplineSet
497 203 m 1,1,-1
 124 203 l 1,2,3
 94 101 94 101 74 0 c 1,4,-1
 15 0 l 1,5,6
 60 207 60 207 124.5 375 c 128,-1,7
 189 543 189 543 283 700 c 1,8,-1
 338 700 l 1,9,10
 432 544 432 544 496 376 c 128,-1,11
 560 208 560 208 605 0 c 1,12,-1
 546 0 l 1,13,0
 524 112 524 112 497 203 c 1,1,-1
482 253 m 1,14,15
 413 470 413 470 310 640 c 1,16,17
 209 474 209 474 139 253 c 1,18,-1
 482 253 l 1,14,15
EndSplineSet
Substitution2: "Single Substitution lookup 20 subtable" ordfeminine
Substitution2: "'aalt' Access All Alternates lookup 0 subtable" ordfeminine
EndChar

StartChar: AE
Encoding: 198 198 28
Width: 930
GlyphClass: 2
Flags: W
AnchorPoint: "Anchor-10" 0 0 basechar 0
AnchorPoint: "Anchor-9" 525 700 basechar 0
AnchorPoint: "Anchor-8" 0 0 basechar 0
AnchorPoint: "Anchor-7" 465 0 basechar 0
LayerCount: 2
Fore
SplineSet
520 650 m 1,0,-1
 520 393 l 1,1,-1
 832 393 l 1,2,-1
 832 343 l 1,3,-1
 520 343 l 1,4,-1
 520 49 l 1,5,-1
 870 49 l 1,6,7
 870 21 870 21 861 10.5 c 128,-1,8
 852 0 852 0 828 0 c 2,9,-1
 470 0 l 1,10,-1
 470 206 l 1,11,-1
 140 206 l 1,12,13
 94 104 94 104 74 0 c 1,14,-1
 15 0 l 1,15,16
 53 186 53 186 164 372 c 128,-1,17
 275 558 275 558 440 700 c 1,18,-1
 875 700 l 1,19,-1
 875 650 l 1,20,-1
 520 650 l 1,0,-1
470 256 m 1,21,-1
 470 650 l 1,22,-1
 461 650 l 1,23,24
 376 578 376 578 297.5 474.5 c 128,-1,25
 219 371 219 371 163 256 c 1,26,-1
 470 256 l 1,21,-1
EndSplineSet
EndChar

StartChar: B
Encoding: 66 66 30
Width: 615
GlyphClass: 2
Flags: W
AnchorPoint: "Anchor-10" 0 0 basechar 0
AnchorPoint: "Anchor-9" 308 660 basechar 0
AnchorPoint: "Anchor-8" 0 0 basechar 0
AnchorPoint: "Anchor-7" 308 0 basechar 0
LayerCount: 2
Fore
SplineSet
537 299 m 128,-1,1
 571 255 571 255 571 189 c 0,2,3
 571 97 571 97 509 48.5 c 128,-1,4
 447 0 447 0 331 0 c 2,5,-1
 86 0 l 1,6,-1
 86 700 l 1,7,-1
 321 700 l 2,8,9
 425 700 425 700 484 651.5 c 128,-1,10
 543 603 543 603 543 516 c 0,11,12
 543 459 543 459 516.5 416.5 c 128,-1,13
 490 374 490 374 444 357 c 1,14,0
 503 343 503 343 537 299 c 128,-1,1
442 615 m 128,-1,16
 399 650 399 650 321 650 c 2,17,-1
 143 650 l 1,18,-1
 143 376 l 1,19,-1
 319 376 l 2,20,21
 399 376 399 376 442 412 c 128,-1,22
 485 448 485 448 485 516 c 0,23,15
 485 580 485 580 442 615 c 128,-1,16
468.5 83 m 128,-1,25
 513 116 513 116 513 189 c 0,26,27
 513 263 513 263 468 295.5 c 128,-1,28
 423 328 423 328 320 328 c 2,29,-1
 143 328 l 1,30,-1
 143 50 l 1,31,-1
 325 50 l 2,32,24
 424 50 424 50 468.5 83 c 128,-1,25
EndSplineSet
EndChar

StartChar: C
Encoding: 67 67 31
Width: 596
GlyphClass: 2
Flags: W
AnchorPoint: "Anchor-10" 0 0 basechar 0
AnchorPoint: "Anchor-9" 352 660 basechar 0
AnchorPoint: "Anchor-8" 0 0 basechar 0
AnchorPoint: "Anchor-7" 352 0 basechar 0
LayerCount: 2
Fore
SplineSet
130.5 84 m 128,-1,1
 52 178 52 178 52 350 c 0,2,3
 52 523 52 523 130 616.5 c 128,-1,4
 208 710 208 710 352 710 c 0,5,6
 410 710 410 710 460 690.5 c 128,-1,7
 510 671 510 671 546 633 c 1,8,9
 542 619 542 619 533 610.5 c 128,-1,10
 524 602 524 602 513 602 c 0,11,12
 499 602 499 602 489 611 c 0,13,14
 457 636 457 636 424 647 c 128,-1,15
 391 658 391 658 350 658 c 0,16,17
 235 658 235 658 173 578 c 128,-1,18
 111 498 111 498 111 350 c 0,19,20
 111 204 111 204 173.5 123.5 c 128,-1,21
 236 43 236 43 350 43 c 0,22,23
 404 43 404 43 443 57.5 c 128,-1,24
 482 72 482 72 514 104 c 1,25,26
 526 103 526 103 533 96 c 128,-1,27
 540 89 540 89 540 78 c 0,28,29
 540 56 540 56 513 35.5 c 128,-1,30
 486 15 486 15 442.5 2.5 c 128,-1,31
 399 -10 399 -10 352 -10 c 0,32,0
 209 -10 209 -10 130.5 84 c 128,-1,1
EndSplineSet
EndChar

StartChar: Ccedilla
Encoding: 199 199 34
Width: 596
GlyphClass: 2
Flags: W
AnchorPoint: "Anchor-10" 0 0 basechar 0
AnchorPoint: "Anchor-9" 0 0 basechar 0
AnchorPoint: "Anchor-8" 0 0 basechar 0
AnchorPoint: "Anchor-7" 352 -214 basechar 0
LayerCount: 2
Fore
SplineSet
533 96 m 128,-1,1
 540 89 540 89 540 78 c 0,2,3
 540 57 540 57 516.5 38 c 128,-1,4
 493 19 493 19 454.5 6 c 128,-1,5
 416 -7 416 -7 373 -9 c 1,6,-1
 334 -58 l 2,7,8
 339 -57 339 -57 348 -57 c 0,9,10
 388 -57 388 -57 414 -77.5 c 128,-1,11
 440 -98 440 -98 440 -136 c 0,12,13
 440 -180 440 -180 405 -204.5 c 128,-1,14
 370 -229 370 -229 319 -229 c 0,15,16
 274 -229 274 -229 248.5 -219 c 128,-1,17
 223 -209 223 -209 223 -189 c 0,18,19
 223 -184 223 -184 226 -176 c 1,20,21
 270 -189 270 -189 314 -189 c 0,22,23
 388 -189 388 -189 388 -137 c 0,24,25
 388 -118 388 -118 373.5 -106.5 c 128,-1,26
 359 -95 359 -95 333 -95 c 0,27,28
 316 -95 316 -95 293 -101 c 1,29,-1
 275 -75 l 1,30,-1
 324 -9 l 1,31,32
 193 0 193 0 122.5 93 c 128,-1,33
 52 186 52 186 52 350 c 0,34,35
 52 523 52 523 130 616.5 c 128,-1,36
 208 710 208 710 352 710 c 0,37,38
 410 710 410 710 460 690.5 c 128,-1,39
 510 671 510 671 546 633 c 1,40,41
 542 619 542 619 533 610.5 c 128,-1,42
 524 602 524 602 513 602 c 0,43,44
 499 602 499 602 489 611 c 0,45,46
 457 636 457 636 424 647 c 128,-1,47
 391 658 391 658 350 658 c 0,48,49
 235 658 235 658 173 578 c 128,-1,50
 111 498 111 498 111 350 c 0,51,52
 111 204 111 204 173.5 123.5 c 128,-1,53
 236 43 236 43 350 43 c 0,54,55
 404 43 404 43 443 57.5 c 128,-1,56
 482 72 482 72 514 104 c 1,57,0
 526 103 526 103 533 96 c 128,-1,1
EndSplineSet
EndChar

StartChar: D
Encoding: 68 68 37
Width: 672
GlyphClass: 2
Flags: W
AnchorPoint: "Anchor-10" 0 0 basechar 0
AnchorPoint: "Anchor-9" 336 660 basechar 0
AnchorPoint: "Anchor-8" 0 0 basechar 0
AnchorPoint: "Anchor-7" 336 0 basechar 0
LayerCount: 2
Fore
SplineSet
531.5 609.5 m 128,-1,1
 615 519 615 519 615 350 c 0,2,3
 615 242 615 242 576.5 163 c 128,-1,4
 538 84 538 84 465.5 42 c 128,-1,5
 393 0 393 0 293 0 c 2,6,-1
 86 0 l 1,7,-1
 86 700 l 1,8,-1
 293 700 l 2,9,0
 448 700 448 700 531.5 609.5 c 128,-1,1
488 128 m 128,-1,11
 556 206 556 206 556 349 c 0,12,13
 556 498 556 498 489.5 574 c 128,-1,14
 423 650 423 650 293 650 c 2,15,-1
 143 650 l 1,16,-1
 143 50 l 1,17,-1
 293 50 l 2,18,10
 420 50 420 50 488 128 c 128,-1,11
EndSplineSet
EndChar

StartChar: Eth
Encoding: 208 208 38
Width: 672
GlyphClass: 2
Flags: W
AnchorPoint: "Anchor-10" 0 0 basechar 0
AnchorPoint: "Anchor-9" 336 660 basechar 0
AnchorPoint: "Anchor-8" 0 0 basechar 0
AnchorPoint: "Anchor-7" 336 0 basechar 0
LayerCount: 2
Fore
SplineSet
531.5 609.5 m 128,-1,1
 615 519 615 519 615 350 c 0,2,3
 615 242 615 242 576.5 163 c 128,-1,4
 538 84 538 84 465.5 42 c 128,-1,5
 393 0 393 0 293 0 c 2,6,-1
 86 0 l 1,7,-1
 86 333 l 1,8,-1
 1 333 l 1,9,-1
 1 379 l 1,10,-1
 86 379 l 1,11,-1
 86 700 l 1,12,-1
 293 700 l 2,13,0
 448 700 448 700 531.5 609.5 c 128,-1,1
488 128 m 128,-1,15
 556 206 556 206 556 349 c 0,16,17
 556 498 556 498 489.5 574 c 128,-1,18
 423 650 423 650 293 650 c 2,19,-1
 143 650 l 1,20,-1
 143 379 l 1,21,-1
 346 379 l 1,22,-1
 346 333 l 1,23,-1
 143 333 l 1,24,-1
 143 50 l 1,25,-1
 293 50 l 2,26,14
 420 50 420 50 488 128 c 128,-1,15
EndSplineSet
EndChar

StartChar: Dcroat
Encoding: 272 272 40
Width: 672
GlyphClass: 2
Flags: W
AnchorPoint: "Anchor-10" 0 0 basechar 0
AnchorPoint: "Anchor-9" 336 660 basechar 0
AnchorPoint: "Anchor-8" 0 0 basechar 0
AnchorPoint: "Anchor-7" 336 0 basechar 0
LayerCount: 2
Fore
SplineSet
531.5 609.5 m 128,-1,1
 615 519 615 519 615 350 c 0,2,3
 615 242 615 242 576.5 163 c 128,-1,4
 538 84 538 84 465.5 42 c 128,-1,5
 393 0 393 0 293 0 c 2,6,-1
 86 0 l 1,7,-1
 86 333 l 1,8,-1
 1 333 l 1,9,-1
 1 379 l 1,10,-1
 86 379 l 1,11,-1
 86 700 l 1,12,-1
 293 700 l 2,13,0
 448 700 448 700 531.5 609.5 c 128,-1,1
488 128 m 128,-1,15
 556 206 556 206 556 349 c 0,16,17
 556 498 556 498 489.5 574 c 128,-1,18
 423 650 423 650 293 650 c 2,19,-1
 143 650 l 1,20,-1
 143 379 l 1,21,-1
 346 379 l 1,22,-1
 346 333 l 1,23,-1
 143 333 l 1,24,-1
 143 50 l 1,25,-1
 293 50 l 2,26,14
 420 50 420 50 488 128 c 128,-1,15
EndSplineSet
EndChar

StartChar: E
Encoding: 69 69 43
Width: 560
GlyphClass: 2
Flags: W
AnchorPoint: "Anchor-10" 0 0 basechar 0
AnchorPoint: "Anchor-9" 288 660 basechar 0
AnchorPoint: "Anchor-8" 496 10 basechar 0
AnchorPoint: "Anchor-7" 280 0 basechar 0
LayerCount: 2
Fore
SplineSet
505 50 m 1,0,1
 505 21 505 21 497 10.5 c 128,-1,2
 489 0 489 0 465 0 c 2,3,-1
 86 0 l 1,4,-1
 86 700 l 1,5,-1
 504 700 l 1,6,-1
 504 650 l 1,7,-1
 143 650 l 1,8,-1
 143 388 l 1,9,-1
 456 388 l 1,10,-1
 456 338 l 1,11,-1
 143 338 l 1,12,-1
 143 50 l 1,13,-1
 505 50 l 1,0,1
EndSplineSet
EndChar

StartChar: Eogonek
Encoding: 280 280 59
Width: 560
GlyphClass: 2
Flags: W
AnchorPoint: "Anchor-10" 0 0 basechar 0
AnchorPoint: "Anchor-9" 288 660 basechar 0
AnchorPoint: "Anchor-8" 496 10 basechar 0
AnchorPoint: "Anchor-7" 280 0 basechar 0
LayerCount: 2
Fore
SplineSet
535 -169 m 0,1,2
 535 -182 535 -182 517 -191 c 128,-1,3
 499 -200 499 -200 466 -200 c 0,4,5
 422 -200 422 -200 394.5 -175.5 c 128,-1,6
 367 -151 367 -151 367 -112 c 0,7,8
 367 -74 367 -74 385 -47.5 c 128,-1,9
 403 -21 403 -21 437 0 c 1,10,-1
 86 0 l 1,11,-1
 86 700 l 1,12,-1
 504 700 l 1,13,-1
 504 650 l 1,14,-1
 143 650 l 1,15,-1
 143 388 l 1,16,-1
 456 388 l 1,17,-1
 456 338 l 1,18,-1
 143 338 l 1,19,-1
 143 50 l 1,20,-1
 505 50 l 1,21,22
 505 28 505 28 500.5 17 c 128,-1,23
 496 6 496 6 484 2 c 0,24,25
 417 -43 417 -43 417 -107 c 0,26,27
 417 -133 417 -133 433 -147 c 128,-1,28
 449 -161 449 -161 476 -161 c 0,29,30
 507 -161 507 -161 529 -150 c 1,31,0
 535 -159 535 -159 535 -169 c 0,1,2
EndSplineSet
EndChar

StartChar: F
Encoding: 70 70 61
Width: 530
GlyphClass: 2
Flags: W
AnchorPoint: "Anchor-10" 0 0 basechar 0
AnchorPoint: "Anchor-9" 292 660 basechar 0
AnchorPoint: "Anchor-8" 0 0 basechar 0
AnchorPoint: "Anchor-7" 122 0 basechar 0
LayerCount: 2
Fore
SplineSet
143 650 m 1,0,-1
 143 383 l 1,1,-1
 455 383 l 1,2,-1
 455 333 l 1,3,-1
 143 333 l 1,4,-1
 143 0 l 1,5,-1
 86 0 l 1,6,-1
 86 700 l 1,7,-1
 498 700 l 1,8,-1
 498 650 l 1,9,-1
 143 650 l 1,0,-1
EndSplineSet
EndChar

StartChar: G
Encoding: 71 71 62
Width: 666
GlyphClass: 2
Flags: W
AnchorPoint: "Anchor-10" 0 0 basechar 0
AnchorPoint: "Anchor-9" 377 660 basechar 0
AnchorPoint: "Anchor-8" 0 0 basechar 0
AnchorPoint: "Anchor-7" 377 0 basechar 0
LayerCount: 2
Fore
SplineSet
604 368 m 1,0,-1
 604 73 l 1,1,2
 567 35 567 35 505.5 12.5 c 128,-1,3
 444 -10 444 -10 377 -10 c 0,4,5
 226 -10 226 -10 144 83.5 c 128,-1,6
 62 177 62 177 62 350 c 0,7,8
 62 521 62 521 145 615.5 c 128,-1,9
 228 710 228 710 377 710 c 0,10,11
 449 710 449 710 508.5 687 c 128,-1,12
 568 664 568 664 601 623 c 1,13,14
 595 610 595 610 586 602 c 128,-1,15
 577 594 577 594 567 594 c 0,16,17
 553 594 553 594 539 605 c 0,18,19
 504 633 504 633 464.5 646 c 128,-1,20
 425 659 425 659 376 659 c 0,21,22
 252 659 252 659 186.5 579.5 c 128,-1,23
 121 500 121 500 121 350 c 0,24,25
 121 199 121 199 186 120.5 c 128,-1,26
 251 42 251 42 376 42 c 0,27,28
 431 42 431 42 476.5 57 c 128,-1,29
 522 72 522 72 547 99 c 1,30,-1
 547 317 l 1,31,-1
 388 317 l 2,32,33
 369 317 369 317 361.5 328.5 c 128,-1,34
 354 340 354 340 354 368 c 1,35,-1
 604 368 l 1,0,-1
EndSplineSet
EndChar

StartChar: H
Encoding: 72 72 69
Width: 680
GlyphClass: 2
Flags: W
AnchorPoint: "Anchor-10" 0 0 basechar 0
AnchorPoint: "Anchor-9" 340 660 basechar 0
AnchorPoint: "Anchor-8" 0 0 basechar 0
AnchorPoint: "Anchor-7" 340 0 basechar 0
LayerCount: 2
Fore
SplineSet
594 700 m 1,0,-1
 594 0 l 1,1,-1
 536 0 l 1,2,-1
 536 340 l 1,3,-1
 144 340 l 1,4,-1
 144 0 l 1,5,-1
 86 0 l 1,6,-1
 86 700 l 1,7,-1
 144 700 l 1,8,-1
 144 389 l 1,9,-1
 536 389 l 1,10,-1
 536 700 l 1,11,-1
 594 700 l 1,0,-1
EndSplineSet
EndChar

StartChar: Hbar
Encoding: 294 294 70
Width: 680
GlyphClass: 2
Flags: W
AnchorPoint: "Anchor-10" 0 0 basechar 0
AnchorPoint: "Anchor-9" 340 660 basechar 0
AnchorPoint: "Anchor-8" 0 0 basechar 0
AnchorPoint: "Anchor-7" 340 0 basechar 0
LayerCount: 2
Fore
SplineSet
670 534 m 1,0,-1
 594 534 l 1,1,-1
 594 0 l 1,2,-1
 536 0 l 1,3,-1
 536 340 l 1,4,-1
 144 340 l 1,5,-1
 144 0 l 1,6,-1
 86 0 l 1,7,-1
 86 534 l 1,8,-1
 10 534 l 1,9,-1
 10 584 l 1,10,-1
 86 584 l 1,11,-1
 86 700 l 1,12,-1
 144 700 l 1,13,-1
 144 584 l 1,14,-1
 536 584 l 1,15,-1
 536 700 l 1,16,-1
 594 700 l 1,17,-1
 594 584 l 1,18,-1
 670 584 l 1,19,-1
 670 534 l 1,0,-1
536 534 m 1,20,-1
 144 534 l 1,21,-1
 144 389 l 1,22,-1
 536 389 l 1,23,-1
 536 534 l 1,20,-1
EndSplineSet
EndChar

StartChar: I
Encoding: 73 73 74
Width: 350
GlyphClass: 2
Flags: W
AnchorPoint: "Anchor-10" 0 0 basechar 0
AnchorPoint: "Anchor-9" 175 660 basechar 0
AnchorPoint: "Anchor-8" 204 0 basechar 0
AnchorPoint: "Anchor-7" 175 0 basechar 0
LayerCount: 2
Fore
SplineSet
147 700 m 1,0,-1
 204 700 l 1,1,-1
 204 0 l 1,2,-1
 147 0 l 1,3,-1
 147 700 l 1,0,-1
EndSplineSet
EndChar

StartChar: J
Encoding: 74 74 88
Width: 427
GlyphClass: 2
Flags: W
AnchorPoint: "Anchor-10" 0 0 basechar 0
AnchorPoint: "Anchor-9" 311 660 basechar 0
AnchorPoint: "Anchor-8" 0 0 basechar 0
AnchorPoint: "Anchor-7" 214 0 basechar 0
LayerCount: 2
Fore
SplineSet
77 -1.5 m 128,-1,1
 43 7 43 7 24 17 c 1,2,3
 24 37 24 37 30 48.5 c 128,-1,4
 36 60 36 60 46 60 c 0,5,6
 54 60 54 60 69 54 c 0,7,8
 73 53 73 53 96.5 46.5 c 128,-1,9
 120 40 120 40 149 40 c 0,10,11
 282 40 282 40 282 183 c 2,12,-1
 282 700 l 1,13,-1
 339 700 l 1,14,-1
 339 183 l 2,15,16
 339 91 339 91 288.5 40.5 c 128,-1,17
 238 -10 238 -10 147 -10 c 0,18,0
 111 -10 111 -10 77 -1.5 c 128,-1,1
EndSplineSet
EndChar

StartChar: K
Encoding: 75 75 90
Width: 610
GlyphClass: 2
Flags: W
AnchorPoint: "Anchor-10" 0 0 basechar 0
AnchorPoint: "Anchor-9" 314 660 basechar 0
AnchorPoint: "Anchor-8" 0 0 basechar 0
AnchorPoint: "Anchor-7" 320 0 basechar 0
LayerCount: 2
Fore
SplineSet
585 3 m 1,0,1
 571 -8 571 -8 550 -8 c 0,2,3
 536 -8 536 -8 527.5 -2 c 128,-1,4
 519 4 519 4 507 22 c 2,5,-1
 351 269 l 2,6,7
 333 297 333 297 317 310.5 c 128,-1,8
 301 324 301 324 279 329.5 c 128,-1,9
 257 335 257 335 219 335 c 2,10,-1
 157 335 l 1,11,-1
 157 0 l 1,12,-1
 100 0 l 1,13,-1
 100 700 l 1,14,-1
 157 700 l 1,15,-1
 157 385 l 1,16,-1
 237 385 l 2,17,18
 249 385 249 385 267 383 c 1,19,-1
 509 700 l 1,20,-1
 577 700 l 1,21,-1
 319 368 l 1,22,23
 361 347 361 347 400 288 c 2,24,-1
 585 3 l 1,0,1
EndSplineSet
EndChar

StartChar: L
Encoding: 76 76 92
Width: 513
GlyphClass: 2
Flags: W
AnchorPoint: "Anchor-10" 443 660 basechar 0
AnchorPoint: "Anchor-9" 115 660 basechar 0
AnchorPoint: "Anchor-8" 0 0 basechar 0
AnchorPoint: "Anchor-7" 292 0 basechar 0
LayerCount: 2
Fore
SplineSet
498 49 m 1,0,-1
 498 0 l 1,1,-1
 86 0 l 1,2,-1
 86 700 l 1,3,-1
 143 700 l 1,4,-1
 143 49 l 1,5,-1
 498 49 l 1,0,-1
EndSplineSet
EndChar

StartChar: Lslash
Encoding: 321 321 100
Width: 547
GlyphClass: 2
Flags: W
AnchorPoint: "Anchor-10" 463 660 basechar 0
AnchorPoint: "Anchor-9" 135 660 basechar 0
AnchorPoint: "Anchor-8" 0 0 basechar 0
AnchorPoint: "Anchor-7" 312 0 basechar 0
LayerCount: 2
Fore
SplineSet
518 49 m 1,0,-1
 518 0 l 1,1,-1
 106 0 l 1,2,-1
 106 353 l 1,3,-1
 17 317 l 1,4,-1
 17 371 l 1,5,-1
 106 407 l 1,6,-1
 106 700 l 1,7,-1
 163 700 l 1,8,-1
 163 429 l 1,9,-1
 369 512 l 1,10,-1
 369 458 l 1,11,-1
 163 375 l 1,12,-1
 163 49 l 1,13,-1
 518 49 l 1,0,-1
EndSplineSet
EndChar

StartChar: M
Encoding: 77 77 101
Width: 829
GlyphClass: 2
Flags: W
AnchorPoint: "Anchor-10" 0 0 basechar 0
AnchorPoint: "Anchor-9" 415 660 basechar 0
AnchorPoint: "Anchor-8" 0 0 basechar 0
AnchorPoint: "Anchor-7" 415 0 basechar 0
LayerCount: 2
Fore
SplineSet
696 0 m 1,0,1
 682 360 682 360 637 619 c 1,2,3
 583 504 583 504 540 387.5 c 128,-1,4
 497 271 497 271 436 75 c 1,5,-1
 394 75 l 1,6,7
 341 246 341 246 297 364.5 c 128,-1,8
 253 483 253 483 192 616 c 1,9,10
 147 355 147 355 133 0 c 1,11,-1
 76 0 l 1,12,13
 93 428 93 428 151 700 c 1,14,-1
 211 700 l 1,15,16
 283 551 283 551 329 434.5 c 128,-1,17
 375 318 375 318 415 189 c 1,18,19
 454 317 454 317 500.5 433.5 c 128,-1,20
 547 550 547 550 618 700 c 1,21,-1
 678 700 l 1,22,23
 736 428 736 428 753 0 c 1,24,-1
 696 0 l 1,0,1
EndSplineSet
EndChar

StartChar: N
Encoding: 78 78 103
Width: 690
GlyphClass: 2
Flags: W
AnchorPoint: "Anchor-10" 0 0 basechar 0
AnchorPoint: "Anchor-9" 344 660 basechar 0
AnchorPoint: "Anchor-8" 0 0 basechar 0
AnchorPoint: "Anchor-7" 344 0 basechar 0
LayerCount: 2
Fore
SplineSet
602 64 m 0,1,2
 604 36 604 36 604 27 c 0,3,4
 604 0 604 0 578 0 c 2,5,-1
 543 0 l 1,6,-1
 543 64 l 2,7,8
 543 92 543 92 535.5 113.5 c 128,-1,9
 528 135 528 135 509 159 c 2,10,-1
 143 622 l 1,11,-1
 143 0 l 1,12,-1
 86 0 l 1,13,-1
 86 700 l 1,14,-1
 133 700 l 2,15,16
 143 700 143 700 149 697 c 128,-1,17
 155 694 155 694 163 684 c 2,18,-1
 543 203 l 1,19,-1
 543 700 l 1,20,-1
 600 700 l 1,21,-1
 600 137 l 2,22,0
 600 106 600 106 602 64 c 0,1,2
EndSplineSet
EndChar

StartChar: Eng
Encoding: 330 330 109
Width: 685
Flags: W
LayerCount: 2
Fore
SplineSet
599 700 m 1,0,-1
 599 -51 l 2,1,2
 599 -118 599 -118 561 -155 c 128,-1,3
 523 -192 523 -192 460 -192 c 0,4,5
 429 -192 429 -192 401 -182.5 c 128,-1,6
 373 -173 373 -173 373 -153 c 0,7,8
 373 -145 373 -145 376.5 -138 c 128,-1,9
 380 -131 380 -131 385 -130 c 0,10,11
 419 -146 419 -146 464 -146 c 0,12,13
 501 -146 501 -146 521.5 -123.5 c 128,-1,14
 542 -101 542 -101 542 -55 c 2,15,-1
 542 64 l 2,16,17
 542 92 542 92 535 112.5 c 128,-1,18
 528 133 528 133 508 159 c 2,19,-1
 143 623 l 1,20,-1
 143 0 l 1,21,-1
 86 0 l 1,22,-1
 86 700 l 1,23,-1
 133 700 l 2,24,25
 143 700 143 700 149 697 c 128,-1,26
 155 694 155 694 163 684 c 2,27,-1
 542 204 l 1,28,-1
 542 700 l 1,29,-1
 599 700 l 1,0,-1
EndSplineSet
EndChar

StartChar: O
Encoding: 79 79 112
Width: 680
GlyphClass: 2
Flags: W
AnchorPoint: "Anchor-10" 482 639 basechar 0
AnchorPoint: "Anchor-9" 340 660 basechar 0
AnchorPoint: "Anchor-8" 439 31 basechar 0
AnchorPoint: "Anchor-7" 340 0 basechar 0
LayerCount: 2
Fore
SplineSet
123 84 m 128,-1,1
 48 178 48 178 48 354 c 0,2,3
 48 527 48 527 123 618.5 c 128,-1,4
 198 710 198 710 340 710 c 256,5,6
 482 710 482 710 557 618.5 c 128,-1,7
 632 527 632 527 632 354 c 0,8,9
 632 178 632 178 557 84 c 128,-1,10
 482 -10 482 -10 340 -10 c 256,11,0
 198 -10 198 -10 123 84 c 128,-1,1
514.5 120.5 m 128,-1,13
 573 199 573 199 573 354 c 0,14,15
 573 658 573 658 340 658 c 256,16,17
 107 658 107 658 107 354 c 0,18,19
 107 199 107 199 166 120.5 c 128,-1,20
 225 42 225 42 340 42 c 0,21,12
 456 42 456 42 514.5 120.5 c 128,-1,13
EndSplineSet
Substitution2: "Single Substitution lookup 20 subtable" ordmasculine
Substitution2: "'aalt' Access All Alternates lookup 0 subtable" ordmasculine
EndChar

StartChar: Ohorn
Encoding: 416 416 126
Width: 680
GlyphClass: 2
Flags: W
AnchorPoint: "Anchor-10" 482 639 basechar 0
AnchorPoint: "Anchor-9" 340 660 basechar 0
AnchorPoint: "Anchor-8" 439 31 basechar 0
AnchorPoint: "Anchor-7" 340 0 basechar 0
LayerCount: 2
Fore
SplineSet
632 354 m 0,1,2
 632 178 632 178 557 84 c 128,-1,3
 482 -10 482 -10 340 -10 c 256,4,5
 198 -10 198 -10 123 84 c 128,-1,6
 48 178 48 178 48 354 c 0,7,8
 48 527 48 527 123 618.5 c 128,-1,9
 198 710 198 710 340 710 c 0,10,11
 440 710 440 710 506 665 c 1,12,13
 531 671 531 671 546.5 689 c 128,-1,14
 562 707 562 707 562 733 c 0,15,16
 562 774 562 774 524 791 c 1,17,18
 526 803 526 803 535.5 810.5 c 128,-1,19
 545 818 545 818 557 818 c 0,20,21
 582 818 582 818 598.5 797 c 128,-1,22
 615 776 615 776 615 743 c 0,23,24
 615 704 615 704 596 676.5 c 128,-1,25
 577 649 577 649 543 634 c 1,26,0
 632 542 632 542 632 354 c 0,1,2
514.5 120.5 m 128,-1,28
 573 199 573 199 573 354 c 0,29,30
 573 658 573 658 340 658 c 256,31,32
 107 658 107 658 107 354 c 0,33,34
 107 199 107 199 166 120.5 c 128,-1,35
 225 42 225 42 340 42 c 0,36,27
 456 42 456 42 514.5 120.5 c 128,-1,28
EndSplineSet
EndChar

StartChar: Oslash
Encoding: 216 216 134
Width: 680
GlyphClass: 2
Flags: W
AnchorPoint: "Anchor-10" 482 639 basechar 0
AnchorPoint: "Anchor-9" 340 660 basechar 0
AnchorPoint: "Anchor-8" 439 31 basechar 0
AnchorPoint: "Anchor-7" 340 0 basechar 0
LayerCount: 2
Fore
SplineSet
632 354 m 0,1,2
 632 178 632 178 557 84 c 128,-1,3
 482 -10 482 -10 340 -10 c 0,4,5
 229 -10 229 -10 160 47 c 1,6,-1
 128 0 l 1,7,-1
 68 0 l 1,8,-1
 124 82 l 1,9,10
 48 176 48 176 48 354 c 0,11,12
 48 527 48 527 123 618.5 c 128,-1,13
 198 710 198 710 340 710 c 0,14,15
 446 710 446 710 516 658 c 1,16,-1
 546 701 l 1,17,-1
 606 701 l 1,18,-1
 553 623 l 1,19,0
 632 532 632 532 632 354 c 0,1,2
158 132 m 1,21,-1
 486 613 l 1,22,23
 431 658 431 658 340 658 c 0,24,25
 107 658 107 658 107 354 c 0,26,20
 107 210 107 210 158 132 c 1,21,-1
514.5 120.5 m 128,-1,28
 573 199 573 199 573 354 c 0,29,30
 573 499 573 499 520 575 c 1,31,-1
 191 93 l 1,32,33
 248 42 248 42 340 42 c 0,34,27
 456 42 456 42 514.5 120.5 c 128,-1,28
EndSplineSet
EndChar

StartChar: OE
Encoding: 338 338 137
Width: 1050
GlyphClass: 2
Flags: W
AnchorPoint: "Anchor-10" 482 639 basechar 0
AnchorPoint: "Anchor-9" 778 660 basechar 0
AnchorPoint: "Anchor-8" 986 10 basechar 0
AnchorPoint: "Anchor-7" 770 0 basechar 0
LayerCount: 2
Fore
SplineSet
995 50 m 1,0,1
 995 21 995 21 987 10.5 c 128,-1,2
 979 0 979 0 955 0 c 2,3,-1
 576 0 l 1,4,-1
 576 111 l 1,5,6
 501 -10 501 -10 340 -10 c 0,7,8
 198 -10 198 -10 123 84 c 128,-1,9
 48 178 48 178 48 354 c 0,10,11
 48 527 48 527 123 618.5 c 128,-1,12
 198 710 198 710 340 710 c 0,13,14
 502 710 502 710 576 592 c 1,15,-1
 576 700 l 1,16,-1
 994 700 l 1,17,-1
 994 650 l 1,18,-1
 633 650 l 1,19,-1
 633 388 l 1,20,-1
 946 388 l 1,21,-1
 946 338 l 1,22,-1
 633 338 l 1,23,-1
 633 50 l 1,24,-1
 995 50 l 1,0,1
514.5 120.5 m 128,-1,26
 573 199 573 199 573 354 c 0,27,28
 573 658 573 658 340 658 c 256,29,30
 107 658 107 658 107 354 c 0,31,32
 107 199 107 199 166 120.5 c 128,-1,33
 225 42 225 42 340 42 c 0,34,25
 456 42 456 42 514.5 120.5 c 128,-1,26
EndSplineSet
EndChar

StartChar: P
Encoding: 80 80 138
Width: 615
GlyphClass: 2
Flags: W
AnchorPoint: "Anchor-10" 0 0 basechar 0
AnchorPoint: "Anchor-9" 308 660 basechar 0
AnchorPoint: "Anchor-8" 0 0 basechar 0
AnchorPoint: "Anchor-7" 308 0 basechar 0
LayerCount: 2
Fore
SplineSet
501.5 643.5 m 128,-1,1
 572 587 572 587 572 477 c 0,2,3
 572 365 572 365 501.5 308 c 128,-1,4
 431 251 431 251 294 251 c 2,5,-1
 143 251 l 1,6,-1
 143 0 l 1,7,-1
 86 0 l 1,8,-1
 86 700 l 1,9,-1
 294 700 l 2,10,0
 431 700 431 700 501.5 643.5 c 128,-1,1
460.5 345.5 m 128,-1,12
 515 389 515 389 515 477 c 0,13,14
 515 564 515 564 460.5 606.5 c 128,-1,15
 406 649 406 649 294 649 c 2,16,-1
 143 649 l 1,17,-1
 143 302 l 1,18,-1
 294 302 l 2,19,11
 406 302 406 302 460.5 345.5 c 128,-1,12
EndSplineSet
EndChar

StartChar: Thorn
Encoding: 222 222 139
Width: 641
GlyphClass: 2
Flags: W
AnchorPoint: "Anchor-10" 0 0 basechar 0
AnchorPoint: "Anchor-9" 321 700 basechar 0
AnchorPoint: "Anchor-8" 0 0 basechar 0
AnchorPoint: "Anchor-7" 321 0 basechar 0
LayerCount: 2
Fore
SplineSet
525 529 m 128,-1,1
 588 465 588 465 588 358 c 256,2,3
 588 251 588 251 525 187 c 128,-1,4
 462 123 462 123 327 123 c 2,5,-1
 166 123 l 1,6,-1
 166 0 l 1,7,-1
 109 0 l 1,8,-1
 109 700 l 1,9,-1
 166 700 l 1,10,-1
 166 593 l 1,11,-1
 327 593 l 2,12,0
 462 593 462 593 525 529 c 128,-1,1
480.5 221.5 m 128,-1,14
 529 271 529 271 529 358 c 256,15,16
 529 445 529 445 480.5 494.5 c 128,-1,17
 432 544 432 544 327 544 c 2,18,-1
 166 544 l 1,19,-1
 166 172 l 1,20,-1
 327 172 l 2,21,13
 432 172 432 172 480.5 221.5 c 128,-1,14
EndSplineSet
EndChar

StartChar: Q
Encoding: 81 81 140
Width: 680
GlyphClass: 2
Flags: W
AnchorPoint: "Anchor-10" 482 639 basechar 0
AnchorPoint: "Anchor-9" 340 660 basechar 0
AnchorPoint: "Anchor-8" 439 31 basechar 0
AnchorPoint: "Anchor-7" 340 0 basechar 0
LayerCount: 2
Fore
SplineSet
591 139 m 128,-1,1
 550 53 550 53 471 16 c 1,2,3
 493 -15 493 -15 530 -62 c 1,4,5
 512 -82 512 -82 488 -82 c 0,6,7
 468 -82 468 -82 451 -56 c 2,8,-1
 416 -2 l 1,9,10
 379 -10 379 -10 340 -10 c 0,11,12
 198 -10 198 -10 123 84 c 128,-1,13
 48 178 48 178 48 354 c 0,14,15
 48 527 48 527 123 618.5 c 128,-1,16
 198 710 198 710 340 710 c 256,17,18
 482 710 482 710 557 618.5 c 128,-1,19
 632 527 632 527 632 354 c 0,20,0
 632 225 632 225 591 139 c 128,-1,1
573 354 m 0,22,23
 573 658 573 658 340 658 c 256,24,25
 107 658 107 658 107 354 c 0,26,27
 107 199 107 199 166 120.5 c 128,-1,28
 225 42 225 42 340 42 c 0,29,30
 365 42 365 42 386 45 c 1,31,32
 351 101 351 101 319 149 c 1,33,-1
 380 149 l 1,34,35
 409 103 409 103 439 61 c 1,36,21
 573 118 573 118 573 354 c 0,22,23
EndSplineSet
EndChar

StartChar: R
Encoding: 82 82 141
Width: 629
GlyphClass: 2
Flags: W
AnchorPoint: "Anchor-10" 0 0 basechar 0
AnchorPoint: "Anchor-9" 313 660 basechar 0
AnchorPoint: "Anchor-8" 0 0 basechar 0
AnchorPoint: "Anchor-7" 315 0 basechar 0
LayerCount: 2
Fore
SplineSet
585 3 m 1,0,1
 571 -8 571 -8 550 -8 c 0,2,3
 536 -8 536 -8 527 -2 c 128,-1,4
 518 4 518 4 507 22 c 2,5,-1
 388 217 l 2,6,7
 360 263 360 263 326.5 280 c 128,-1,8
 293 297 293 297 232 297 c 2,9,-1
 143 297 l 1,10,-1
 143 0 l 1,11,-1
 86 0 l 1,12,-1
 86 700 l 1,13,-1
 313 700 l 2,14,15
 437 700 437 700 504.5 647.5 c 128,-1,16
 572 595 572 595 572 498 c 0,17,18
 572 419 572 419 521 364.5 c 128,-1,19
 470 310 470 310 386 299 c 1,20,21
 418 274 418 274 441 238 c 2,22,-1
 585 3 l 1,0,1
308 347 m 2,23,24
 407 347 407 347 459.5 386 c 128,-1,25
 512 425 512 425 512 498 c 0,26,27
 512 649 512 649 313 649 c 2,28,-1
 143 649 l 1,29,-1
 143 347 l 1,30,-1
 308 347 l 2,23,24
EndSplineSet
EndChar

StartChar: S
Encoding: 83 83 148
Width: 642
GlyphClass: 2
Flags: W
AnchorPoint: "Anchor-10" 0 0 basechar 0
AnchorPoint: "Anchor-9" 321 660 basechar 0
AnchorPoint: "Anchor-8" 0 0 basechar 0
AnchorPoint: "Anchor-7" 321 0 basechar 0
LayerCount: 2
Fore
SplineSet
197 11.5 m 128,-1,1
 138 33 138 33 103.5 70 c 128,-1,2
 69 107 69 107 69 150 c 0,3,4
 69 166 69 166 79.5 175.5 c 128,-1,5
 90 185 90 185 109 186 c 1,6,7
 123 118 123 118 180.5 79 c 128,-1,8
 238 40 238 40 327 40 c 0,9,10
 417 40 417 40 471.5 80 c 128,-1,11
 526 120 526 120 526 185 c 0,12,13
 526 226 526 226 506.5 254 c 128,-1,14
 487 282 487 282 442.5 302.5 c 128,-1,15
 398 323 398 323 320 340 c 0,16,17
 196 369 196 369 142.5 413 c 128,-1,18
 89 457 89 457 89 529 c 0,19,20
 89 613 89 613 151 661.5 c 128,-1,21
 213 710 213 710 321 710 c 0,22,23
 415 710 415 710 480 666.5 c 128,-1,24
 545 623 545 623 567 545 c 1,25,26
 558 534 558 534 537 534 c 0,27,28
 525 534 525 534 516.5 540 c 128,-1,29
 508 546 508 546 501 561 c 0,30,31
 477 610 477 610 431 636 c 128,-1,32
 385 662 385 662 321 662 c 0,33,34
 235 662 235 662 191 628.5 c 128,-1,35
 147 595 147 595 147 529 c 0,36,37
 147 495 147 495 164 471 c 128,-1,38
 181 447 181 447 220.5 428.5 c 128,-1,39
 260 410 260 410 329 392 c 0,40,41
 430 366 430 366 484.5 340 c 128,-1,42
 539 314 539 314 562 279.5 c 128,-1,43
 585 245 585 245 585 191 c 0,44,45
 585 98 585 98 515.5 44 c 128,-1,46
 446 -10 446 -10 325 -10 c 0,47,0
 256 -10 256 -10 197 11.5 c 128,-1,1
EndSplineSet
EndChar

StartChar: Scedilla
Encoding: 350 350 151
Width: 642
GlyphClass: 2
Flags: W
AnchorPoint: "Anchor-10" 0 0 basechar 0
AnchorPoint: "Anchor-9" 0 0 basechar 0
AnchorPoint: "Anchor-8" 0 0 basechar 0
AnchorPoint: "Anchor-7" 321 -214 basechar 0
LayerCount: 2
Fore
SplineSet
520.5 48 m 128,-1,1
 456 -5 456 -5 342 -10 c 1,2,-1
 303 -58 l 2,3,4
 308 -57 308 -57 317 -57 c 0,5,6
 357 -57 357 -57 383 -77.5 c 128,-1,7
 409 -98 409 -98 409 -136 c 0,8,9
 409 -180 409 -180 374 -204.5 c 128,-1,10
 339 -229 339 -229 288 -229 c 0,11,12
 243 -229 243 -229 217.5 -219 c 128,-1,13
 192 -209 192 -209 192 -189 c 0,14,15
 192 -184 192 -184 195 -176 c 1,16,17
 239 -189 239 -189 283 -189 c 0,18,19
 357 -189 357 -189 357 -137 c 0,20,21
 357 -118 357 -118 342.5 -106.5 c 128,-1,22
 328 -95 328 -95 302 -95 c 0,23,24
 285 -95 285 -95 262 -101 c 1,25,-1
 244 -75 l 1,26,-1
 293 -9 l 1,27,28
 231 -4 231 -4 180 18.5 c 128,-1,29
 129 41 129 41 99 75.5 c 128,-1,30
 69 110 69 110 69 150 c 0,31,32
 69 166 69 166 79.5 175.5 c 128,-1,33
 90 185 90 185 109 186 c 1,34,35
 123 118 123 118 180.5 79 c 128,-1,36
 238 40 238 40 327 40 c 0,37,38
 417 40 417 40 471.5 80 c 128,-1,39
 526 120 526 120 526 185 c 0,40,41
 526 226 526 226 506.5 254 c 128,-1,42
 487 282 487 282 442.5 302.5 c 128,-1,43
 398 323 398 323 320 340 c 0,44,45
 196 369 196 369 142.5 413 c 128,-1,46
 89 457 89 457 89 529 c 0,47,48
 89 613 89 613 151 661.5 c 128,-1,49
 213 710 213 710 321 710 c 0,50,51
 415 710 415 710 480 666.5 c 128,-1,52
 545 623 545 623 567 545 c 1,53,54
 558 534 558 534 537 534 c 0,55,56
 525 534 525 534 516.5 540 c 128,-1,57
 508 546 508 546 501 561 c 0,58,59
 477 610 477 610 431 636 c 128,-1,60
 385 662 385 662 321 662 c 0,61,62
 235 662 235 662 191 628.5 c 128,-1,63
 147 595 147 595 147 529 c 0,64,65
 147 495 147 495 164 471 c 128,-1,66
 181 447 181 447 220.5 428.5 c 128,-1,67
 260 410 260 410 329 392 c 0,68,69
 430 366 430 366 484.5 340 c 128,-1,70
 539 314 539 314 562 279.5 c 128,-1,71
 585 245 585 245 585 191 c 0,72,0
 585 101 585 101 520.5 48 c 128,-1,1
EndSplineSet
Substitution2: "'locl' Localized Forms in Latin lookup 7 subtable" uni0218
Substitution2: "'locl' Localized Forms in Latin lookup 6 subtable" uni0218
Substitution2: "'aalt' Access All Alternates lookup 0 subtable" uni0218
EndChar

StartChar: uni1E9E
Encoding: 7838 7838 156
Width: 700
Flags: W
LayerCount: 2
Fore
SplineSet
569 333.5 m 128,-1,1
 626 285 626 285 626 194 c 0,2,3
 626 129 626 129 596 83 c 128,-1,4
 566 37 566 37 514 13.5 c 128,-1,5
 462 -10 462 -10 398 -10 c 0,6,7
 355 -10 355 -10 314 1.5 c 128,-1,8
 273 13 273 13 251 31 c 0,9,10
 236 43 236 43 236 63 c 0,11,12
 236 73 236 73 241 80.5 c 128,-1,13
 246 88 246 88 255 90 c 1,14,15
 321 40 321 40 402 40 c 0,16,17
 477 40 477 40 522 80 c 128,-1,18
 567 120 567 120 567 193 c 0,19,20
 567 271 567 271 516 308.5 c 128,-1,21
 465 346 465 346 379 346 c 0,22,23
 362 346 362 346 351.5 358.5 c 128,-1,24
 341 371 341 371 341 388 c 1,25,-1
 519 550 l 1,26,27
 503 601 503 601 455.5 629.5 c 128,-1,28
 408 658 408 658 330 658 c 0,29,30
 277 658 277 658 234 634.5 c 128,-1,31
 191 611 191 611 166 568 c 128,-1,32
 141 525 141 525 141 469 c 2,33,-1
 141 0 l 1,34,-1
 84 0 l 1,35,-1
 84 469 l 2,36,37
 84 542 84 542 118 596.5 c 128,-1,38
 152 651 152 651 209 679.5 c 128,-1,39
 266 708 266 708 333 708 c 256,40,41
 400 708 400 708 454 685.5 c 128,-1,42
 508 663 508 663 541.5 625 c 128,-1,43
 575 587 575 587 586 539 c 1,44,-1
 422 392 l 1,45,0
 512 382 512 382 569 333.5 c 128,-1,1
EndSplineSet
EndChar

StartChar: uni018F
Encoding: 399 399 157
Width: 692
Flags: W
LayerCount: 2
Fore
SplineSet
552.5 615 m 128,-1,1
 634 520 634 520 634 348 c 0,2,3
 634 173 634 173 555.5 81.5 c 128,-1,4
 477 -10 477 -10 328 -10 c 0,5,6
 188 -10 188 -10 115 73 c 128,-1,7
 42 156 42 156 42 315 c 2,8,-1
 42 363 l 1,9,-1
 575 363 l 1,10,11
 571 506 571 506 507 581.5 c 128,-1,12
 443 657 443 657 325 657 c 0,13,14
 272 657 272 657 225.5 641.5 c 128,-1,15
 179 626 179 626 144 596 c 0,16,17
 130 583 130 583 115 583 c 0,18,19
 96 583 96 583 75 613 c 1,20,21
 114 657 114 657 182.5 683.5 c 128,-1,22
 251 710 251 710 324 710 c 0,23,0
 471 710 471 710 552.5 615 c 128,-1,1
574 311 m 1,25,-1
 99 311 l 1,26,27
 99 179 99 179 158 110 c 128,-1,28
 217 41 217 41 329 41 c 0,29,24
 559 41 559 41 574 311 c 1,25,-1
EndSplineSet
EndChar

StartChar: T
Encoding: 84 84 158
Width: 534
GlyphClass: 2
Flags: W
AnchorPoint: "Anchor-10" 0 0 basechar 0
AnchorPoint: "Anchor-9" 269 660 basechar 0
AnchorPoint: "Anchor-8" 0 0 basechar 0
AnchorPoint: "Anchor-7" 269 0 basechar 0
LayerCount: 2
Fore
SplineSet
523 679 m 0,1,2
 523 650 523 650 492 650 c 2,3,-1
 298 650 l 1,4,-1
 298 0 l 1,5,-1
 241 0 l 1,6,-1
 241 650 l 1,7,-1
 15 650 l 1,8,-1
 15 700 l 1,9,-1
 519 700 l 1,10,0
 523 686 523 686 523 679 c 0,1,2
EndSplineSet
EndChar

StartChar: Tbar
Encoding: 358 358 159
Width: 533
GlyphClass: 2
Flags: W
AnchorPoint: "Anchor-10" 0 0 basechar 0
AnchorPoint: "Anchor-9" 269 660 basechar 0
AnchorPoint: "Anchor-8" 0 0 basechar 0
AnchorPoint: "Anchor-7" 269 0 basechar 0
LayerCount: 2
Fore
SplineSet
523 679 m 0,1,2
 523 650 523 650 492 650 c 2,3,-1
 298 650 l 1,4,-1
 298 363 l 1,5,-1
 434 363 l 1,6,-1
 434 315 l 1,7,-1
 298 315 l 1,8,-1
 298 0 l 1,9,-1
 241 0 l 1,10,-1
 241 315 l 1,11,-1
 102 315 l 1,12,-1
 102 363 l 1,13,-1
 241 363 l 1,14,-1
 241 650 l 1,15,-1
 15 650 l 1,16,-1
 15 700 l 1,17,-1
 519 700 l 1,18,0
 523 686 523 686 523 679 c 0,1,2
EndSplineSet
EndChar

StartChar: U
Encoding: 85 85 165
Width: 708
GlyphClass: 2
Flags: W
AnchorPoint: "Anchor-10" 625 673 basechar 0
AnchorPoint: "Anchor-9" 354 660 basechar 0
AnchorPoint: "Anchor-8" 445 10 basechar 0
AnchorPoint: "Anchor-7" 354 0 basechar 0
LayerCount: 2
Fore
SplineSet
152.5 54.5 m 128,-1,1
 86 119 86 119 86 251 c 2,2,-1
 86 700 l 1,3,-1
 143 700 l 1,4,-1
 143 246 l 2,5,6
 143 141 143 141 195 90.5 c 128,-1,7
 247 40 247 40 356 40 c 0,8,9
 466 40 466 40 517 90 c 128,-1,10
 568 140 568 140 568 246 c 2,11,-1
 568 700 l 1,12,-1
 625 700 l 1,13,-1
 625 251 l 2,14,15
 625 117 625 117 560 53.5 c 128,-1,16
 495 -10 495 -10 356 -10 c 0,17,0
 219 -10 219 -10 152.5 54.5 c 128,-1,1
EndSplineSet
EndChar

StartChar: Uogonek
Encoding: 370 370 186
Width: 708
GlyphClass: 2
Flags: W
AnchorPoint: "Anchor-10" 625 673 basechar 0
AnchorPoint: "Anchor-9" 354 660 basechar 0
AnchorPoint: "Anchor-8" 445 10 basechar 0
AnchorPoint: "Anchor-7" 354 0 basechar 0
LayerCount: 2
Fore
SplineSet
625 700 m 1,0,-1
 625 251 l 2,1,2
 625 134 625 134 575.5 71 c 128,-1,3
 526 8 526 8 423 -6 c 1,4,5
 367 -50 367 -50 367 -107 c 0,6,7
 367 -133 367 -133 382.5 -147 c 128,-1,8
 398 -161 398 -161 425 -161 c 0,9,10
 458 -161 458 -161 478 -150 c 1,11,12
 484 -159 484 -159 484 -169 c 0,13,14
 484 -182 484 -182 466 -191 c 128,-1,15
 448 -200 448 -200 415 -200 c 0,16,17
 371 -200 371 -200 343.5 -175.5 c 128,-1,18
 316 -151 316 -151 316 -112 c 0,19,20
 316 -50 316 -50 372 -10 c 1,21,-1
 356 -10 l 2,22,23
 219 -10 219 -10 152.5 54.5 c 128,-1,24
 86 119 86 119 86 251 c 2,25,-1
 86 700 l 1,26,-1
 143 700 l 1,27,-1
 143 246 l 2,28,29
 143 141 143 141 195 90.5 c 128,-1,30
 247 40 247 40 356 40 c 0,31,32
 466 40 466 40 517 90 c 128,-1,33
 568 140 568 140 568 246 c 2,34,-1
 568 700 l 1,35,-1
 625 700 l 1,0,-1
EndSplineSet
EndChar

StartChar: V
Encoding: 86 86 189
Width: 638
GlyphClass: 2
Flags: W
AnchorPoint: "Anchor-10" 0 0 basechar 0
AnchorPoint: "Anchor-9" 319 660 basechar 0
AnchorPoint: "Anchor-8" 0 0 basechar 0
AnchorPoint: "Anchor-7" 319 0 basechar 0
LayerCount: 2
Fore
SplineSet
608 700 m 1,0,1
 542 311 542 311 350 0 c 1,2,-1
 290 0 l 1,3,4
 95 315 95 315 30 700 c 1,5,-1
 92 700 l 1,6,7
 149 344 149 344 320 61 c 1,8,9
 491 347 491 347 546 700 c 1,10,-1
 608 700 l 1,0,1
EndSplineSet
EndChar

StartChar: W
Encoding: 87 87 190
Width: 856
GlyphClass: 2
Flags: W
AnchorPoint: "Anchor-10" 0 0 basechar 0
AnchorPoint: "Anchor-9" 431 660 basechar 0
AnchorPoint: "Anchor-8" 0 0 basechar 0
AnchorPoint: "Anchor-7" 431 0 basechar 0
LayerCount: 2
Fore
SplineSet
841 700 m 1,0,1
 819 551 819 551 777.5 393 c 128,-1,2
 736 235 736 235 656 0 c 1,3,-1
 594 0 l 1,4,5
 521 244 521 244 487.5 361.5 c 128,-1,6
 454 479 454 479 433 572 c 1,7,8
 409 468 409 468 373.5 341.5 c 128,-1,9
 338 215 338 215 272 0 c 1,10,-1
 210 0 l 1,11,12
 130 224 130 224 85 385 c 128,-1,13
 40 546 40 546 15 700 c 1,14,-1
 72 700 l 1,15,16
 113 447 113 447 240 78 c 1,17,18
 284 209 284 209 323.5 349.5 c 128,-1,19
 363 490 363 490 415 700 c 1,20,-1
 447 700 l 1,21,22
 514 451 514 451 551.5 321 c 128,-1,23
 589 191 589 191 626 79 c 1,24,25
 749 442 749 442 788 700 c 1,26,-1
 841 700 l 1,0,1
EndSplineSet
EndChar

StartChar: X
Encoding: 88 88 195
Width: 582
GlyphClass: 2
Flags: W
AnchorPoint: "Anchor-10" 0 0 basechar 0
AnchorPoint: "Anchor-9" 301 660 basechar 0
AnchorPoint: "Anchor-8" 0 0 basechar 0
AnchorPoint: "Anchor-7" 301 0 basechar 0
LayerCount: 2
Fore
SplineSet
434 261.5 m 128,-1,1
 476 213 476 213 509.5 147.5 c 128,-1,2
 543 82 543 82 558 0 c 1,3,-1
 496 0 l 1,4,5
 485 70 485 70 455.5 128 c 128,-1,6
 426 186 426 186 387 232 c 128,-1,7
 348 278 348 278 291 333 c 1,8,9
 234 278 234 278 195 232 c 128,-1,10
 156 186 156 186 126.5 128 c 128,-1,11
 97 70 97 70 86 0 c 1,12,-1
 24 0 l 1,13,14
 39 82 39 82 72.5 147.5 c 128,-1,15
 106 213 106 213 148 261.5 c 128,-1,16
 190 310 190 310 253 370 c 1,17,18
 194 426 194 426 154.5 471.5 c 128,-1,19
 115 517 115 517 84 574 c 128,-1,20
 53 631 53 631 39 700 c 1,21,-1
 99 700 l 1,22,23
 118 612 118 612 165 546 c 128,-1,24
 212 480 212 480 291 406 c 1,25,26
 370 480 370 480 417 546 c 128,-1,27
 464 612 464 612 483 700 c 1,28,-1
 543 700 l 1,29,30
 529 631 529 631 498 574 c 128,-1,31
 467 517 467 517 427.5 471.5 c 128,-1,32
 388 426 388 426 329 370 c 1,33,0
 392 310 392 310 434 261.5 c 128,-1,1
EndSplineSet
EndChar

StartChar: Y
Encoding: 89 89 196
Width: 590
GlyphClass: 2
Flags: W
AnchorPoint: "Anchor-10" 0 0 basechar 0
AnchorPoint: "Anchor-9" 295 660 basechar 0
AnchorPoint: "Anchor-8" 0 0 basechar 0
AnchorPoint: "Anchor-7" 295 0 basechar 0
LayerCount: 2
Fore
SplineSet
570 700 m 1,0,-1
 324 294 l 1,1,-1
 324 0 l 1,2,-1
 267 0 l 1,3,-1
 267 294 l 1,4,-1
 20 700 l 1,5,-1
 83 700 l 1,6,-1
 296 342 l 1,7,-1
 508 700 l 1,8,-1
 570 700 l 1,0,-1
EndSplineSet
EndChar

StartChar: Z
Encoding: 90 90 205
Width: 580
GlyphClass: 2
Flags: W
AnchorPoint: "Anchor-10" 0 0 basechar 0
AnchorPoint: "Anchor-9" 290 660 basechar 0
AnchorPoint: "Anchor-8" 0 0 basechar 0
AnchorPoint: "Anchor-7" 290 0 basechar 0
LayerCount: 2
Fore
SplineSet
528 50 m 1,0,-1
 528 0 l 1,1,-1
 54 0 l 1,2,-1
 54 50 l 1,3,-1
 457 650 l 1,4,-1
 52 650 l 1,5,-1
 52 700 l 1,6,-1
 520 700 l 1,7,-1
 520 651 l 1,8,-1
 123 50 l 1,9,-1
 528 50 l 1,0,-1
EndSplineSet
EndChar

StartChar: a
Encoding: 97 97 210
Width: 558
GlyphClass: 2
Flags: W
AnchorPoint: "Anchor-10" 0 0 basechar 0
AnchorPoint: "Anchor-9" 277 550 basechar 0
AnchorPoint: "Anchor-8" 502 10 basechar 0
AnchorPoint: "Anchor-7" 279 0 basechar 0
LayerCount: 2
Fore
SplineSet
483.5 60.5 m 128,-1,1
 491 35 491 35 510 17 c 1,2,3
 505 8 505 8 494 1.5 c 128,-1,4
 483 -5 483 -5 473 -5 c 0,5,6
 452 -5 452 -5 438.5 21.5 c 128,-1,7
 425 48 425 48 422 92 c 1,8,9
 388 45 388 45 332 17.5 c 128,-1,10
 276 -10 276 -10 213 -10 c 0,11,12
 141 -10 141 -10 95.5 30.5 c 128,-1,13
 50 71 50 71 50 135 c 0,14,15
 50 228 50 228 144 280.5 c 128,-1,16
 238 333 238 333 421 341 c 1,17,-1
 421 373 l 2,18,19
 421 514 421 514 278 514 c 0,20,21
 228 514 228 514 185.5 495 c 128,-1,22
 143 476 143 476 102 434 c 0,23,24
 97 429 97 429 88 429 c 256,25,26
 79 429 79 429 69 436 c 128,-1,27
 59 443 59 443 51 456 c 1,28,29
 94 506 94 506 154 533 c 128,-1,30
 214 560 214 560 281 560 c 0,31,32
 373 560 373 560 424.5 510.5 c 128,-1,33
 476 461 476 461 476 373 c 2,34,-1
 476 132 l 2,35,0
 476 86 476 86 483.5 60.5 c 128,-1,1
329 68.5 m 128,-1,37
 382 101 382 101 421 160 c 1,38,-1
 421 295 l 1,39,40
 262 288 262 288 184 249 c 128,-1,41
 106 210 106 210 106 136 c 0,42,43
 106 89 106 89 136 62.5 c 128,-1,44
 166 36 166 36 218 36 c 0,45,36
 276 36 276 36 329 68.5 c 128,-1,37
EndSplineSet
Substitution2: "Single Substitution lookup 20 subtable" ordfeminine
Substitution2: "'aalt' Access All Alternates lookup 0 subtable" ordfeminine
EndChar

StartChar: uni0251
Encoding: 593 593 229
Width: 598
Flags: W
LayerCount: 2
Fore
SplineSet
521 8 m 1,1,2
 502 -4 502 -4 487 -4 c 0,3,4
 460 -4 460 -4 455 65 c 1,5,6
 393 -10 393 -10 278 -10 c 0,7,8
 214 -10 214 -10 161.5 19.5 c 128,-1,9
 109 49 109 49 77 112.5 c 128,-1,10
 45 176 45 176 45 272 c 0,11,12
 45 406 45 406 111 483 c 128,-1,13
 177 560 177 560 292 560 c 0,14,15
 341 560 341 560 383.5 544.5 c 128,-1,16
 426 529 426 529 454 507 c 1,17,-1
 454 550 l 1,18,-1
 507 550 l 1,19,-1
 507 128 l 2,20,0
 507 48 507 48 521 8 c 1,1,2
454 122 m 1,22,-1
 454 453 l 1,23,24
 424 481 424 481 381.5 498.5 c 128,-1,25
 339 516 339 516 292 516 c 0,26,27
 205 516 205 516 152.5 451.5 c 128,-1,28
 100 387 100 387 100 272 c 256,29,30
 100 157 100 157 150 96.5 c 128,-1,31
 200 36 200 36 283 36 c 0,32,21
 390 36 390 36 454 122 c 1,22,-1
EndSplineSet
EndChar

StartChar: aogonek
Encoding: 261 261 231
Width: 558
GlyphClass: 2
Flags: W
AnchorPoint: "Anchor-10" 0 0 basechar 0
AnchorPoint: "Anchor-9" 277 550 basechar 0
AnchorPoint: "Anchor-8" 502 10 basechar 0
AnchorPoint: "Anchor-7" 279 0 basechar 0
LayerCount: 2
Fore
SplineSet
541 -169 m 0,1,2
 541 -182 541 -182 523 -191 c 128,-1,3
 505 -200 505 -200 472 -200 c 0,4,5
 428 -200 428 -200 400.5 -175.5 c 128,-1,6
 373 -151 373 -151 373 -112 c 0,7,8
 373 -72 373 -72 393 -44.5 c 128,-1,9
 413 -17 413 -17 451 4 c 1,10,11
 427 27 427 27 422 92 c 1,12,13
 388 45 388 45 332 17.5 c 128,-1,14
 276 -10 276 -10 213 -10 c 0,15,16
 141 -10 141 -10 95.5 30.5 c 128,-1,17
 50 71 50 71 50 135 c 0,18,19
 50 228 50 228 144 280.5 c 128,-1,20
 238 333 238 333 421 341 c 1,21,-1
 421 373 l 2,22,23
 421 514 421 514 278 514 c 0,24,25
 228 514 228 514 185.5 495 c 128,-1,26
 143 476 143 476 102 434 c 0,27,28
 97 429 97 429 88 429 c 256,29,30
 79 429 79 429 69 436 c 128,-1,31
 59 443 59 443 51 456 c 1,32,33
 94 506 94 506 154 533 c 128,-1,34
 214 560 214 560 281 560 c 0,35,36
 373 560 373 560 424.5 510.5 c 128,-1,37
 476 461 476 461 476 373 c 2,38,-1
 476 132 l 2,39,40
 476 86 476 86 483.5 60.5 c 128,-1,41
 491 35 491 35 510 17 c 1,42,43
 506 11 506 11 498.5 5 c 128,-1,44
 491 -1 491 -1 483 -3 c 0,45,46
 424 -49 424 -49 424 -107 c 0,47,48
 424 -133 424 -133 439.5 -147 c 128,-1,49
 455 -161 455 -161 482 -161 c 0,50,51
 515 -161 515 -161 535 -150 c 1,52,0
 541 -159 541 -159 541 -169 c 0,1,2
329 68.5 m 128,-1,54
 382 101 382 101 421 160 c 1,55,-1
 421 295 l 1,56,57
 262 288 262 288 184 249 c 128,-1,58
 106 210 106 210 106 136 c 0,59,60
 106 89 106 89 136 62.5 c 128,-1,61
 166 36 166 36 218 36 c 0,62,53
 276 36 276 36 329 68.5 c 128,-1,54
EndSplineSet
EndChar

StartChar: ae
Encoding: 230 230 235
Width: 932
GlyphClass: 2
Flags: W
AnchorPoint: "Anchor-10" 0 0 basechar 0
AnchorPoint: "Anchor-9" 449 550 basechar 0
AnchorPoint: "Anchor-8" 0 0 basechar 0
AnchorPoint: "Anchor-7" 449 0 basechar 0
LayerCount: 2
Fore
SplineSet
889 278 m 1,1,-1
 478 278 l 1,2,3
 478 159 478 159 527.5 97.5 c 128,-1,4
 577 36 577 36 662 36 c 0,5,6
 728 36 728 36 766 59.5 c 128,-1,7
 804 83 804 83 826 131 c 0,8,9
 832 144 832 144 844 144 c 0,10,11
 858 144 858 144 881 128 c 1,12,13
 858 62 858 62 803.5 25 c 128,-1,14
 749 -12 749 -12 662 -12 c 0,15,16
 591 -12 591 -12 537 20 c 128,-1,17
 483 52 483 52 454 115 c 1,18,19
 414 54 414 54 353 21 c 128,-1,20
 292 -12 292 -12 218 -12 c 0,21,22
 146 -12 146 -12 98 26.5 c 128,-1,23
 50 65 50 65 50 132 c 0,24,25
 50 325 50 325 423 327 c 1,26,-1
 423 373 l 2,27,28
 423 514 423 514 273 514 c 0,29,30
 219 514 219 514 180.5 493.5 c 128,-1,31
 142 473 142 473 102 432 c 0,32,33
 95 424 95 424 87 424 c 0,34,35
 72 424 72 424 51 451 c 1,36,37
 93 501 93 501 149.5 530.5 c 128,-1,38
 206 560 206 560 276 560 c 0,39,40
 343 560 343 560 393 532 c 128,-1,41
 443 504 443 504 463 449 c 1,42,43
 495 504 495 504 548 532 c 128,-1,44
 601 560 601 560 666 560 c 0,45,46
 774 560 774 560 832 499.5 c 128,-1,47
 890 439 890 439 892 318 c 0,48,0
 892 296 892 296 889 278 c 1,1,-1
837 322 m 1,49,50
 835 416 835 416 790.5 466 c 128,-1,51
 746 516 746 516 663 516 c 0,52,53
 588 516 588 516 538.5 466.5 c 128,-1,54
 489 417 489 417 480 322 c 1,55,-1
 837 322 l 1,49,50
350 74 m 128,-1,57
 408 114 408 114 433 176 c 1,58,59
 423 226 423 226 423 276 c 2,60,-1
 423 281 l 1,61,62
 251 275 251 275 178 239.5 c 128,-1,63
 105 204 105 204 105 133 c 0,64,65
 105 87 105 87 136.5 60.5 c 128,-1,66
 168 34 168 34 223 34 c 0,67,56
 292 34 292 34 350 74 c 128,-1,57
EndSplineSet
EndChar

StartChar: b
Encoding: 98 98 237
Width: 610
Flags: W
LayerCount: 2
Fore
SplineSet
502.5 487.5 m 128,-1,1
 565 415 565 415 565 284 c 0,2,3
 565 145 565 145 501.5 67.5 c 128,-1,4
 438 -10 438 -10 323 -10 c 0,5,6
 270 -10 270 -10 226.5 7 c 128,-1,7
 183 24 183 24 153 55 c 1,8,9
 149 29 149 29 141 14 c 128,-1,10
 133 -1 133 -1 122 -1 c 0,11,12
 102 -1 102 -1 82 12 c 1,13,14
 101 54 101 54 101 132 c 2,15,-1
 101 791 l 1,16,-1
 157 791 l 1,17,-1
 157 506 l 1,18,19
 192 532 192 532 236.5 546 c 128,-1,20
 281 560 281 560 328 560 c 0,21,0
 440 560 440 560 502.5 487.5 c 128,-1,1
460 103 m 128,-1,23
 509 168 509 168 509 284 c 0,24,25
 509 394 509 394 461.5 454 c 128,-1,26
 414 514 414 514 328 514 c 0,27,28
 234 514 234 514 157 454 c 1,29,-1
 157 112 l 1,30,31
 187 77 187 77 230.5 57.5 c 128,-1,32
 274 38 274 38 323 38 c 0,33,22
 411 38 411 38 460 103 c 128,-1,23
EndSplineSet
EndChar

StartChar: c
Encoding: 99 99 238
Width: 549
GlyphClass: 2
Flags: W
AnchorPoint: "Anchor-10" 0 0 basechar 0
AnchorPoint: "Anchor-9" 287 550 basechar 0
AnchorPoint: "Anchor-8" 0 0 basechar 0
AnchorPoint: "Anchor-7" 287 0 basechar 0
LayerCount: 2
Fore
SplineSet
157.5 25 m 128,-1,1
 101 60 101 60 70.5 125 c 128,-1,2
 40 190 40 190 40 278 c 0,3,4
 40 363 40 363 71 427 c 128,-1,5
 102 491 102 491 159 525.5 c 128,-1,6
 216 560 216 560 292 560 c 0,7,8
 383 560 383 560 441.5 513 c 128,-1,9
 500 466 500 466 508 387 c 1,10,11
 500 383 500 383 489 380 c 128,-1,12
 478 377 478 377 470 377 c 0,13,14
 461 377 461 377 456.5 382.5 c 128,-1,15
 452 388 452 388 448 405 c 0,16,17
 436 456 436 456 394.5 485 c 128,-1,18
 353 514 353 514 292 514 c 0,19,20
 234 514 234 514 189.5 484.5 c 128,-1,21
 145 455 145 455 120.5 401.5 c 128,-1,22
 96 348 96 348 96 278 c 0,23,24
 96 206 96 206 120 151.5 c 128,-1,25
 144 97 144 97 188.5 67 c 128,-1,26
 233 37 233 37 291 37 c 0,27,28
 357 37 357 37 403.5 66.5 c 128,-1,29
 450 96 450 96 474 153 c 1,30,31
 485 153 485 153 493 143.5 c 128,-1,32
 501 134 501 134 501 121 c 0,33,34
 501 88 501 88 471.5 57.5 c 128,-1,35
 442 27 442 27 393 8.5 c 128,-1,36
 344 -10 344 -10 291 -10 c 0,37,0
 214 -10 214 -10 157.5 25 c 128,-1,1
EndSplineSet
EndChar

StartChar: ccedilla
Encoding: 231 231 241
Width: 549
GlyphClass: 2
Flags: W
AnchorPoint: "Anchor-10" 0 0 basechar 0
AnchorPoint: "Anchor-9" 0 0 basechar 0
AnchorPoint: "Anchor-8" 0 0 basechar 0
AnchorPoint: "Anchor-7" 287 -214 basechar 0
LayerCount: 2
Fore
SplineSet
493 143.5 m 128,-1,1
 501 134 501 134 501 121 c 0,2,3
 501 90 501 90 474 61 c 128,-1,4
 447 32 447 32 402.5 13 c 128,-1,5
 358 -6 358 -6 308 -9 c 1,6,-1
 269 -58 l 2,7,8
 274 -57 274 -57 283 -57 c 0,9,10
 323 -57 323 -57 349 -77.5 c 128,-1,11
 375 -98 375 -98 375 -136 c 0,12,13
 375 -180 375 -180 340 -204.5 c 128,-1,14
 305 -229 305 -229 254 -229 c 0,15,16
 209 -229 209 -229 183.5 -219 c 128,-1,17
 158 -209 158 -209 158 -189 c 0,18,19
 158 -184 158 -184 161 -176 c 1,20,21
 205 -189 205 -189 249 -189 c 0,22,23
 323 -189 323 -189 323 -137 c 0,24,25
 323 -118 323 -118 308.5 -106.5 c 128,-1,26
 294 -95 294 -95 268 -95 c 0,27,28
 251 -95 251 -95 228 -101 c 1,29,-1
 210 -75 l 1,30,-1
 260 -8 l 1,31,32
 157 3 157 3 98.5 78.5 c 128,-1,33
 40 154 40 154 40 278 c 0,34,35
 40 363 40 363 71 427 c 128,-1,36
 102 491 102 491 159 525.5 c 128,-1,37
 216 560 216 560 292 560 c 0,38,39
 383 560 383 560 441.5 513 c 128,-1,40
 500 466 500 466 508 387 c 1,41,42
 500 383 500 383 489 380 c 128,-1,43
 478 377 478 377 470 377 c 0,44,45
 461 377 461 377 456.5 382.5 c 128,-1,46
 452 388 452 388 448 405 c 0,47,48
 436 456 436 456 394.5 485 c 128,-1,49
 353 514 353 514 292 514 c 0,50,51
 234 514 234 514 189.5 484.5 c 128,-1,52
 145 455 145 455 120.5 401.5 c 128,-1,53
 96 348 96 348 96 278 c 0,54,55
 96 206 96 206 120 151.5 c 128,-1,56
 144 97 144 97 188.5 67 c 128,-1,57
 233 37 233 37 291 37 c 0,58,59
 357 37 357 37 403.5 66.5 c 128,-1,60
 450 96 450 96 474 153 c 1,61,0
 485 153 485 153 493 143.5 c 128,-1,1
EndSplineSet
EndChar

StartChar: d
Encoding: 100 100 244
Width: 598
GlyphClass: 2
Flags: W
AnchorPoint: "Anchor-10" 578 550 basechar 0
AnchorPoint: "Anchor-9" 299 750 basechar 0
AnchorPoint: "Anchor-8" 0 0 basechar 0
AnchorPoint: "Anchor-7" 299 0 basechar 0
LayerCount: 2
Fore
SplineSet
521 8 m 1,1,2
 502 -4 502 -4 486 -4 c 0,3,4
 459 -4 459 -4 453 64 c 1,5,6
 391 -10 391 -10 278 -10 c 0,7,8
 169 -10 169 -10 107 65.5 c 128,-1,9
 45 141 45 141 45 273 c 0,10,11
 45 408 45 408 110.5 484 c 128,-1,12
 176 560 176 560 292 560 c 0,13,14
 334 560 334 560 378 546 c 128,-1,15
 422 532 422 532 452 509 c 1,16,-1
 452 791 l 1,17,-1
 507 791 l 1,18,-1
 507 128 l 2,19,0
 507 48 507 48 521 8 c 1,1,2
452 121 m 1,21,-1
 452 454 l 1,22,23
 420 483 420 483 378 499 c 128,-1,24
 336 515 336 515 292 515 c 0,25,26
 202 515 202 515 151.5 451 c 128,-1,27
 101 387 101 387 101 273 c 0,28,29
 101 161 101 161 149 99 c 128,-1,30
 197 37 197 37 283 37 c 0,31,20
 388 37 388 37 452 121 c 1,21,-1
EndSplineSet
EndChar

StartChar: eth
Encoding: 240 240 245
Width: 547
Flags: W
LayerCount: 2
Fore
SplineSet
467 503 m 128,-1,1
 507 401 507 401 507 275 c 0,2,3
 507 151 507 151 452 69.5 c 128,-1,4
 397 -12 397 -12 274 -12 c 0,5,6
 150 -12 150 -12 95 69.5 c 128,-1,7
 40 151 40 151 40 275 c 0,8,9
 40 349 40 349 62.5 413 c 128,-1,10
 85 477 85 477 137.5 518.5 c 128,-1,11
 190 560 190 560 274 560 c 0,12,13
 345 560 345 560 395 526 c 1,14,15
 358 597 358 597 292 660 c 1,16,-1
 193 600 l 1,17,-1
 164 641 l 1,18,-1
 253 695 l 1,19,20
 213 729 213 729 167 755 c 1,21,-1
 203 794 l 1,22,23
 259 760 259 760 301 725 c 1,24,-1
 416 795 l 1,25,-1
 444 753 l 1,26,-1
 340 690 l 1,27,0
 427 605 427 605 467 503 c 128,-1,1
452 275 m 0,29,30
 452 384 452 384 409 449 c 128,-1,31
 366 514 366 514 274 514 c 0,32,33
 181 514 181 514 138 449 c 128,-1,34
 95 384 95 384 95 275 c 0,35,36
 95 34 95 34 274 34 c 0,37,28
 452 34 452 34 452 275 c 0,29,30
EndSplineSet
EndChar

StartChar: dcroat
Encoding: 273 273 247
Width: 602
GlyphClass: 2
Flags: W
AnchorPoint: "Anchor-10" 578 550 basechar 0
AnchorPoint: "Anchor-9" 299 750 basechar 0
AnchorPoint: "Anchor-8" 0 0 basechar 0
AnchorPoint: "Anchor-7" 299 0 basechar 0
LayerCount: 2
Fore
SplineSet
507 660 m 1,0,-1
 507 128 l 2,1,2
 507 48 507 48 521 8 c 1,3,4
 502 -4 502 -4 486 -4 c 0,5,6
 459 -4 459 -4 453 64 c 1,7,8
 391 -10 391 -10 278 -10 c 0,9,10
 169 -10 169 -10 107 65.5 c 128,-1,11
 45 141 45 141 45 273 c 0,12,13
 45 408 45 408 110.5 484 c 128,-1,14
 176 560 176 560 292 560 c 0,15,16
 334 560 334 560 378 546 c 128,-1,17
 422 532 422 532 452 509 c 1,18,-1
 452 660 l 1,19,-1
 291 660 l 1,20,-1
 291 700 l 1,21,-1
 452 700 l 1,22,-1
 452 791 l 1,23,-1
 507 791 l 1,24,-1
 507 700 l 1,25,-1
 602 700 l 1,26,-1
 602 660 l 1,27,-1
 507 660 l 1,0,-1
452 121 m 1,29,-1
 452 454 l 1,30,31
 420 483 420 483 378 499 c 128,-1,32
 336 515 336 515 292 515 c 0,33,34
 202 515 202 515 151.5 451 c 128,-1,35
 101 387 101 387 101 273 c 0,36,37
 101 161 101 161 149 99 c 128,-1,38
 197 37 197 37 283 37 c 0,39,28
 388 37 388 37 452 121 c 1,29,-1
EndSplineSet
EndChar

StartChar: e
Encoding: 101 101 250
Width: 560
GlyphClass: 2
Flags: W
AnchorPoint: "Anchor-10" 0 0 basechar 0
AnchorPoint: "Anchor-9" 286 550 basechar 0
AnchorPoint: "Anchor-8" 391 10 basechar 0
AnchorPoint: "Anchor-7" 290 0 basechar 0
LayerCount: 2
Fore
SplineSet
518 268 m 1,1,-1
 106 268 l 1,2,3
 109 161 109 161 158 99.5 c 128,-1,4
 207 38 207 38 290 38 c 0,5,6
 346 38 346 38 384.5 59 c 128,-1,7
 423 80 423 80 452 127 c 0,8,9
 463 144 463 144 476 144 c 0,10,11
 487 144 487 144 509 130 c 1,12,13
 484 63 484 63 427 26.5 c 128,-1,14
 370 -10 370 -10 290 -10 c 0,15,16
 217 -10 217 -10 163 25 c 128,-1,17
 109 60 109 60 79.5 124.5 c 128,-1,18
 50 189 50 189 50 276 c 0,19,20
 50 410 50 410 114.5 485 c 128,-1,21
 179 560 179 560 294 560 c 0,22,23
 401 560 401 560 460.5 493 c 128,-1,24
 520 426 520 426 520 307 c 0,25,0
 520 286 520 286 518 268 c 1,1,-1
464 314 m 1,26,27
 464 411 464 411 420 461.5 c 128,-1,28
 376 512 376 512 291 512 c 0,29,30
 211 512 211 512 162.5 460 c 128,-1,31
 114 408 114 408 107 314 c 1,32,-1
 464 314 l 1,26,27
EndSplineSet
EndChar

StartChar: eogonek
Encoding: 281 281 266
Width: 560
GlyphClass: 2
Flags: W
AnchorPoint: "Anchor-10" 0 0 basechar 0
AnchorPoint: "Anchor-9" 286 550 basechar 0
AnchorPoint: "Anchor-8" 391 10 basechar 0
AnchorPoint: "Anchor-7" 290 0 basechar 0
LayerCount: 2
Fore
SplineSet
518 268 m 1,1,-1
 106 268 l 1,2,3
 109 161 109 161 158 99.5 c 128,-1,4
 207 38 207 38 290 38 c 0,5,6
 346 38 346 38 384.5 59 c 128,-1,7
 423 80 423 80 452 127 c 0,8,9
 463 144 463 144 476 144 c 0,10,11
 487 144 487 144 509 130 c 1,12,13
 493 85 493 85 461 53.5 c 128,-1,14
 429 22 429 22 384 5 c 1,15,16
 313 -42 313 -42 313 -107 c 0,17,18
 313 -133 313 -133 328.5 -147 c 128,-1,19
 344 -161 344 -161 371 -161 c 0,20,21
 404 -161 404 -161 424 -150 c 1,22,23
 430 -159 430 -159 430 -169 c 0,24,25
 430 -182 430 -182 412 -191 c 128,-1,26
 394 -200 394 -200 361 -200 c 0,27,28
 317 -200 317 -200 289.5 -175.5 c 128,-1,29
 262 -151 262 -151 262 -112 c 0,30,31
 262 -49 262 -49 319 -9 c 1,32,33
 310 -10 310 -10 290 -10 c 0,34,35
 217 -10 217 -10 163 25 c 128,-1,36
 109 60 109 60 79.5 124.5 c 128,-1,37
 50 189 50 189 50 276 c 0,38,39
 50 410 50 410 114.5 485 c 128,-1,40
 179 560 179 560 294 560 c 0,41,42
 401 560 401 560 460.5 493 c 128,-1,43
 520 426 520 426 520 307 c 0,44,0
 520 286 520 286 518 268 c 1,1,-1
464 314 m 1,45,46
 464 411 464 411 420 461.5 c 128,-1,47
 376 512 376 512 291 512 c 0,48,49
 211 512 211 512 162.5 460 c 128,-1,50
 114 408 114 408 107 314 c 1,51,-1
 464 314 l 1,45,46
EndSplineSet
EndChar

StartChar: uni0259
Encoding: 601 601 268
Width: 560
GlyphClass: 2
Flags: W
AnchorPoint: "Anchor-10" 0 0 basechar 0
AnchorPoint: "Anchor-9" 270 550 basechar 0
AnchorPoint: "Anchor-8" 169 540 basechar 0
AnchorPoint: "Anchor-7" 274 0 basechar 0
LayerCount: 2
Fore
SplineSet
397.5 525.5 m 128,-1,1
 452 491 452 491 481 426.5 c 128,-1,2
 510 362 510 362 510 274 c 0,3,4
 510 140 510 140 445.5 65 c 128,-1,5
 381 -10 381 -10 266 -10 c 0,6,7
 160 -10 160 -10 100 57 c 128,-1,8
 40 124 40 124 40 243 c 0,9,10
 40 246 40 246 42 282 c 1,11,-1
 454 282 l 1,12,13
 452 389 452 389 403 450.5 c 128,-1,14
 354 512 354 512 270 512 c 0,15,16
 214 512 214 512 175.5 490.5 c 128,-1,17
 137 469 137 469 109 423 c 0,18,19
 98 406 98 406 85 406 c 0,20,21
 73 406 73 406 51 420 c 1,22,23
 77 487 77 487 134 523.5 c 128,-1,24
 191 560 191 560 270 560 c 0,25,0
 343 560 343 560 397.5 525.5 c 128,-1,1
397 89.5 m 128,-1,27
 445 141 445 141 453 236 c 1,28,-1
 96 236 l 1,29,30
 96 139 96 139 140 88.5 c 128,-1,31
 184 38 184 38 269 38 c 0,32,26
 349 38 349 38 397 89.5 c 128,-1,27
EndSplineSet
EndChar

StartChar: f
Encoding: 102 102 269
Width: 335
Flags: W
LayerCount: 2
Fore
SplineSet
326 771.5 m 128,-1,1
 350 761 350 761 350 741 c 0,2,3
 350 733 350 733 346.5 726 c 128,-1,4
 343 719 343 719 338 719 c 0,5,6
 312 735 312 735 264 735 c 0,7,8
 218 735 218 735 194 706.5 c 128,-1,9
 170 678 170 678 170 623 c 2,10,-1
 170 550 l 1,11,-1
 307 550 l 1,12,-1
 307 506 l 1,13,-1
 170 506 l 1,14,-1
 170 0 l 1,15,-1
 115 0 l 1,16,-1
 115 506 l 1,17,-1
 12 506 l 1,18,-1
 12 550 l 1,19,-1
 115 550 l 1,20,-1
 115 624 l 2,21,22
 115 697 115 697 154 739.5 c 128,-1,23
 193 782 193 782 259 782 c 0,24,0
 302 782 302 782 326 771.5 c 128,-1,1
EndSplineSet
EndChar

StartChar: g
Encoding: 103 103 270
Width: 585
GlyphClass: 2
Flags: W
AnchorPoint: "Anchor-10" 0 0 basechar 0
AnchorPoint: "Anchor-9" 293 550 basechar 0
AnchorPoint: "Anchor-8" 0 0 basechar 0
AnchorPoint: "Anchor-7" 293 -190 basechar 0
LayerCount: 2
Fore
SplineSet
556 571.5 m 128,-1,1
 564 564 564 564 564 545 c 0,2,3
 564 535 564 535 563 530 c 1,4,5
 485 530 485 530 452 503 c 1,6,7
 500 455 500 455 500 376 c 0,8,9
 500 184 500 184 279 184 c 0,10,11
 204 184 204 184 171.5 174 c 128,-1,12
 139 164 139 164 139 140 c 0,13,14
 139 112 139 112 175 101.5 c 128,-1,15
 211 91 211 91 304 91 c 0,16,17
 422 91 422 91 484 56 c 128,-1,18
 546 21 546 21 546 -46 c 0,19,20
 546 -125 546 -125 482.5 -163.5 c 128,-1,21
 419 -202 419 -202 289 -202 c 0,22,23
 174 -202 174 -202 112 -165.5 c 128,-1,24
 50 -129 50 -129 50 -60 c 0,25,26
 50 -16 50 -16 77 14.5 c 128,-1,27
 104 45 104 45 155 59 c 1,28,-1
 155 62 l 1,29,30
 125 69 125 69 107.5 89 c 128,-1,31
 90 109 90 109 90 137 c 256,32,33
 90 165 90 165 110.5 184 c 128,-1,34
 131 203 131 203 168 209 c 1,35,36
 123 233 123 233 97.5 273 c 128,-1,37
 72 313 72 313 72 364 c 0,38,39
 72 560 72 560 298 560 c 0,40,41
 369 560 369 560 419 529 c 1,42,43
 445 552 445 552 474.5 565.5 c 128,-1,44
 504 579 504 579 530 579 c 0,45,0
 548 579 548 579 556 571.5 c 128,-1,1
405 264.5 m 128,-1,47
 443 298 443 298 443 372 c 0,48,49
 443 445 443 445 404.5 480 c 128,-1,50
 366 515 366 515 285 515 c 0,51,52
 128 515 128 515 128 372 c 0,53,54
 128 304 128 304 168.5 267.5 c 128,-1,55
 209 231 209 231 285 231 c 0,56,46
 367 231 367 231 405 264.5 c 128,-1,47
443.5 20 m 128,-1,58
 398 42 398 42 293 42 c 0,59,60
 197 42 197 42 152 19.5 c 128,-1,61
 107 -3 107 -3 107 -52 c 0,62,63
 107 -105 107 -105 151.5 -130 c 128,-1,64
 196 -155 196 -155 289 -155 c 0,65,66
 393 -155 393 -155 441 -130.5 c 128,-1,67
 489 -106 489 -106 489 -52 c 0,68,57
 489 -2 489 -2 443.5 20 c 128,-1,58
EndSplineSet
EndChar

StartChar: h
Encoding: 104 104 277
Width: 630
GlyphClass: 2
Flags: W
AnchorPoint: "Anchor-10" 0 0 basechar 0
AnchorPoint: "Anchor-9" 125 710 basechar 0
AnchorPoint: "Anchor-8" 0 0 basechar 0
AnchorPoint: "Anchor-7" 315 0 basechar 0
LayerCount: 2
Fore
SplineSet
487.5 510 m 128,-1,1
 539 460 539 460 539 376 c 2,2,-1
 539 0 l 1,3,-1
 484 0 l 1,4,-1
 484 369 l 2,5,6
 484 439 484 439 448 476 c 128,-1,7
 412 513 412 513 344 513 c 0,8,9
 297 513 297 513 243.5 492.5 c 128,-1,10
 190 472 190 472 146 438 c 1,11,-1
 146 0 l 1,12,-1
 91 0 l 1,13,-1
 91 791 l 1,14,-1
 146 791 l 1,15,-1
 146 492 l 1,16,17
 244 560 244 560 350 560 c 0,18,0
 436 560 436 560 487.5 510 c 128,-1,1
EndSplineSet
EndChar

StartChar: hbar
Encoding: 295 295 278
Width: 635
GlyphClass: 2
Flags: W
AnchorPoint: "Anchor-10" 0 0 basechar 0
AnchorPoint: "Anchor-9" 130 710 basechar 0
AnchorPoint: "Anchor-8" 0 0 basechar 0
AnchorPoint: "Anchor-7" 320 0 basechar 0
LayerCount: 2
Fore
SplineSet
492.5 510 m 128,-1,1
 544 460 544 460 544 376 c 2,2,-1
 544 0 l 1,3,-1
 489 0 l 1,4,-1
 489 369 l 2,5,6
 489 439 489 439 453 476 c 128,-1,7
 417 513 417 513 349 513 c 0,8,9
 302 513 302 513 248.5 492.5 c 128,-1,10
 195 472 195 472 151 438 c 1,11,-1
 151 0 l 1,12,-1
 96 0 l 1,13,-1
 96 654 l 1,14,-1
 5 654 l 1,15,-1
 5 699 l 1,16,-1
 96 699 l 1,17,-1
 96 791 l 1,18,-1
 151 791 l 1,19,-1
 151 699 l 1,20,-1
 304 699 l 1,21,-1
 304 654 l 1,22,-1
 151 654 l 1,23,-1
 151 492 l 1,24,25
 249 560 249 560 355 560 c 0,26,0
 441 560 441 560 492.5 510 c 128,-1,1
EndSplineSet
EndChar

StartChar: dotlessi
Encoding: 305 305 283
Width: 289
GlyphClass: 2
Flags: W
AnchorPoint: "Anchor-10" 0 0 basechar 0
AnchorPoint: "Anchor-9" 145 550 basechar 0
AnchorPoint: "Anchor-8" 172 0 basechar 0
AnchorPoint: "Anchor-7" 145 0 basechar 0
LayerCount: 2
Fore
SplineSet
117 550 m 1,0,-1
 172 550 l 1,1,-1
 172 0 l 1,2,-1
 117 0 l 1,3,-1
 117 550 l 1,0,-1
EndSplineSet
EndChar

StartChar: uni0237
Encoding: 567 567 297
Width: 270
GlyphClass: 2
Flags: W
AnchorPoint: "Anchor-10" 0 0 basechar 0
AnchorPoint: "Anchor-9" 134 550 basechar 0
AnchorPoint: "Anchor-8" 0 0 basechar 0
AnchorPoint: "Anchor-7" 33 -192 basechar 0
LayerCount: 2
Fore
SplineSet
-13 -186 m 128,-1,1
 -36 -180 -36 -180 -47 -171 c 0,2,3
 -54 -164 -54 -164 -54 -153 c 0,4,5
 -54 -144 -54 -144 -50.5 -137 c 128,-1,6
 -47 -130 -47 -130 -42 -129 c 0,7,8
 -14 -144 -14 -144 35 -144 c 0,9,10
 69 -144 69 -144 88 -123.5 c 128,-1,11
 107 -103 107 -103 107 -63 c 2,12,-1
 107 550 l 1,13,-1
 162 550 l 1,14,-1
 162 -58 l 2,15,16
 162 -123 162 -123 127 -157.5 c 128,-1,17
 92 -192 92 -192 33 -192 c 0,18,0
 10 -192 10 -192 -13 -186 c 128,-1,1
EndSplineSet
EndChar

StartChar: k
Encoding: 107 107 299
Width: 547
Flags: W
LayerCount: 2
Fore
SplineSet
527 0 m 1,0,1
 517 0 517 0 502.5 -1.5 c 128,-1,2
 488 -3 488 -3 480 -3 c 0,3,4
 464 -3 464 -3 455 11 c 2,5,-1
 328 215 l 2,6,7
 309 246 309 246 281 257.5 c 128,-1,8
 253 269 253 269 205 268 c 2,9,-1
 146 265 l 1,10,-1
 146 0 l 1,11,-1
 91 0 l 1,12,-1
 91 791 l 1,13,-1
 146 791 l 1,14,-1
 146 314 l 1,15,-1
 198 315 l 2,16,17
 227 316 227 316 243 323.5 c 128,-1,18
 259 331 259 331 276 354 c 2,19,-1
 429 550 l 1,20,-1
 495 550 l 1,21,-1
 321 333 l 2,22,23
 314 325 314 325 306 316 c 128,-1,24
 298 307 298 307 289 302 c 1,25,26
 345 290 345 290 373 244 c 2,27,-1
 527 0 l 1,0,1
EndSplineSet
EndChar

StartChar: kgreenlandic
Encoding: 312 312 301
Width: 591
Flags: W
LayerCount: 2
Fore
SplineSet
521 12 m 1,0,1
 496 -1 496 -1 480 -1 c 0,2,3
 466 -1 466 -1 456 12 c 2,4,-1
 329 205 l 2,5,6
 309 236 309 236 281.5 247 c 128,-1,7
 254 258 254 258 205 258 c 2,8,-1
 144 256 l 1,9,-1
 144 0 l 1,10,-1
 91 0 l 1,11,-1
 91 550 l 1,12,-1
 144 550 l 1,13,-1
 144 303 l 1,14,-1
 198 305 l 2,15,16
 227 306 227 306 243 313.5 c 128,-1,17
 259 321 259 321 276 344 c 2,18,-1
 431 550 l 1,19,-1
 495 550 l 1,20,-1
 316 319 l 2,21,22
 304 304 304 304 292 292 c 1,23,24
 344 277 344 277 372 234 c 2,25,-1
 521 12 l 1,0,1
EndSplineSet
EndChar

StartChar: l
Encoding: 108 108 302
Width: 269
GlyphClass: 2
Flags: W
AnchorPoint: "Anchor-10" 248 550 basechar 0
AnchorPoint: "Anchor-9" 134 750 basechar 0
AnchorPoint: "Anchor-8" 0 0 basechar 0
AnchorPoint: "Anchor-7" 134 0 basechar 0
LayerCount: 2
Fore
SplineSet
107 791 m 1,0,-1
 162 791 l 1,1,-1
 162 0 l 1,2,-1
 107 0 l 1,3,-1
 107 791 l 1,0,-1
EndSplineSet
EndChar

StartChar: lslash
Encoding: 322 322 310
Width: 268
GlyphClass: 2
Flags: W
AnchorPoint: "Anchor-10" 248 550 basechar 0
AnchorPoint: "Anchor-9" 134 750 basechar 0
AnchorPoint: "Anchor-8" 0 0 basechar 0
AnchorPoint: "Anchor-7" 134 0 basechar 0
LayerCount: 2
Fore
SplineSet
268 445 m 1,0,-1
 162 396 l 1,1,-1
 162 0 l 1,2,-1
 107 0 l 1,3,-1
 107 370 l 1,4,-1
 0 320 l 1,5,-1
 0 375 l 1,6,-1
 107 425 l 1,7,-1
 107 791 l 1,8,-1
 162 791 l 1,9,-1
 162 450 l 1,10,-1
 268 499 l 1,11,-1
 268 445 l 1,0,-1
EndSplineSet
EndChar

StartChar: m
Encoding: 109 109 311
Width: 912
GlyphClass: 2
Flags: W
AnchorPoint: "Anchor-10" 0 0 basechar 0
AnchorPoint: "Anchor-9" 456 550 basechar 0
AnchorPoint: "Anchor-8" 0 0 basechar 0
AnchorPoint: "Anchor-7" 456 0 basechar 0
LayerCount: 2
Fore
SplineSet
775 515.5 m 128,-1,1
 821 471 821 471 821 395 c 2,2,-1
 821 0 l 1,3,-1
 766 0 l 1,4,-1
 766 392 l 2,5,6
 766 515 766 515 642 515 c 0,7,8
 598 515 598 515 556 495 c 128,-1,9
 514 475 514 475 479 437 c 1,10,11
 482 419 482 419 482 399 c 2,12,-1
 482 0 l 1,13,-1
 427 0 l 1,14,-1
 427 397 l 2,15,16
 427 455 427 455 399.5 485 c 128,-1,17
 372 515 372 515 319 515 c 0,18,19
 226 515 226 515 146 432 c 1,20,-1
 146 0 l 1,21,-1
 91 0 l 1,22,-1
 91 388 l 2,23,24
 91 464 91 464 88.5 496.5 c 128,-1,25
 86 529 86 529 79 539 c 1,26,27
 102 554 102 554 120 554 c 0,28,29
 146 554 146 554 146 491 c 2,30,-1
 146 487 l 1,31,32
 225 560 225 560 326 560 c 0,33,34
 373 560 373 560 408.5 539.5 c 128,-1,35
 444 519 444 519 463 482 c 1,36,37
 541 560 541 560 651 560 c 0,38,0
 729 560 729 560 775 515.5 c 128,-1,1
EndSplineSet
EndChar

StartChar: n
Encoding: 110 110 313
Width: 610
GlyphClass: 2
Flags: W
AnchorPoint: "Anchor-10" 0 0 basechar 0
AnchorPoint: "Anchor-9" 305 550 basechar 0
AnchorPoint: "Anchor-8" 0 0 basechar 0
AnchorPoint: "Anchor-7" 305 0 basechar 0
LayerCount: 2
Fore
SplineSet
523 45.5 m 128,-1,1
 526 24 526 24 535 7 c 1,2,3
 527 2 527 2 516.5 -1.5 c 128,-1,4
 506 -5 506 -5 496 -5 c 0,5,6
 479 -5 479 -5 472 19 c 128,-1,7
 465 43 465 43 465 102 c 2,8,-1
 465 373 l 2,9,10
 465 447 465 447 435.5 481.5 c 128,-1,11
 406 516 406 516 342 516 c 0,12,13
 293 516 293 516 242 492 c 128,-1,14
 191 468 191 468 145 424 c 1,15,-1
 145 0 l 1,16,-1
 90 0 l 1,17,-1
 90 388 l 2,18,19
 90 464 90 464 87.5 496.5 c 128,-1,20
 85 529 85 529 78 539 c 1,21,22
 101 554 101 554 119 554 c 0,23,24
 133 554 133 554 139 539 c 128,-1,25
 145 524 145 524 145 491 c 2,26,-1
 145 480 l 1,27,28
 240 560 240 560 349 560 c 0,29,30
 435 560 435 560 477.5 513.5 c 128,-1,31
 520 467 520 467 520 372 c 2,32,-1
 520 118 l 2,33,0
 520 67 520 67 523 45.5 c 128,-1,1
EndSplineSet
EndChar

StartChar: eng
Encoding: 331 331 320
Width: 609
Flags: W
LayerCount: 2
Fore
SplineSet
477.5 513.5 m 128,-1,1
 520 467 520 467 520 372 c 2,2,-1
 520 -51 l 2,3,4
 520 -119 520 -119 483.5 -155.5 c 128,-1,5
 447 -192 447 -192 382 -192 c 0,6,7
 356 -192 356 -192 330 -183.5 c 128,-1,8
 304 -175 304 -175 299 -159 c 0,9,10
 297 -156 297 -156 297 -150 c 0,11,12
 297 -142 297 -142 301 -136 c 128,-1,13
 305 -130 305 -130 311 -130 c 0,14,15
 345 -146 345 -146 387 -146 c 0,16,17
 425 -146 425 -146 445.5 -123.5 c 128,-1,18
 466 -101 466 -101 466 -55 c 2,19,-1
 466 373 l 2,20,21
 466 449 466 449 435.5 482.5 c 128,-1,22
 405 516 405 516 342 516 c 0,23,24
 292 516 292 516 241 492 c 128,-1,25
 190 468 190 468 145 424 c 1,26,-1
 145 0 l 1,27,-1
 90 0 l 1,28,-1
 90 388 l 2,29,30
 90 456 90 456 88 489.5 c 128,-1,31
 86 523 86 523 78 537 c 1,32,33
 103 552 103 552 119 552 c 0,34,35
 145 552 145 552 145 489 c 2,36,-1
 145 480 l 1,37,38
 240 560 240 560 349 560 c 0,39,0
 435 560 435 560 477.5 513.5 c 128,-1,1
EndSplineSet
EndChar

StartChar: o
Encoding: 111 111 323
Width: 548
GlyphClass: 2
Flags: W
AnchorPoint: "Anchor-10" 420 474 basechar 0
AnchorPoint: "Anchor-9" 274 550 basechar 0
AnchorPoint: "Anchor-8" 359 10 basechar 0
AnchorPoint: "Anchor-7" 274 0 basechar 0
LayerCount: 2
Fore
SplineSet
99 62 m 128,-1,1
 40 134 40 134 40 276 c 0,2,3
 40 560 40 560 274 560 c 256,4,5
 508 560 508 560 508 276 c 0,6,7
 508 134 508 134 449 62 c 128,-1,8
 390 -10 390 -10 274 -10 c 256,9,0
 158 -10 158 -10 99 62 c 128,-1,1
408.5 95.5 m 128,-1,11
 452 154 452 154 452 276 c 256,12,13
 452 398 452 398 408.5 456 c 128,-1,14
 365 514 365 514 274 514 c 256,15,16
 183 514 183 514 139.5 456 c 128,-1,17
 96 398 96 398 96 276 c 256,18,19
 96 154 96 154 139.5 95.5 c 128,-1,20
 183 37 183 37 274 37 c 256,21,10
 365 37 365 37 408.5 95.5 c 128,-1,11
EndSplineSet
Substitution2: "Single Substitution lookup 20 subtable" ordmasculine
Substitution2: "'aalt' Access All Alternates lookup 0 subtable" ordmasculine
EndChar

StartChar: ohorn
Encoding: 417 417 337
Width: 548
GlyphClass: 2
Flags: W
AnchorPoint: "Anchor-10" 420 474 basechar 0
AnchorPoint: "Anchor-9" 274 550 basechar 0
AnchorPoint: "Anchor-8" 359 10 basechar 0
AnchorPoint: "Anchor-7" 274 0 basechar 0
LayerCount: 2
Fore
SplineSet
530.5 505 m 128,-1,1
 508 476 508 476 467 464 c 1,2,3
 508 394 508 394 508 276 c 0,4,5
 508 134 508 134 449 62 c 128,-1,6
 390 -10 390 -10 274 -10 c 256,7,8
 158 -10 158 -10 99 62 c 128,-1,9
 40 134 40 134 40 276 c 0,10,11
 40 560 40 560 274 560 c 0,12,13
 383 560 383 560 441 499 c 1,14,15
 467 505 467 505 483.5 523 c 128,-1,16
 500 541 500 541 500 568 c 0,17,18
 500 609 500 609 462 626 c 1,19,20
 464 638 464 638 473.5 645.5 c 128,-1,21
 483 653 483 653 495 653 c 0,22,23
 520 653 520 653 536.5 632 c 128,-1,24
 553 611 553 611 553 578 c 0,25,0
 553 534 553 534 530.5 505 c 128,-1,1
408.5 95.5 m 128,-1,27
 452 154 452 154 452 276 c 256,28,29
 452 398 452 398 408.5 456 c 128,-1,30
 365 514 365 514 274 514 c 256,31,32
 183 514 183 514 139.5 456 c 128,-1,33
 96 398 96 398 96 276 c 256,34,35
 96 154 96 154 139.5 95.5 c 128,-1,36
 183 37 183 37 274 37 c 256,37,26
 365 37 365 37 408.5 95.5 c 128,-1,27
EndSplineSet
EndChar

StartChar: oslash
Encoding: 248 248 345
Width: 548
GlyphClass: 2
Flags: W
AnchorPoint: "Anchor-10" 420 474 basechar 0
AnchorPoint: "Anchor-9" 274 550 basechar 0
AnchorPoint: "Anchor-8" 359 10 basechar 0
AnchorPoint: "Anchor-7" 274 0 basechar 0
LayerCount: 2
Fore
SplineSet
456 481 m 1,0,1
 508 410 508 410 508 276 c 0,2,3
 508 134 508 134 449 62 c 128,-1,4
 390 -10 390 -10 274 -10 c 0,5,6
 179 -10 179 -10 122 38 c 1,7,-1
 94 0 l 1,8,-1
 40 0 l 1,9,-1
 93 70 l 1,10,11
 40 141 40 141 40 276 c 0,12,13
 40 560 40 560 274 560 c 0,14,15
 368 560 368 560 426 513 c 1,16,-1
 454 550 l 1,17,-1
 508 550 l 1,18,-1
 456 481 l 1,0,1
127 115 m 1,20,-1
 395 472 l 1,21,22
 352 514 352 514 274 514 c 0,23,24
 183 514 183 514 139.5 456 c 128,-1,25
 96 398 96 398 96 276 c 0,26,19
 96 173 96 173 127 115 c 1,20,-1
422 435 m 1,28,-1
 154 79 l 1,29,30
 198 37 198 37 274 37 c 0,31,32
 365 37 365 37 408.5 95.5 c 128,-1,33
 452 154 452 154 452 276 c 0,34,27
 452 378 452 378 422 435 c 1,28,-1
EndSplineSet
EndChar

StartChar: oe
Encoding: 339 339 348
Width: 965
GlyphClass: 2
Flags: W
AnchorPoint: "Anchor-10" 420 474 basechar 0
AnchorPoint: "Anchor-9" 691 550 basechar 0
AnchorPoint: "Anchor-8" 796 10 basechar 0
AnchorPoint: "Anchor-7" 695 0 basechar 0
LayerCount: 2
Fore
SplineSet
923 268 m 1,1,-1
 511 268 l 1,2,3
 514 161 514 161 563 99.5 c 128,-1,4
 612 38 612 38 695 38 c 0,5,6
 751 38 751 38 789.5 59 c 128,-1,7
 828 80 828 80 857 127 c 0,8,9
 868 144 868 144 881 144 c 0,10,11
 892 144 892 144 914 130 c 1,12,13
 889 63 889 63 832 26.5 c 128,-1,14
 775 -10 775 -10 695 -10 c 0,15,16
 622 -10 622 -10 567.5 25 c 128,-1,17
 513 60 513 60 484 124 c 1,18,19
 433 -10 433 -10 274 -10 c 0,20,21
 158 -10 158 -10 99 62 c 128,-1,22
 40 134 40 134 40 276 c 0,23,24
 40 560 40 560 274 560 c 0,25,26
 433 560 433 560 484 428 c 1,27,28
 513 492 513 492 568 526 c 128,-1,29
 623 560 623 560 699 560 c 0,30,31
 806 560 806 560 865.5 493 c 128,-1,32
 925 426 925 426 925 307 c 0,33,0
 925 286 925 286 923 268 c 1,1,-1
408.5 95.5 m 128,-1,35
 452 154 452 154 452 276 c 256,36,37
 452 398 452 398 408.5 456 c 128,-1,38
 365 514 365 514 274 514 c 256,39,40
 183 514 183 514 139.5 456 c 128,-1,41
 96 398 96 398 96 276 c 256,42,43
 96 154 96 154 139.5 95.5 c 128,-1,44
 183 37 183 37 274 37 c 256,45,34
 365 37 365 37 408.5 95.5 c 128,-1,35
869 314 m 1,46,47
 869 411 869 411 825 461.5 c 128,-1,48
 781 512 781 512 696 512 c 0,49,50
 616 512 616 512 567.5 460 c 128,-1,51
 519 408 519 408 512 314 c 1,52,-1
 869 314 l 1,46,47
EndSplineSet
EndChar

StartChar: p
Encoding: 112 112 349
Width: 598
Flags: W
LayerCount: 2
Fore
SplineSet
498 487.5 m 128,-1,1
 558 415 558 415 558 276 c 0,2,3
 558 188 558 188 528 123.5 c 128,-1,4
 498 59 498 59 441.5 24.5 c 128,-1,5
 385 -10 385 -10 308 -10 c 0,6,7
 219 -10 219 -10 147 26 c 1,8,-1
 147 -220 l 1,9,-1
 92 -220 l 1,10,-1
 92 388 l 2,11,12
 92 461 92 461 89.5 494 c 128,-1,13
 87 527 87 527 80 541 c 1,14,15
 101 554 101 554 120 554 c 0,16,17
 147 554 147 554 147 495 c 2,18,-1
 147 489 l 1,19,20
 182 523 182 523 228 541.5 c 128,-1,21
 274 560 274 560 323 560 c 0,22,0
 438 560 438 560 498 487.5 c 128,-1,1
449.5 100 m 128,-1,24
 501 164 501 164 501 276 c 0,25,26
 501 393 501 393 456 453.5 c 128,-1,27
 411 514 411 514 323 514 c 0,28,29
 275 514 275 514 229 492 c 128,-1,30
 183 470 183 470 147 429 c 1,31,-1
 147 76 l 1,32,33
 181 57 181 57 222.5 46.5 c 128,-1,34
 264 36 264 36 308 36 c 0,35,23
 398 36 398 36 449.5 100 c 128,-1,24
EndSplineSet
EndChar

StartChar: thorn
Encoding: 254 254 350
Width: 609
Flags: W
LayerCount: 2
Fore
SplineSet
494 492.5 m 128,-1,1
 558 425 558 425 558 280 c 0,2,3
 558 188 558 188 526.5 122.5 c 128,-1,4
 495 57 495 57 438.5 22.5 c 128,-1,5
 382 -12 382 -12 308 -12 c 0,6,7
 218 -12 218 -12 146 24 c 1,8,-1
 146 -220 l 1,9,-1
 92 -220 l 1,10,-1
 92 791 l 1,11,-1
 146 791 l 1,12,-1
 146 490 l 1,13,14
 180 524 180 524 226 542 c 128,-1,15
 272 560 272 560 321 560 c 0,16,0
 430 560 430 560 494 492.5 c 128,-1,1
448 97.5 m 128,-1,18
 502 161 502 161 502 280 c 256,19,20
 502 399 502 399 454 456.5 c 128,-1,21
 406 514 406 514 321 514 c 0,22,23
 269 514 269 514 224 491 c 128,-1,24
 179 468 179 468 146 431 c 1,25,-1
 146 74 l 1,26,27
 180 55 180 55 222 44.5 c 128,-1,28
 264 34 264 34 308 34 c 0,29,17
 394 34 394 34 448 97.5 c 128,-1,18
EndSplineSet
EndChar

StartChar: q
Encoding: 113 113 351
Width: 608
Flags: W
LayerCount: 2
Fore
SplineSet
526 541 m 1,1,2
 518 521 518 521 512.5 479.5 c 128,-1,3
 507 438 507 438 507 393 c 2,4,-1
 507 -220 l 1,5,-1
 452 -220 l 1,6,-1
 452 37 l 1,7,8
 416 13 416 13 376 1.5 c 128,-1,9
 336 -10 336 -10 285 -10 c 0,10,11
 212 -10 212 -10 157.5 25 c 128,-1,12
 103 60 103 60 74 125 c 128,-1,13
 45 190 45 190 45 278 c 0,14,15
 45 364 45 364 74.5 428 c 128,-1,16
 104 492 104 492 158.5 526 c 128,-1,17
 213 560 213 560 286 560 c 0,18,19
 339 560 339 560 378.5 546 c 128,-1,20
 418 532 418 532 456 500 c 1,21,22
 464 554 464 554 489 554 c 0,23,0
 507 554 507 554 526 541 c 1,1,2
382 47.5 m 128,-1,25
 420 60 420 60 452 87 c 1,26,-1
 452 433 l 1,27,-1
 452 444 l 1,28,29
 387 515 387 515 288 515 c 0,30,31
 200 515 200 515 151 452.5 c 128,-1,32
 102 390 102 390 102 278 c 0,33,34
 102 160 102 160 151.5 97.5 c 128,-1,35
 201 35 201 35 294 35 c 0,36,24
 344 35 344 35 382 47.5 c 128,-1,25
EndSplineSet
EndChar

StartChar: r
Encoding: 114 114 352
Width: 400
GlyphClass: 2
Flags: W
AnchorPoint: "Anchor-10" 0 0 basechar 0
AnchorPoint: "Anchor-9" 200 550 basechar 0
AnchorPoint: "Anchor-8" 0 0 basechar 0
AnchorPoint: "Anchor-7" 119 0 basechar 0
LayerCount: 2
Fore
SplineSet
358.5 546.5 m 128,-1,1
 378 536 378 536 378 517 c 0,2,3
 378 500 378 500 367 492 c 1,4,5
 344 506 344 506 300 506 c 0,6,7
 254 506 254 506 217.5 480 c 128,-1,8
 181 454 181 454 160.5 408.5 c 128,-1,9
 140 363 140 363 140 305 c 2,10,-1
 140 0 l 1,11,-1
 85 0 l 1,12,-1
 85 550 l 1,13,-1
 140 550 l 1,14,-1
 140 447 l 1,15,16
 165 495 165 495 210 526 c 128,-1,17
 255 557 255 557 305 557 c 0,18,0
 339 557 339 557 358.5 546.5 c 128,-1,1
EndSplineSet
EndChar

StartChar: s
Encoding: 115 115 359
Width: 485
GlyphClass: 2
Flags: W
AnchorPoint: "Anchor-10" 0 0 basechar 0
AnchorPoint: "Anchor-9" 243 550 basechar 0
AnchorPoint: "Anchor-8" 0 0 basechar 0
AnchorPoint: "Anchor-7" 243 0 basechar 0
LayerCount: 2
Fore
SplineSet
145 5.5 m 128,-1,1
 98 21 98 21 69 46 c 128,-1,2
 40 71 40 71 40 98 c 0,3,4
 40 110 40 110 47.5 119 c 128,-1,5
 55 128 55 128 66 130 c 1,6,7
 96 83 96 83 137.5 59.5 c 128,-1,8
 179 36 179 36 247 36 c 0,9,10
 314 36 314 36 352 66 c 128,-1,11
 390 96 390 96 390 149 c 0,12,13
 390 183 390 183 369.5 204 c 128,-1,14
 349 225 349 225 318.5 236.5 c 128,-1,15
 288 248 288 248 236 261 c 0,16,17
 177 276 177 276 140.5 290 c 128,-1,18
 104 304 104 304 78.5 333.5 c 128,-1,19
 53 363 53 363 53 411 c 0,20,21
 53 461 53 461 80 494.5 c 128,-1,22
 107 528 107 528 149 544 c 128,-1,23
 191 560 191 560 238 560 c 0,24,25
 302 560 302 560 350.5 533.5 c 128,-1,26
 399 507 399 507 430 457 c 1,27,28
 419 446 419 446 411.5 441.5 c 128,-1,29
 404 437 404 437 396 437 c 0,30,31
 384 437 384 437 373 451 c 0,32,33
 347 483 347 483 315.5 499 c 128,-1,34
 284 515 284 515 237 515 c 0,35,36
 180 515 180 515 144 490 c 128,-1,37
 108 465 108 465 108 414 c 0,38,39
 108 382 108 382 128 361.5 c 128,-1,40
 148 341 148 341 177.5 330 c 128,-1,41
 207 319 207 319 257 307 c 0,42,43
 318 291 318 291 355.5 276 c 128,-1,44
 393 261 393 261 419 230.5 c 128,-1,45
 445 200 445 200 445 149 c 0,46,47
 445 76 445 76 390.5 33 c 128,-1,48
 336 -10 336 -10 243 -10 c 0,49,0
 192 -10 192 -10 145 5.5 c 128,-1,1
EndSplineSet
EndChar

StartChar: scedilla
Encoding: 351 351 362
Width: 485
GlyphClass: 2
Flags: W
AnchorPoint: "Anchor-10" 0 0 basechar 0
AnchorPoint: "Anchor-9" 0 0 basechar 0
AnchorPoint: "Anchor-8" 0 0 basechar 0
AnchorPoint: "Anchor-7" 243 -214 basechar 0
LayerCount: 2
Fore
SplineSet
396.5 38 m 128,-1,1
 348 -5 348 -5 264 -9 c 1,2,-1
 225 -58 l 2,3,4
 230 -57 230 -57 239 -57 c 0,5,6
 279 -57 279 -57 305 -77.5 c 128,-1,7
 331 -98 331 -98 331 -136 c 0,8,9
 331 -180 331 -180 296 -204.5 c 128,-1,10
 261 -229 261 -229 210 -229 c 0,11,12
 165 -229 165 -229 139.5 -219 c 128,-1,13
 114 -209 114 -209 114 -189 c 0,14,15
 114 -184 114 -184 117 -176 c 1,16,17
 161 -189 161 -189 205 -189 c 0,18,19
 279 -189 279 -189 279 -137 c 0,20,21
 279 -118 279 -118 264.5 -106.5 c 128,-1,22
 250 -95 250 -95 224 -95 c 0,23,24
 207 -95 207 -95 184 -101 c 1,25,-1
 166 -75 l 1,26,-1
 215 -9 l 1,27,28
 169 -5 169 -5 128.5 11 c 128,-1,29
 88 27 88 27 64 50 c 128,-1,30
 40 73 40 73 40 98 c 0,31,32
 40 110 40 110 47.5 119 c 128,-1,33
 55 128 55 128 66 130 c 1,34,35
 96 83 96 83 137.5 59.5 c 128,-1,36
 179 36 179 36 247 36 c 0,37,38
 314 36 314 36 352 66 c 128,-1,39
 390 96 390 96 390 149 c 0,40,41
 390 183 390 183 369.5 204 c 128,-1,42
 349 225 349 225 318.5 236.5 c 128,-1,43
 288 248 288 248 236 261 c 0,44,45
 177 276 177 276 140.5 290 c 128,-1,46
 104 304 104 304 78.5 333.5 c 128,-1,47
 53 363 53 363 53 411 c 0,48,49
 53 461 53 461 80 494.5 c 128,-1,50
 107 528 107 528 149 544 c 128,-1,51
 191 560 191 560 238 560 c 0,52,53
 302 560 302 560 350.5 533.5 c 128,-1,54
 399 507 399 507 430 457 c 1,55,56
 419 446 419 446 411.5 441.5 c 128,-1,57
 404 437 404 437 396 437 c 0,58,59
 384 437 384 437 373 451 c 0,60,61
 347 483 347 483 315.5 499 c 128,-1,62
 284 515 284 515 237 515 c 0,63,64
 180 515 180 515 144 490 c 128,-1,65
 108 465 108 465 108 414 c 0,66,67
 108 382 108 382 128 361.5 c 128,-1,68
 148 341 148 341 177.5 330 c 128,-1,69
 207 319 207 319 257 307 c 0,70,71
 318 291 318 291 355.5 276 c 128,-1,72
 393 261 393 261 419 230.5 c 128,-1,73
 445 200 445 200 445 149 c 0,74,0
 445 81 445 81 396.5 38 c 128,-1,1
EndSplineSet
Substitution2: "'locl' Localized Forms in Latin lookup 7 subtable" uni0219
Substitution2: "'locl' Localized Forms in Latin lookup 6 subtable" uni0219
Substitution2: "'aalt' Access All Alternates lookup 0 subtable" uni0219
EndChar

StartChar: germandbls
Encoding: 223 223 367
Width: 617
Flags: W
LayerCount: 2
Fore
SplineSet
517.5 306 m 128,-1,1
 553 261 553 261 553 199 c 0,2,3
 553 96 553 96 494.5 41 c 128,-1,4
 436 -14 436 -14 342 -14 c 0,5,6
 284 -14 284 -14 238.5 4 c 128,-1,7
 193 22 193 22 193 49 c 0,8,9
 193 59 193 59 198 66 c 128,-1,10
 203 73 203 73 211 76 c 1,11,12
 242 52 242 52 273.5 42 c 128,-1,13
 305 32 305 32 346 32 c 0,14,15
 419 32 419 32 460.5 73 c 128,-1,16
 502 114 502 114 502 191 c 0,17,18
 502 259 502 259 457.5 299 c 128,-1,19
 413 339 413 339 340 339 c 0,20,21
 330 339 330 339 312 337 c 2,22,-1
 287 336 l 2,23,24
 273 336 273 336 264 348.5 c 128,-1,25
 255 361 255 361 255 375 c 0,26,27
 255 384 255 384 262 384 c 2,28,-1
 331 384 l 2,29,30
 396 384 396 384 435 424 c 128,-1,31
 474 464 474 464 474 533 c 256,32,33
 474 602 474 602 430 644 c 128,-1,34
 386 686 386 686 311 686 c 0,35,36
 232 686 232 686 185 642.5 c 128,-1,37
 138 599 138 599 138 517 c 2,38,-1
 138 0 l 1,39,-1
 84 0 l 1,40,-1
 84 517 l 2,41,42
 84 585 84 585 114.5 633.5 c 128,-1,43
 145 682 145 682 197 706.5 c 128,-1,44
 249 731 249 731 313 731 c 0,45,46
 376 731 376 731 425 704.5 c 128,-1,47
 474 678 474 678 500.5 632.5 c 128,-1,48
 527 587 527 587 527 530 c 0,49,50
 527 467 527 467 499 426 c 128,-1,51
 471 385 471 385 423 365 c 1,52,0
 482 351 482 351 517.5 306 c 128,-1,1
EndSplineSet
EndChar

StartChar: t
Encoding: 116 116 368
Width: 374
GlyphClass: 2
Flags: W
AnchorPoint: "Anchor-10" 328 630 basechar 0
AnchorPoint: "Anchor-9" 150 660 basechar 0
AnchorPoint: "Anchor-8" 0 0 basechar 0
AnchorPoint: "Anchor-7" 249 0 basechar 0
LayerCount: 2
Fore
SplineSet
356 31 m 0,1,2
 356 14 356 14 342 6 c 0,3,4
 311 -10 311 -10 254 -10 c 0,5,6
 192 -10 192 -10 154 27.5 c 128,-1,7
 116 65 116 65 116 126 c 2,8,-1
 116 505 l 1,9,-1
 12 505 l 1,10,-1
 12 550 l 1,11,-1
 116 550 l 1,12,-1
 116 700 l 1,13,-1
 171 700 l 1,14,-1
 171 550 l 1,15,-1
 328 550 l 1,16,-1
 328 505 l 1,17,-1
 171 505 l 1,18,-1
 171 137 l 2,19,20
 171 88 171 88 193 63 c 128,-1,21
 215 38 215 38 256 38 c 0,22,23
 302 38 302 38 342 57 c 1,24,0
 356 49 356 49 356 31 c 0,1,2
EndSplineSet
EndChar

StartChar: tbar
Encoding: 359 359 369
Width: 397
GlyphClass: 2
Flags: W
AnchorPoint: "Anchor-10" 328 630 basechar 0
AnchorPoint: "Anchor-9" 150 660 basechar 0
AnchorPoint: "Anchor-8" 0 0 basechar 0
AnchorPoint: "Anchor-7" 249 0 basechar 0
LayerCount: 2
Fore
SplineSet
356 31 m 0,1,2
 356 14 356 14 342 6 c 0,3,4
 311 -10 311 -10 254 -10 c 0,5,6
 192 -10 192 -10 154 27.5 c 128,-1,7
 116 65 116 65 116 126 c 2,8,-1
 116 286 l 1,9,-1
 12 286 l 1,10,-1
 12 330 l 1,11,-1
 116 330 l 1,12,-1
 116 505 l 1,13,-1
 12 505 l 1,14,-1
 12 550 l 1,15,-1
 116 550 l 1,16,-1
 116 700 l 1,17,-1
 171 700 l 1,18,-1
 171 550 l 1,19,-1
 328 550 l 1,20,-1
 328 505 l 1,21,-1
 171 505 l 1,22,-1
 171 330 l 1,23,-1
 328 330 l 1,24,-1
 328 286 l 1,25,-1
 171 286 l 1,26,-1
 171 137 l 2,27,28
 171 88 171 88 193 63 c 128,-1,29
 215 38 215 38 256 38 c 0,30,31
 302 38 302 38 342 57 c 1,32,0
 356 49 356 49 356 31 c 0,1,2
EndSplineSet
EndChar

StartChar: uni0163
Encoding: 355 355 371
Width: 374
GlyphClass: 2
Flags: W
AnchorPoint: "Anchor-10" 328 630 basechar 0
AnchorPoint: "Anchor-9" 0 0 basechar 0
AnchorPoint: "Anchor-8" 0 0 basechar 0
AnchorPoint: "Anchor-7" 249 -214 basechar 0
LayerCount: 2
Fore
SplineSet
356 31 m 0,1,2
 356 14 356 14 342 6 c 0,3,4
 316 -7 316 -7 270 -10 c 1,5,-1
 231 -58 l 2,6,7
 236 -57 236 -57 245 -57 c 0,8,9
 285 -57 285 -57 311 -77.5 c 128,-1,10
 337 -98 337 -98 337 -136 c 0,11,12
 337 -180 337 -180 302 -204.5 c 128,-1,13
 267 -229 267 -229 216 -229 c 0,14,15
 171 -229 171 -229 145.5 -219 c 128,-1,16
 120 -209 120 -209 120 -189 c 0,17,18
 120 -184 120 -184 123 -176 c 1,19,20
 167 -189 167 -189 211 -189 c 0,21,22
 285 -189 285 -189 285 -137 c 0,23,24
 285 -118 285 -118 270.5 -106.5 c 128,-1,25
 256 -95 256 -95 230 -95 c 0,26,27
 212 -95 212 -95 190 -101 c 1,28,-1
 172 -75 l 1,29,-1
 223 -7 l 1,30,31
 173 2 173 2 144.5 37.5 c 128,-1,32
 116 73 116 73 116 126 c 2,33,-1
 116 505 l 1,34,-1
 12 505 l 1,35,-1
 12 550 l 1,36,-1
 116 550 l 1,37,-1
 116 700 l 1,38,-1
 171 700 l 1,39,-1
 171 550 l 1,40,-1
 328 550 l 1,41,-1
 328 505 l 1,42,-1
 171 505 l 1,43,-1
 171 137 l 2,44,45
 171 88 171 88 193 63 c 128,-1,46
 215 38 215 38 256 38 c 0,47,48
 302 38 302 38 342 57 c 1,49,0
 356 49 356 49 356 31 c 0,1,2
EndSplineSet
Substitution2: "'locl' Localized Forms in Latin lookup 7 subtable" uni021B
Substitution2: "'locl' Localized Forms in Latin lookup 6 subtable" uni021B
Substitution2: "'aalt' Access All Alternates lookup 0 subtable" uni021B
EndChar

StartChar: u
Encoding: 117 117 376
Width: 610
GlyphClass: 2
Flags: W
AnchorPoint: "Anchor-10" 507 523 basechar 0
AnchorPoint: "Anchor-9" 304 550 basechar 0
AnchorPoint: "Anchor-8" 532 7 basechar 0
AnchorPoint: "Anchor-7" 304 0 basechar 0
LayerCount: 2
Fore
SplineSet
532 7 m 1,1,2
 516 -5 516 -5 497 -5 c 0,3,4
 479 -5 479 -5 471.5 14.5 c 128,-1,5
 464 34 464 34 462 82 c 1,6,7
 432 40 432 40 379 15 c 128,-1,8
 326 -10 326 -10 267 -10 c 0,9,10
 179 -10 179 -10 134.5 38 c 128,-1,11
 90 86 90 86 90 180 c 2,12,-1
 90 550 l 1,13,-1
 145 550 l 1,14,-1
 145 182 l 2,15,16
 145 110 145 110 178.5 72.5 c 128,-1,17
 212 35 212 35 276 35 c 0,18,19
 330 35 330 35 379.5 64.5 c 128,-1,20
 429 94 429 94 462 145 c 1,21,-1
 462 550 l 1,22,-1
 517 550 l 1,23,-1
 517 113 l 2,24,0
 517 55 517 55 532 7 c 1,1,2
EndSplineSet
EndChar

StartChar: uhorn
Encoding: 432 432 389
Width: 609
GlyphClass: 2
Flags: W
AnchorPoint: "Anchor-10" 507 523 basechar 0
AnchorPoint: "Anchor-9" 304 550 basechar 0
AnchorPoint: "Anchor-8" 532 7 basechar 0
AnchorPoint: "Anchor-7" 304 0 basechar 0
LayerCount: 2
Fore
SplineSet
607 543.5 m 128,-1,1
 574 512 574 512 517 506 c 1,2,-1
 517 113 l 2,3,4
 517 55 517 55 532 7 c 1,5,6
 516 -5 516 -5 497 -5 c 0,7,8
 479 -5 479 -5 471.5 14.5 c 128,-1,9
 464 34 464 34 462 82 c 1,10,11
 432 40 432 40 379 15 c 128,-1,12
 326 -10 326 -10 267 -10 c 0,13,14
 179 -10 179 -10 134.5 38 c 128,-1,15
 90 86 90 86 90 180 c 2,16,-1
 90 550 l 1,17,-1
 145 550 l 1,18,-1
 145 182 l 2,19,20
 145 110 145 110 178.5 72.5 c 128,-1,21
 212 35 212 35 276 35 c 0,22,23
 330 35 330 35 379.5 64.5 c 128,-1,24
 429 94 429 94 462 145 c 1,25,-1
 462 550 l 1,26,-1
 517 550 l 1,27,-1
 517 546 l 1,28,29
 546 549 546 549 566.5 568 c 128,-1,30
 587 587 587 587 587 617 c 0,31,32
 587 658 587 658 549 675 c 1,33,34
 551 687 551 687 560.5 694.5 c 128,-1,35
 570 702 570 702 582 702 c 0,36,37
 607 702 607 702 623.5 681 c 128,-1,38
 640 660 640 660 640 627 c 0,39,0
 640 575 640 575 607 543.5 c 128,-1,1
EndSplineSet
EndChar

StartChar: uogonek
Encoding: 371 371 397
Width: 609
GlyphClass: 2
Flags: W
AnchorPoint: "Anchor-10" 507 523 basechar 0
AnchorPoint: "Anchor-9" 304 550 basechar 0
AnchorPoint: "Anchor-8" 532 7 basechar 0
AnchorPoint: "Anchor-7" 304 0 basechar 0
LayerCount: 2
Fore
SplineSet
571 -172 m 0,1,2
 571 -185 571 -185 553 -194 c 128,-1,3
 535 -203 535 -203 502 -203 c 0,4,5
 458 -203 458 -203 430.5 -178.5 c 128,-1,6
 403 -154 403 -154 403 -115 c 256,7,8
 403 -76 403 -76 423 -48 c 128,-1,9
 443 -20 443 -20 480 1 c 1,10,11
 471 9 471 9 467 28.5 c 128,-1,12
 463 48 463 48 462 82 c 1,13,14
 432 40 432 40 379 15 c 128,-1,15
 326 -10 326 -10 267 -10 c 0,16,17
 179 -10 179 -10 134.5 38 c 128,-1,18
 90 86 90 86 90 180 c 2,19,-1
 90 550 l 1,20,-1
 145 550 l 1,21,-1
 145 182 l 2,22,23
 145 110 145 110 178.5 72.5 c 128,-1,24
 212 35 212 35 276 35 c 0,25,26
 330 35 330 35 379.5 64.5 c 128,-1,27
 429 94 429 94 462 145 c 1,28,-1
 462 550 l 1,29,-1
 517 550 l 1,30,-1
 517 113 l 2,31,32
 517 55 517 55 532 7 c 0,33,34
 529 4 529 4 525 3 c 0,35,36
 454 -46 454 -46 454 -110 c 0,37,38
 454 -136 454 -136 469.5 -150 c 128,-1,39
 485 -164 485 -164 512 -164 c 0,40,41
 545 -164 545 -164 565 -153 c 1,42,0
 571 -162 571 -162 571 -172 c 0,1,2
EndSplineSet
EndChar

StartChar: v
Encoding: 118 118 400
Width: 483
Flags: W
LayerCount: 2
Fore
SplineSet
467 550 m 1,0,1
 454 400 454 400 405 265 c 128,-1,2
 356 130 356 130 268 0 c 1,3,-1
 216 0 l 1,4,5
 129 123 129 123 80.5 257.5 c 128,-1,6
 32 392 32 392 16 550 c 1,7,-1
 71 550 l 1,8,9
 85 407 85 407 126 288.5 c 128,-1,10
 167 170 167 170 241 59 c 1,11,12
 317 173 317 173 358 292 c 128,-1,13
 399 411 399 411 412 550 c 1,14,-1
 467 550 l 1,0,1
EndSplineSet
EndChar

StartChar: w
Encoding: 119 119 401
Width: 760
GlyphClass: 2
Flags: W
AnchorPoint: "Anchor-10" 0 0 basechar 0
AnchorPoint: "Anchor-9" 380 550 basechar 0
AnchorPoint: "Anchor-8" 0 0 basechar 0
AnchorPoint: "Anchor-7" 380 0 basechar 0
LayerCount: 2
Fore
SplineSet
724 550 m 1,0,1
 683 257 683 257 563 0 c 1,2,-1
 516 0 l 1,3,4
 463 114 463 114 429.5 216 c 128,-1,5
 396 318 396 318 378 423 c 1,6,7
 360 317 360 317 327.5 215 c 128,-1,8
 295 113 295 113 244 0 c 1,9,-1
 195 0 l 1,10,11
 135 125 135 125 95.5 259 c 128,-1,12
 56 393 56 393 33 550 c 1,13,-1
 90 550 l 1,14,15
 106 419 106 419 138 303 c 128,-1,16
 170 187 170 187 222 75 c 1,17,18
 316 281 316 281 353 550 c 1,19,-1
 405 550 l 1,20,21
 446 274 446 274 541 73 c 1,22,23
 643 307 643 307 665 550 c 1,24,-1
 724 550 l 1,0,1
EndSplineSet
EndChar

StartChar: x
Encoding: 120 120 406
Width: 484
Flags: W
LayerCount: 2
Fore
SplineSet
411 142 m 128,-1,1
 459 77 459 77 468 0 c 1,2,-1
 410 0 l 1,3,4
 402 65 402 65 359.5 122.5 c 128,-1,5
 317 180 317 180 242 253 c 1,6,7
 167 180 167 180 124.5 122.5 c 128,-1,8
 82 65 82 65 74 0 c 1,9,-1
 16 0 l 1,10,11
 25 77 25 77 73 142 c 128,-1,12
 121 207 121 207 205 288 c 1,13,14
 125 364 125 364 80.5 423.5 c 128,-1,15
 36 483 36 483 28 550 c 1,16,-1
 86 550 l 1,17,18
 93 494 93 494 132 442.5 c 128,-1,19
 171 391 171 391 242 323 c 1,20,21
 313 391 313 391 352 442.5 c 128,-1,22
 391 494 391 494 398 550 c 1,23,-1
 456 550 l 1,24,25
 448 483 448 483 403.5 423.5 c 128,-1,26
 359 364 359 364 279 288 c 1,27,0
 363 207 363 207 411 142 c 128,-1,1
EndSplineSet
EndChar

StartChar: y
Encoding: 121 121 407
Width: 485
GlyphClass: 2
Flags: W
AnchorPoint: "Anchor-10" 0 0 basechar 0
AnchorPoint: "Anchor-9" 243 550 basechar 0
AnchorPoint: "Anchor-8" 0 0 basechar 0
AnchorPoint: "Anchor-7" 348 0 basechar 0
LayerCount: 2
Fore
SplineSet
474 550 m 1,0,-1
 256 -42 l 2,1,2
 227 -121 227 -121 185 -157 c 128,-1,3
 143 -193 143 -193 80 -193 c 0,4,5
 44 -193 44 -193 22.5 -183 c 128,-1,6
 1 -173 1 -173 1 -156 c 256,7,8
 1 -139 1 -139 17 -130 c 1,9,10
 27 -137 27 -137 46 -141.5 c 128,-1,11
 65 -146 65 -146 86 -146 c 0,12,13
 129 -146 129 -146 162 -108 c 128,-1,14
 195 -70 195 -70 220 9 c 1,15,-1
 14 550 l 1,16,-1
 72 550 l 1,17,-1
 248 90 l 1,18,-1
 416 550 l 1,19,-1
 474 550 l 1,0,-1
EndSplineSet
EndChar

StartChar: z
Encoding: 122 122 416
Width: 500
GlyphClass: 2
Flags: W
AnchorPoint: "Anchor-10" 0 0 basechar 0
AnchorPoint: "Anchor-9" 250 550 basechar 0
AnchorPoint: "Anchor-8" 0 0 basechar 0
AnchorPoint: "Anchor-7" 250 0 basechar 0
LayerCount: 2
Fore
SplineSet
470 48 m 1,0,-1
 470 0 l 1,1,-1
 30 0 l 1,2,-1
 30 38 l 1,3,-1
 389 503 l 1,4,-1
 56 503 l 1,5,-1
 56 550 l 1,6,-1
 462 550 l 1,7,-1
 462 514 l 1,8,-1
 105 48 l 1,9,-1
 470 48 l 1,0,-1
EndSplineSet
EndChar

StartChar: ordfeminine
Encoding: 170 170 423
Width: 380
Flags: W
LayerCount: 2
Fore
SplineSet
334.5 403.5 m 128,-1,1
 336 388 336 388 340 370 c 1,2,3
 330 360 330 360 313 360 c 0,4,5
 287 360 287 360 287 416 c 2,6,-1
 287 420 l 1,7,8
 236 359 236 359 157 359 c 0,9,10
 110 359 110 359 78 384.5 c 128,-1,11
 46 410 46 410 46 451 c 0,12,13
 46 525 46 525 111 549.5 c 128,-1,14
 176 574 176 574 287 575 c 1,15,-1
 287 584 l 2,16,17
 287 629 287 629 263 651.5 c 128,-1,18
 239 674 239 674 195 674 c 0,19,20
 165 674 165 674 146.5 664 c 128,-1,21
 128 654 128 654 106 636 c 0,22,23
 96 628 96 628 91 625 c 128,-1,24
 86 622 86 622 79 622 c 0,25,26
 69 622 69 622 62.5 628.5 c 128,-1,27
 56 635 56 635 54 645 c 1,28,29
 106 712 106 712 201 712 c 0,30,31
 253 712 253 712 293 679 c 128,-1,32
 333 646 333 646 333 583 c 2,33,-1
 333 446 l 2,34,0
 333 419 333 419 334.5 403.5 c 128,-1,1
236 420.5 m 128,-1,36
 271 443 271 443 287 472 c 1,37,-1
 287 538 l 1,38,39
 196 537 196 537 144.5 521 c 128,-1,40
 93 505 93 505 93 453 c 0,41,42
 93 398 93 398 164 398 c 0,43,35
 201 398 201 398 236 420.5 c 128,-1,36
EndSplineSet
EndChar

StartChar: ordmasculine
Encoding: 186 186 424
Width: 380
Flags: W
LayerCount: 2
Fore
SplineSet
76 405.5 m 128,-1,1
 36 454 36 454 36 533 c 0,2,3
 36 613 36 613 76 661.5 c 128,-1,4
 116 710 116 710 191 710 c 0,5,6
 265 710 265 710 304.5 661.5 c 128,-1,7
 344 613 344 613 344 533 c 0,8,9
 344 454 344 454 304.5 405.5 c 128,-1,10
 265 357 265 357 191 357 c 0,11,0
 116 357 116 357 76 405.5 c 128,-1,1
270 430 m 128,-1,13
 298 464 298 464 298 533 c 256,14,15
 298 602 298 602 270 637 c 128,-1,16
 242 672 242 672 191 672 c 0,17,18
 139 672 139 672 110.5 637 c 128,-1,19
 82 602 82 602 82 533 c 256,20,21
 82 464 82 464 110.5 430 c 128,-1,22
 139 396 139 396 191 396 c 0,23,12
 242 396 242 396 270 430 c 128,-1,13
EndSplineSet
EndChar

StartChar: uni207F
Encoding: 8319 8319 425
Width: 380
Flags: W
LayerCount: 2
Fore
SplineSet
337.5 393.5 m 128,-1,1
 340 380 340 380 345 369 c 1,2,3
 327 360 327 360 310 360 c 0,4,5
 290 360 290 360 290 423 c 2,6,-1
 290 597 l 2,7,8
 290 678 290 678 215 678 c 0,9,10
 182 678 182 678 149.5 663 c 128,-1,11
 117 648 117 648 89 620 c 1,12,-1
 89 363 l 1,13,-1
 43 363 l 1,14,-1
 43 608 l 2,15,16
 43 680 43 680 35 699 c 1,17,18
 41 703 41 703 52.5 706 c 128,-1,19
 64 709 64 709 70 709 c 0,20,21
 78 709 78 709 83.5 700.5 c 128,-1,22
 89 692 89 692 89 676 c 2,23,-1
 89 666 l 1,24,25
 116 688 116 688 149.5 702 c 128,-1,26
 183 716 183 716 219 716 c 0,27,28
 272 716 272 716 303.5 687.5 c 128,-1,29
 335 659 335 659 335 602 c 2,30,-1
 335 436 l 2,31,0
 335 407 335 407 337.5 393.5 c 128,-1,1
EndSplineSet
EndChar

StartChar: uni0394
Encoding: 916 916 426
Width: 546
Flags: W
LayerCount: 2
Fore
SplineSet
546 25 m 1,0,-1
 546 0 l 1,1,-1
 0 0 l 1,2,-1
 0 25 l 1,3,-1
 248 700 l 1,4,-1
 299 700 l 1,5,-1
 546 25 l 1,0,-1
485 48 m 1,6,-1
 273 634 l 1,7,-1
 62 48 l 1,8,-1
 485 48 l 1,6,-1
EndSplineSet
EndChar

StartChar: uni03A9
Encoding: 937 937 427
Width: 676
Flags: W
LayerCount: 2
Fore
SplineSet
50 48 m 1,0,-1
 230 48 l 1,1,-1
 230 147 l 1,2,3
 178 161 178 161 137 200 c 128,-1,4
 96 239 96 239 73 294.5 c 128,-1,5
 50 350 50 350 50 413 c 0,6,7
 50 502 50 502 86 569.5 c 128,-1,8
 122 637 122 637 187 673.5 c 128,-1,9
 252 710 252 710 338 710 c 256,10,11
 424 710 424 710 489.5 673.5 c 128,-1,12
 555 637 555 637 590.5 570 c 128,-1,13
 626 503 626 503 626 413 c 0,14,15
 626 349 626 349 603 293 c 128,-1,16
 580 237 580 237 539 198.5 c 128,-1,17
 498 160 498 160 446 147 c 1,18,-1
 446 48 l 1,19,-1
 626 48 l 1,20,-1
 626 0 l 1,21,-1
 396 0 l 1,22,-1
 396 177 l 1,23,24
 446 188 446 188 486.5 222.5 c 128,-1,25
 527 257 527 257 549.5 307 c 128,-1,26
 572 357 572 357 572 413 c 0,27,28
 572 527 572 527 508.5 594 c 128,-1,29
 445 661 445 661 338 661 c 0,30,31
 230 661 230 661 167.5 594.5 c 128,-1,32
 105 528 105 528 105 413 c 0,33,34
 105 357 105 357 128 307 c 128,-1,35
 151 257 151 257 191 222.5 c 128,-1,36
 231 188 231 188 281 177 c 1,37,-1
 281 0 l 1,38,-1
 50 0 l 1,39,-1
 50 48 l 1,0,-1
EndSplineSet
EndChar

StartChar: uni03BC
Encoding: 956 956 428
Width: 611
GlyphClass: 2
Flags: W
AnchorPoint: "Anchor-6" 518 523 basechar 0
AnchorPoint: "Anchor-5" 305 550 basechar 0
AnchorPoint: "Anchor-4" 533 7 basechar 0
AnchorPoint: "Anchor-3" 305 0 basechar 0
LayerCount: 2
Fore
SplineSet
533 7 m 1,1,2
 517 -5 517 -5 497 -5 c 0,3,4
 480 -5 480 -5 471.5 13 c 128,-1,5
 463 31 463 31 462 78 c 1,6,7
 397 -12 397 -12 290 -12 c 0,8,9
 243 -12 243 -12 205 2.5 c 128,-1,10
 167 17 167 17 145 47 c 1,11,-1
 145 -220 l 1,12,-1
 90 -220 l 1,13,-1
 91 550 l 1,14,-1
 145 550 l 1,15,-1
 145 180 l 2,16,17
 145 109 145 109 185.5 71 c 128,-1,18
 226 33 226 33 291 33 c 0,19,20
 345 33 345 33 388.5 63 c 128,-1,21
 432 93 432 93 462 145 c 1,22,-1
 462 550 l 1,23,-1
 518 550 l 1,24,-1
 518 113 l 2,25,0
 518 41 518 41 533 7 c 1,1,2
EndSplineSet
EndChar

StartChar: pi
Encoding: 960 960 429
Width: 640
Flags: W
LayerCount: 2
Fore
SplineSet
449 19 m 128,-1,1
 422 48 422 48 422 99 c 2,2,-1
 422 502 l 1,3,-1
 186 502 l 1,4,-1
 186 0 l 1,5,-1
 134 0 l 1,6,-1
 134 502 l 1,7,-1
 29 502 l 1,8,-1
 29 550 l 1,9,-1
 597 550 l 1,10,-1
 597 502 l 1,11,-1
 475 502 l 1,12,-1
 475 103 l 2,13,14
 475 67 475 67 491 51.5 c 128,-1,15
 507 36 507 36 538 36 c 0,16,17
 558 36 558 36 579.5 41.5 c 128,-1,18
 601 47 601 47 613 54 c 1,19,-1
 613 13 l 1,20,21
 574 -10 574 -10 527 -10 c 0,22,0
 476 -10 476 -10 449 19 c 128,-1,1
EndSplineSet
EndChar

StartChar: uni0E01
Encoding: 3585 3585 430
Width: 605
GlyphClass: 2
Flags: W
AnchorPoint: "Anchor-12" 525 550 basechar 0
AnchorPoint: "Anchor-11" 525 0 basechar 0
LayerCount: 2
Fore
SplineSet
413.5 563 m 128,-1,1
 465 540 465 540 495 494.5 c 128,-1,2
 525 449 525 449 525 383 c 2,3,-1
 525 0 l 1,4,-1
 472 0 l 1,5,-1
 472 383 l 2,6,7
 472 459 472 459 424.5 500.5 c 128,-1,8
 377 542 377 542 298 542 c 0,9,10
 245 542 245 542 201.5 526 c 128,-1,11
 158 510 158 510 132.5 486.5 c 128,-1,12
 107 463 107 463 107 443 c 256,13,14
 107 423 107 423 133 406.5 c 128,-1,15
 159 390 159 390 183 390 c 0,16,17
 196 390 196 390 218 398 c 0,18,19
 236 404 236 404 243 404 c 256,20,21
 250 404 250 404 259.5 391 c 128,-1,22
 269 378 269 378 269 369 c 0,23,24
 269 361 269 361 262 361 c 0,25,26
 194 361 194 361 170.5 326.5 c 128,-1,27
 147 292 147 292 147 222 c 2,28,-1
 147 0 l 1,29,-1
 93 0 l 1,30,-1
 93 222 l 2,31,32
 93 272 93 272 104.5 304.5 c 128,-1,33
 116 337 116 337 140 357 c 1,34,35
 110 367 110 367 82.5 390.5 c 128,-1,36
 55 414 55 414 55 440 c 0,37,38
 55 474 55 474 86.5 508 c 128,-1,39
 118 542 118 542 173.5 564 c 128,-1,40
 229 586 229 586 298 586 c 0,41,0
 362 586 362 586 413.5 563 c 128,-1,1
EndSplineSet
EndChar

StartChar: uni0E02
Encoding: 3586 3586 431
Width: 565
GlyphClass: 2
Flags: W
AnchorPoint: "Anchor-12" 485 550 basechar 0
AnchorPoint: "Anchor-11" 485 0 basechar 0
LayerCount: 2
Fore
SplineSet
183.5 31 m 128,-1,1
 139 71 139 71 139 151 c 2,2,-1
 139 258 l 2,3,4
 139 276 139 276 152 285 c 0,5,6
 195 315 195 315 219.5 336 c 128,-1,7
 244 357 244 357 260 384.5 c 128,-1,8
 276 412 276 412 276 447 c 0,9,10
 276 493 276 493 250 516.5 c 128,-1,11
 224 540 224 540 183 540 c 256,12,13
 142 540 142 540 115.5 516.5 c 128,-1,14
 89 493 89 493 89 453 c 0,15,16
 89 425 89 425 103.5 410 c 128,-1,17
 118 395 118 395 141 395 c 256,18,19
 164 395 164 395 176.5 408 c 128,-1,20
 189 421 189 421 189 443 c 0,21,22
 189 464 189 464 177 475.5 c 128,-1,23
 165 487 165 487 145 487 c 0,24,25
 132 487 132 487 122 485 c 1,26,27
 123 495 123 495 133.5 503 c 128,-1,28
 144 511 144 511 161 511 c 0,29,30
 188 511 188 511 208.5 493 c 128,-1,31
 229 475 229 475 229 440 c 0,32,33
 229 403 229 403 203 379.5 c 128,-1,34
 177 356 177 356 141 356 c 0,35,36
 104 356 104 356 76 382.5 c 128,-1,37
 48 409 48 409 48 453 c 0,38,39
 48 511 48 511 87 545 c 128,-1,40
 126 579 126 579 184 579 c 0,41,42
 244 579 244 579 283.5 545.5 c 128,-1,43
 323 512 323 512 323 450 c 0,44,45
 323 406 323 406 306 372 c 128,-1,46
 289 338 289 338 263 313 c 128,-1,47
 237 288 237 288 193 255 c 1,48,-1
 193 152 l 2,49,50
 193 92 193 92 221.5 64 c 128,-1,51
 250 36 250 36 310 36 c 0,52,53
 378 36 378 36 405 63 c 128,-1,54
 432 90 432 90 432 159 c 2,55,-1
 432 576 l 1,56,-1
 485 576 l 1,57,-1
 485 161 l 2,58,59
 485 70 485 70 442.5 30.5 c 128,-1,60
 400 -9 400 -9 309 -9 c 0,61,0
 228 -9 228 -9 183.5 31 c 128,-1,1
EndSplineSet
EndChar

StartChar: uni0E03
Encoding: 3587 3587 432
Width: 596
GlyphClass: 2
Flags: W
AnchorPoint: "Anchor-12" 516 550 basechar 0
AnchorPoint: "Anchor-11" 516 0 basechar 0
LayerCount: 2
Fore
SplineSet
203.5 31 m 128,-1,1
 155 71 155 71 155 159 c 2,2,-1
 155 224 l 2,3,4
 155 265 155 265 175 294.5 c 128,-1,5
 195 324 195 324 235 363 c 0,6,7
 271 397 271 397 289 423 c 128,-1,8
 307 449 307 449 307 482 c 0,9,10
 307 510 307 510 294.5 524 c 128,-1,11
 282 538 282 538 259 538 c 0,12,13
 221 538 221 538 196 494 c 1,14,15
 183 518 183 518 169 529 c 128,-1,16
 155 540 155 540 133 540 c 0,17,18
 108 540 108 540 93 525.5 c 128,-1,19
 78 511 78 511 78 485 c 0,20,21
 78 457 78 457 93 441.5 c 128,-1,22
 108 426 108 426 133 426 c 0,23,24
 157 426 157 426 171.5 439 c 128,-1,25
 186 452 186 452 190 473 c 1,26,27
 208 469 208 469 208 451 c 0,28,29
 208 425 208 425 185.5 406.5 c 128,-1,30
 163 388 163 388 132 388 c 0,31,32
 91 388 91 388 64 415 c 128,-1,33
 37 442 37 442 37 484 c 0,34,35
 37 528 37 528 64.5 554 c 128,-1,36
 92 580 92 580 128 580 c 0,37,38
 174 580 174 580 197 543 c 1,39,40
 219 580 219 580 267 580 c 0,41,42
 306 580 306 580 331.5 555.5 c 128,-1,43
 357 531 357 531 357 482 c 0,44,45
 357 439 357 439 337 408 c 128,-1,46
 317 377 317 377 278 337 c 0,47,48
 243 303 243 303 226 278 c 128,-1,49
 209 253 209 253 209 220 c 2,50,-1
 209 159 l 2,51,52
 209 96 209 96 241.5 66.5 c 128,-1,53
 274 37 274 37 337 37 c 0,54,55
 405 37 405 37 434 66 c 128,-1,56
 463 95 463 95 463 159 c 2,57,-1
 463 576 l 1,58,-1
 516 576 l 1,59,-1
 516 159 l 2,60,61
 516 77 516 77 471 34 c 128,-1,62
 426 -9 426 -9 336 -9 c 0,63,0
 252 -9 252 -9 203.5 31 c 128,-1,1
EndSplineSet
EndChar

StartChar: uni0E04
Encoding: 3588 3588 433
Width: 624
GlyphClass: 2
Flags: W
AnchorPoint: "Anchor-12" 544 550 basechar 0
AnchorPoint: "Anchor-11" 544 0 basechar 0
LayerCount: 2
Fore
SplineSet
484.5 528 m 128,-1,1
 544 470 544 470 544 361 c 2,2,-1
 544 0 l 1,3,-1
 491 0 l 1,4,-1
 491 356 l 2,5,6
 491 452 491 452 446 497 c 128,-1,7
 401 542 401 542 314 542 c 0,8,9
 226 542 226 542 176 496 c 128,-1,10
 126 450 126 450 126 356 c 0,11,12
 126 289 126 289 149 240 c 1,13,14
 175 305 175 305 217 344.5 c 128,-1,15
 259 384 259 384 319 384 c 0,16,17
 362 384 362 384 390.5 357.5 c 128,-1,18
 419 331 419 331 419 289 c 256,19,20
 419 247 419 247 392.5 221.5 c 128,-1,21
 366 196 366 196 324 196 c 0,22,23
 293 196 293 196 272 212.5 c 128,-1,24
 251 229 251 229 251 256 c 0,25,26
 251 277 251 277 267 283 c 1,27,28
 275 258 275 258 288 246 c 128,-1,29
 301 234 301 234 324 234 c 0,30,31
 350 234 350 234 363.5 248.5 c 128,-1,32
 377 263 377 263 377 289 c 256,33,34
 377 315 377 315 361.5 329 c 128,-1,35
 346 343 346 343 317 343 c 0,36,37
 271 343 271 343 234 298 c 128,-1,38
 197 253 197 253 175.5 174.5 c 128,-1,39
 154 96 154 96 152 0 c 1,40,-1
 113 0 l 2,41,42
 98 0 98 0 98 20 c 0,43,44
 98 64 98 64 117 142 c 0,45,46
 123 172 123 172 123 173 c 0,47,48
 123 178 123 178 112 202 c 0,49,50
 94 237 94 237 83 272 c 128,-1,51
 72 307 72 307 72 356 c 0,52,53
 72 429 72 429 103 480.5 c 128,-1,54
 134 532 134 532 189 559 c 128,-1,55
 244 586 244 586 314 586 c 0,56,0
 425 586 425 586 484.5 528 c 128,-1,1
EndSplineSet
EndChar

StartChar: uni0E05
Encoding: 3589 3589 434
Width: 640
GlyphClass: 2
Flags: W
AnchorPoint: "Anchor-12" 560 550 basechar 0
AnchorPoint: "Anchor-11" 560 0 basechar 0
LayerCount: 2
Fore
SplineSet
526.5 512 m 128,-1,1
 560 461 560 461 560 371 c 2,2,-1
 560 0 l 1,3,-1
 507 0 l 1,4,-1
 507 371 l 2,5,6
 507 449 507 449 486 486.5 c 128,-1,7
 465 524 465 524 415 538 c 1,8,9
 397 524 397 524 353 496 c 2,10,-1
 326 479 l 1,11,12
 312 487 312 487 305 492 c 0,13,14
 252 524 252 524 234 538 c 1,15,16
 185 520 185 520 155.5 475.5 c 128,-1,17
 126 431 126 431 126 356 c 0,18,19
 126 289 126 289 149 240 c 1,20,21
 174 304 174 304 218 344 c 128,-1,22
 262 384 262 384 323 384 c 0,23,24
 366 384 366 384 394.5 357.5 c 128,-1,25
 423 331 423 331 423 289 c 256,26,27
 423 247 423 247 396 221.5 c 128,-1,28
 369 196 369 196 327 196 c 0,29,30
 296 196 296 196 275 212.5 c 128,-1,31
 254 229 254 229 254 256 c 0,32,33
 254 265 254 265 258.5 272.5 c 128,-1,34
 263 280 263 280 271 283 c 1,35,36
 278 258 278 258 291.5 246 c 128,-1,37
 305 234 305 234 328 234 c 0,38,39
 353 234 353 234 366.5 248.5 c 128,-1,40
 380 263 380 263 380 289 c 256,41,42
 380 315 380 315 365 329 c 128,-1,43
 350 343 350 343 321 343 c 0,44,45
 274 343 274 343 236.5 298 c 128,-1,46
 199 253 199 253 176.5 174.5 c 128,-1,47
 154 96 154 96 152 0 c 1,48,-1
 113 0 l 2,49,50
 98 0 98 0 98 20 c 0,51,52
 98 64 98 64 117 142 c 0,53,54
 123 172 123 172 123 173 c 0,55,56
 123 178 123 178 112 202 c 0,57,58
 94 237 94 237 83 272 c 128,-1,59
 72 307 72 307 72 356 c 0,60,61
 72 446 72 446 113 502 c 128,-1,62
 154 558 154 558 234 586 c 1,63,-1
 254 574 l 2,64,65
 261 569 261 569 285.5 554 c 128,-1,66
 310 539 310 539 326 525 c 1,67,68
 341 538 341 538 381 564 c 0,69,70
 411 583 411 583 415 586 c 1,71,0
 493 563 493 563 526.5 512 c 128,-1,1
EndSplineSet
EndChar

StartChar: uni0E06
Encoding: 3590 3590 435
Width: 651
GlyphClass: 2
Flags: W
AnchorPoint: "Anchor-12" 552 550 basechar 0
AnchorPoint: "Anchor-11" 552 0 basechar 0
LayerCount: 2
Fore
SplineSet
556 44 m 2,1,-1
 558 15 l 2,2,3
 558 0 558 0 544 0 c 2,4,-1
 502 0 l 1,5,6
 471 90 471 90 403.5 144.5 c 128,-1,7
 336 199 336 199 254 210 c 1,8,-1
 255 158 l 2,9,10
 256 142 256 142 256 113 c 0,11,12
 256 58 256 58 234 24.5 c 128,-1,13
 212 -9 212 -9 161 -9 c 0,14,15
 118 -9 118 -9 91 21.5 c 128,-1,16
 64 52 64 52 64 112 c 0,17,18
 64 175 64 175 102.5 214 c 128,-1,19
 141 253 141 253 204 258 c 1,20,21
 210 287 210 287 224.5 311 c 128,-1,22
 239 335 239 335 263 365 c 0,23,24
 289 399 289 399 301.5 424 c 128,-1,25
 314 449 314 449 314 482 c 0,26,27
 314 537 314 537 267 537 c 0,28,29
 228 537 228 537 203 494 c 1,30,31
 192 517 192 517 177 528.5 c 128,-1,32
 162 540 162 540 140 540 c 0,33,34
 115 540 115 540 100.5 525 c 128,-1,35
 86 510 86 510 86 485 c 0,36,37
 86 458 86 458 101 443 c 128,-1,38
 116 428 116 428 140 428 c 0,39,40
 165 428 165 428 179.5 442 c 128,-1,41
 194 456 194 456 197 477 c 1,42,43
 216 476 216 476 216 454 c 0,44,45
 216 428 216 428 193.5 409 c 128,-1,46
 171 390 171 390 139 390 c 0,47,48
 98 390 98 390 71 416.5 c 128,-1,49
 44 443 44 443 44 484 c 0,50,51
 44 528 44 528 71 554 c 128,-1,52
 98 580 98 580 135 580 c 0,53,54
 185 580 185 580 204 543 c 1,55,56
 223 579 223 579 275 579 c 0,57,58
 314 579 314 579 339.5 555 c 128,-1,59
 365 531 365 531 365 482 c 0,60,61
 365 438 365 438 349.5 406.5 c 128,-1,62
 334 375 334 375 305 337 c 0,63,64
 285 312 285 312 274 294 c 128,-1,65
 263 276 263 276 258 255 c 1,66,67
 334 246 334 246 399 204 c 128,-1,68
 464 162 464 162 499 105 c 1,69,-1
 499 576 l 1,70,-1
 552 576 l 1,71,-1
 552 111 l 2,72,0
 552 80 552 80 556 44 c 2,1,-1
194 55 m 128,-1,74
 202 75 202 75 202 122 c 0,75,76
 202 145 202 145 201 160 c 2,77,-1
 200 212 l 1,78,79
 113 206 113 206 113 115 c 0,80,81
 113 75 113 75 125.5 55 c 128,-1,82
 138 35 138 35 161 35 c 0,83,73
 186 35 186 35 194 55 c 128,-1,74
EndSplineSet
EndChar

StartChar: uni0E07
Encoding: 3591 3591 436
Width: 520
GlyphClass: 2
Flags: W
AnchorPoint: "Anchor-12" 450 550 basechar 0
AnchorPoint: "Anchor-11" 397 0 basechar 0
LayerCount: 2
Fore
SplineSet
210 5 m 128,-1,1
 174 14 174 14 172 25 c 0,2,3
 148 145 148 145 116.5 228.5 c 128,-1,4
 85 312 85 312 40 374 c 1,5,6
 47 383 47 383 57.5 389 c 128,-1,7
 68 395 68 395 78 395 c 0,8,9
 87 395 87 395 94 389.5 c 128,-1,10
 101 384 101 384 110 371 c 0,11,12
 176 264 176 264 217 55 c 0,13,14
 218 47 218 47 237 42 c 128,-1,15
 256 37 256 37 285 37 c 0,16,17
 350 37 350 37 353 56 c 0,18,19
 373 177 373 177 385 283 c 128,-1,20
 397 389 397 389 397 452 c 0,21,22
 397 499 397 499 381 519.5 c 128,-1,23
 365 540 365 540 334 540 c 0,24,25
 310 540 310 540 295.5 527.5 c 128,-1,26
 281 515 281 515 281 493 c 0,27,28
 281 470 281 470 294 457 c 128,-1,29
 307 444 307 444 330 444 c 0,30,31
 354 444 354 444 370 455 c 1,32,33
 373 449 373 449 373 444 c 0,34,35
 373 429 373 429 359 418 c 128,-1,36
 345 407 345 407 321 407 c 0,37,38
 285 407 285 407 261.5 430 c 128,-1,39
 238 453 238 453 238 493 c 256,40,41
 238 533 238 533 265 557.5 c 128,-1,42
 292 582 292 582 336 582 c 0,43,44
 391 582 391 582 420.5 549 c 128,-1,45
 450 516 450 516 450 455 c 0,46,47
 450 313 450 313 397 26 c 0,48,49
 395 14 395 14 362 5 c 128,-1,50
 329 -4 329 -4 288 -4 c 0,51,0
 246 -4 246 -4 210 5 c 128,-1,1
EndSplineSet
EndChar

StartChar: uni0E08
Encoding: 3592 3592 437
Width: 588
GlyphClass: 2
Flags: W
AnchorPoint: "Anchor-12" 509 550 basechar 0
AnchorPoint: "Anchor-11" 466 1 basechar 0
LayerCount: 2
Fore
SplineSet
296 -1 m 128,-1,1
 269 7 269 7 268 18 c 0,2,3
 257 177 257 177 246 244 c 0,4,5
 240 279 240 279 225 295 c 128,-1,6
 210 311 210 311 184 311 c 0,7,8
 159 311 159 311 145 298 c 128,-1,9
 131 285 131 285 131 261 c 0,10,11
 131 238 131 238 145.5 223.5 c 128,-1,12
 160 209 160 209 183 209 c 0,13,14
 200 209 200 209 218 216 c 1,15,16
 220 212 220 212 220 205 c 0,17,18
 219 192 219 192 206 182.5 c 128,-1,19
 193 173 193 173 172 173 c 0,20,21
 134 173 134 173 110.5 197 c 128,-1,22
 87 221 87 221 87 261 c 256,23,24
 87 301 87 301 114 326.5 c 128,-1,25
 141 352 141 352 184 352 c 0,26,27
 232 352 232 352 259 325.5 c 128,-1,28
 286 299 286 299 294 254 c 0,29,30
 303 199 303 199 317 43 c 0,31,32
 317 39 317 39 331 35.5 c 128,-1,33
 345 32 345 32 363 32 c 0,34,35
 382 32 382 32 396 35.5 c 128,-1,36
 410 39 410 39 411 44 c 0,37,38
 417 99 417 99 434 204 c 0,39,40
 445 266 445 266 450 304.5 c 128,-1,41
 455 343 455 343 455 382 c 0,42,43
 455 460 455 460 413 500.5 c 128,-1,44
 371 541 371 541 289 541 c 0,45,46
 228 541 228 541 183 519.5 c 128,-1,47
 138 498 138 498 100 457 c 0,48,49
 92 449 92 449 83 449 c 0,50,51
 75 449 75 449 65 458.5 c 128,-1,52
 55 468 55 468 48 480 c 1,53,54
 142 586 142 586 289 586 c 0,55,56
 391 586 391 586 450 533.5 c 128,-1,57
 509 481 509 481 509 382 c 0,58,59
 509 344 509 344 503.5 308 c 128,-1,60
 498 272 498 272 487 214 c 0,61,62
 464 101 464 101 457 18 c 0,63,64
 456 6 456 6 428.5 -1.5 c 128,-1,65
 401 -9 401 -9 363 -9 c 0,66,0
 323 -9 323 -9 296 -1 c 128,-1,1
EndSplineSet
EndChar

StartChar: uni0E09
Encoding: 3593 3593 438
Width: 630
GlyphClass: 2
Flags: W
AnchorPoint: "Anchor-12" 549 550 basechar 0
AnchorPoint: "Anchor-11" 549 0 basechar 0
LayerCount: 2
Fore
SplineSet
570.5 158.5 m 128,-1,1
 590 131 590 131 590 96 c 0,2,3
 590 50 590 50 559.5 23 c 128,-1,4
 529 -4 529 -4 488 -4 c 256,5,6
 447 -4 447 -4 417.5 22.5 c 128,-1,7
 388 49 388 49 388 93 c 0,8,9
 388 120 388 120 397.5 139.5 c 128,-1,10
 407 159 407 159 425 178 c 1,11,-1
 420 178 l 2,12,13
 378 178 378 178 341.5 151.5 c 128,-1,14
 305 125 305 125 279 84 c 128,-1,15
 253 43 253 43 240 0 c 1,16,-1
 210 0 l 2,17,18
 201 0 201 0 197.5 3.5 c 128,-1,19
 194 7 194 7 194 15 c 2,20,-1
 194 116 l 2,21,22
 194 125 194 125 197 194 c 0,23,24
 200 227 200 227 200 261 c 0,25,26
 200 290 200 290 185.5 305 c 128,-1,27
 171 320 171 320 146 320 c 0,28,29
 123 320 123 320 108 305.5 c 128,-1,30
 93 291 93 291 93 269 c 0,31,32
 93 246 93 246 107.5 232 c 128,-1,33
 122 218 122 218 146 218 c 0,34,35
 168 218 168 218 181 228 c 1,36,37
 185 224 185 224 185 216 c 0,38,39
 185 203 185 203 171.5 192.5 c 128,-1,40
 158 182 158 182 135 182 c 0,41,42
 100 182 100 182 75.5 205.5 c 128,-1,43
 51 229 51 229 51 269 c 0,44,45
 51 308 51 308 79.5 335 c 128,-1,46
 108 362 108 362 149 362 c 0,47,48
 195 362 195 362 224 335 c 128,-1,49
 253 308 253 308 253 261 c 0,50,51
 253 241 253 241 251 195 c 0,52,53
 248 159 248 159 248 120 c 2,54,-1
 248 119 l 1,55,56
 280 165 280 165 326 192 c 128,-1,57
 372 219 372 219 423 219 c 0,58,59
 445 219 445 219 466 216 c 1,60,61
 481 231 481 231 488.5 245.5 c 128,-1,62
 496 260 496 260 496 279 c 2,63,-1
 496 381 l 2,64,65
 496 457 496 457 448.5 499.5 c 128,-1,66
 401 542 401 542 315 542 c 0,67,68
 249 542 249 542 199 517.5 c 128,-1,69
 149 493 149 493 106 450 c 0,70,71
 101 445 101 445 95 445 c 0,72,73
 86 445 86 445 75.5 454 c 128,-1,74
 65 463 65 463 57 476 c 1,75,76
 103 526 103 526 168 556 c 128,-1,77
 233 586 233 586 315 586 c 0,78,79
 422 586 422 586 485.5 533 c 128,-1,80
 549 480 549 480 549 381 c 2,81,-1
 549 269 l 2,82,83
 549 232 549 232 516 201 c 1,84,0
 551 186 551 186 570.5 158.5 c 128,-1,1
529.5 54.5 m 128,-1,86
 544 70 544 70 544 100 c 0,87,88
 544 125 544 125 527.5 143.5 c 128,-1,89
 511 162 511 162 481 170 c 1,90,91
 458 151 458 151 446 134.5 c 128,-1,92
 434 118 434 118 434 96 c 0,93,94
 434 70 434 70 448 54.5 c 128,-1,95
 462 39 462 39 488 39 c 0,96,85
 515 39 515 39 529.5 54.5 c 128,-1,86
EndSplineSet
EndChar

StartChar: uni0E0A
Encoding: 3594 3594 439
Width: 615
GlyphClass: 2
Flags: W
AnchorPoint: "Anchor-12" 514 550 basechar 0
AnchorPoint: "Anchor-11" 514 0 basechar 0
LayerCount: 2
Fore
SplineSet
514 339 m 2,1,-1
 514 161 l 2,2,3
 514 -9 514 -9 324 -9 c 0,4,5
 240 -9 240 -9 188.5 33 c 128,-1,6
 137 75 137 75 137 151 c 2,7,-1
 137 249 l 2,8,9
 137 267 137 267 150 275 c 0,10,11
 206 313 206 313 240 354.5 c 128,-1,12
 274 396 274 396 274 451 c 0,13,14
 274 493 274 493 249.5 516 c 128,-1,15
 225 539 225 539 178 539 c 0,16,17
 139 539 139 539 117 519 c 128,-1,18
 95 499 95 499 95 468 c 0,19,20
 95 444 95 444 108 430 c 128,-1,21
 121 416 121 416 144 416 c 0,22,23
 168 416 168 416 179.5 429.5 c 128,-1,24
 191 443 191 443 191 466 c 0,25,26
 191 493 191 493 171 509 c 1,27,28
 177 512 177 512 187 512 c 0,29,30
 204 512 204 512 216 498 c 128,-1,31
 228 484 228 484 228 461 c 0,32,33
 228 426 228 426 205 401.5 c 128,-1,34
 182 377 182 377 142 377 c 0,35,36
 104 377 104 377 78 402 c 128,-1,37
 52 427 52 427 52 468 c 0,38,39
 52 515 52 515 87.5 547 c 128,-1,40
 123 579 123 579 183 579 c 0,41,42
 244 579 244 579 282.5 545 c 128,-1,43
 321 511 321 511 321 454 c 0,44,45
 321 384 321 384 284 336 c 128,-1,46
 247 288 247 288 191 247 c 1,47,-1
 191 152 l 2,48,49
 191 35 191 35 325 35 c 0,50,51
 398 35 398 35 429.5 64 c 128,-1,52
 461 93 461 93 461 159 c 2,53,-1
 461 339 l 2,54,55
 461 384 461 384 446.5 405.5 c 128,-1,56
 432 427 432 427 409 427 c 0,57,58
 402 427 402 427 390 425 c 128,-1,59
 378 423 378 423 372 423 c 256,60,61
 366 423 366 423 359.5 435 c 128,-1,62
 353 447 353 447 353 454 c 256,63,64
 353 461 353 461 359 462 c 0,65,66
 471 474 471 474 497 611 c 1,67,68
 517 611 517 611 530 602 c 128,-1,69
 543 593 543 593 543 578 c 0,70,71
 543 546 543 546 515.5 507.5 c 128,-1,72
 488 469 488 469 450 451 c 1,73,0
 514 424 514 424 514 339 c 2,1,-1
EndSplineSet
EndChar

StartChar: uni0E0B
Encoding: 3595 3595 440
Width: 615
GlyphClass: 2
Flags: W
AnchorPoint: "Anchor-12" 521 550 basechar 0
AnchorPoint: "Anchor-11" 521 0 basechar 0
LayerCount: 2
Fore
SplineSet
521 343 m 2,1,-1
 521 159 l 2,2,3
 521 78 521 78 470 34.5 c 128,-1,4
 419 -9 419 -9 328 -9 c 0,5,6
 244 -9 244 -9 194.5 31 c 128,-1,7
 145 71 145 71 145 159 c 2,8,-1
 145 224 l 2,9,10
 145 265 145 265 165 294.5 c 128,-1,11
 185 324 185 324 225 363 c 0,12,13
 261 398 261 398 278.5 423.5 c 128,-1,14
 296 449 296 449 296 482 c 0,15,16
 296 509 296 509 283.5 523.5 c 128,-1,17
 271 538 271 538 249 538 c 0,18,19
 211 538 211 538 186 493 c 1,20,21
 173 517 173 517 159 528.5 c 128,-1,22
 145 540 145 540 123 540 c 0,23,24
 98 540 98 540 83.5 525 c 128,-1,25
 69 510 69 510 69 484 c 256,26,27
 69 458 69 458 84 443 c 128,-1,28
 99 428 99 428 123 428 c 256,29,30
 147 428 147 428 161 441 c 128,-1,31
 175 454 175 454 180 474 c 1,32,33
 198 471 198 471 198 451 c 0,34,35
 198 425 198 425 176.5 407 c 128,-1,36
 155 389 155 389 122 389 c 0,37,38
 81 389 81 389 54 415.5 c 128,-1,39
 27 442 27 442 27 483 c 0,40,41
 27 528 27 528 54 554 c 128,-1,42
 81 580 81 580 118 580 c 0,43,44
 163 580 163 580 187 543 c 1,45,46
 210 580 210 580 257 580 c 0,47,48
 295 580 295 580 321 555.5 c 128,-1,49
 347 531 347 531 347 482 c 0,50,51
 347 439 347 439 327 408.5 c 128,-1,52
 307 378 307 378 267 338 c 0,53,54
 231 301 231 301 214.5 277 c 128,-1,55
 198 253 198 253 198 220 c 2,56,-1
 198 159 l 2,57,58
 198 93 198 93 231 64.5 c 128,-1,59
 264 36 264 36 329 36 c 0,60,61
 402 36 402 36 434.5 65.5 c 128,-1,62
 467 95 467 95 467 159 c 2,63,-1
 467 343 l 2,64,65
 467 430 467 430 415 430 c 0,66,67
 408 430 408 430 396.5 428 c 128,-1,68
 385 426 385 426 379 426 c 256,69,70
 373 426 373 426 367 437.5 c 128,-1,71
 361 449 361 449 361 456 c 0,72,73
 361 464 361 464 367 464 c 0,74,75
 426 471 426 471 458.5 507.5 c 128,-1,76
 491 544 491 544 503 611 c 1,77,78
 524 610 524 610 536.5 602 c 128,-1,79
 549 594 549 594 549 579 c 0,80,81
 549 548 549 548 522 510 c 128,-1,82
 495 472 495 472 458 455 c 1,83,0
 521 431 521 431 521 343 c 2,1,-1
EndSplineSet
EndChar

StartChar: uni0E0C
Encoding: 3596 3596 441
Width: 919
GlyphClass: 2
Flags: W
AnchorPoint: "Anchor-12" 822 550 basechar 0
AnchorPoint: "Anchor-11" 822 0 basechar 0
LayerCount: 2
Fore
SplineSet
824 58 m 128,-1,1
 826 27 826 27 826 19 c 0,2,3
 826 0 826 0 812 0 c 2,4,-1
 772 0 l 1,5,6
 734 91 734 91 672.5 139 c 128,-1,7
 611 187 611 187 535 195 c 1,8,-1
 536 101 l 2,9,10
 535 49 535 49 514 20 c 128,-1,11
 493 -9 493 -9 452 -9 c 0,12,13
 410 -9 410 -9 384 21 c 128,-1,14
 358 51 358 51 358 103 c 0,15,16
 358 163 358 163 393 196.5 c 128,-1,17
 428 230 428 230 482 237 c 1,18,-1
 482 383 l 2,19,20
 482 462 482 462 432 502.5 c 128,-1,21
 382 543 382 543 298 543 c 0,22,23
 245 543 245 543 201.5 527 c 128,-1,24
 158 511 158 511 133 487 c 128,-1,25
 108 463 108 463 108 443 c 256,26,27
 108 423 108 423 134.5 406.5 c 128,-1,28
 161 390 161 390 185 390 c 0,29,30
 196 390 196 390 218 396 c 0,31,32
 233 401 233 401 244 401 c 0,33,34
 251 401 251 401 259.5 387 c 128,-1,35
 268 373 268 373 268 363 c 0,36,37
 268 357 268 357 263 357 c 0,38,39
 195 357 195 357 170.5 323.5 c 128,-1,40
 146 290 146 290 146 221 c 2,41,-1
 146 114 l 2,42,43
 146 75 146 75 163 54.5 c 128,-1,44
 180 34 180 34 209 34 c 0,45,46
 235 34 235 34 249 48 c 128,-1,47
 263 62 263 62 263 87 c 0,48,49
 263 110 263 110 249.5 123.5 c 128,-1,50
 236 137 236 137 213 137 c 0,51,52
 194 137 194 137 170 129 c 1,53,54
 167 135 167 135 167 140 c 0,55,56
 167 154 167 154 180.5 164 c 128,-1,57
 194 174 194 174 217 174 c 0,58,59
 254 174 254 174 279.5 151.5 c 128,-1,60
 305 129 305 129 305 87 c 256,61,62
 305 45 305 45 277.5 19 c 128,-1,63
 250 -7 250 -7 206 -7 c 0,64,65
 153 -7 153 -7 122.5 26 c 128,-1,66
 92 59 92 59 92 113 c 2,67,-1
 92 221 l 2,68,69
 92 270 92 270 103 302.5 c 128,-1,70
 114 335 114 335 138 356 c 1,71,72
 109 367 109 367 82 391 c 128,-1,73
 55 415 55 415 55 440 c 0,74,75
 55 472 55 472 86 506 c 128,-1,76
 117 540 117 540 172.5 563 c 128,-1,77
 228 586 228 586 298 586 c 0,78,79
 400 586 400 586 467.5 535 c 128,-1,80
 535 484 535 484 535 383 c 2,81,-1
 535 238 l 1,82,83
 604 232 604 232 664.5 199.5 c 128,-1,84
 725 167 725 167 769 103 c 1,85,-1
 769 576 l 1,86,-1
 822 576 l 1,87,-1
 822 131 l 2,88,0
 822 89 822 89 824 58 c 128,-1,1
476.5 51 m 128,-1,90
 484 67 484 67 484 102 c 2,91,-1
 482 194 l 1,92,93
 407 184 407 184 407 106 c 0,94,95
 407 70 407 70 418.5 52.5 c 128,-1,96
 430 35 430 35 451 35 c 0,97,89
 469 35 469 35 476.5 51 c 128,-1,90
EndSplineSet
EndChar

StartChar: uni0E240E45
Encoding: 65537 -1 442
Width: 935
Flags: W
LayerCount: 2
Fore
SplineSet
482 383 m 2,0,1
 482 462 482 462 432 502.5 c 128,-1,2
 382 543 382 543 298 543 c 0,3,4
 245 543 245 543 201.5 527 c 128,-1,5
 158 511 158 511 133 487 c 128,-1,6
 108 463 108 463 108 443 c 256,7,8
 108 423 108 423 134.5 406.5 c 128,-1,9
 161 390 161 390 185 390 c 0,10,11
 196 390 196 390 218 396 c 0,12,13
 233 401 233 401 244 401 c 0,14,15
 251 401 251 401 259.5 387 c 128,-1,16
 268 373 268 373 268 363 c 0,17,18
 268 357 268 357 263 357 c 0,19,20
 195 357 195 357 170.5 324 c 128,-1,21
 146 291 146 291 146 221 c 2,22,-1
 146 114 l 2,23,24
 146 75 146 75 163 54.5 c 128,-1,25
 180 34 180 34 209 34 c 0,26,27
 235 34 235 34 249 48 c 128,-1,28
 263 62 263 62 263 87 c 0,29,30
 263 110 263 110 249.5 123.5 c 128,-1,31
 236 137 236 137 213 137 c 0,32,33
 194 137 194 137 170 129 c 1,34,35
 167 135 167 135 167 140 c 0,36,37
 167 154 167 154 180.5 164 c 128,-1,38
 194 174 194 174 217 174 c 0,39,40
 254 174 254 174 279.5 152 c 128,-1,41
 305 130 305 130 305 87 c 0,42,43
 305 45 305 45 277.5 19 c 128,-1,44
 250 -7 250 -7 206 -7 c 0,45,46
 153 -7 153 -7 122.5 26 c 128,-1,47
 92 59 92 59 92 113 c 2,48,-1
 92 221 l 2,49,50
 92 271 92 271 103.5 303.5 c 128,-1,51
 115 336 115 336 139 357 c 1,52,53
 109 367 109 367 82 391 c 128,-1,54
 55 415 55 415 55 440 c 0,55,56
 55 472 55 472 86 506 c 128,-1,57
 117 540 117 540 172.5 563 c 128,-1,58
 228 586 228 586 298 586 c 0,59,60
 355 586 355 586 403.5 569.5 c 128,-1,61
 452 553 452 553 485 520 c 1,62,63
 518 549 518 549 564 567.5 c 128,-1,64
 610 586 610 586 663 586 c 0,65,66
 749 586 749 586 802 538.5 c 128,-1,67
 855 491 855 491 855 405 c 2,68,-1
 855 -218 l 1,69,-1
 802 -218 l 1,70,-1
 802 402 l 2,71,72
 802 471 802 471 765.5 506.5 c 128,-1,73
 729 542 729 542 664 542 c 0,74,75
 577 542 577 542 513 481 c 1,76,77
 535 440 535 440 535 383 c 2,78,-1
 535 -220 l 1,79,-1
 482 -220 l 1,80,-1
 482 383 l 2,0,1
EndSplineSet
Ligature2: "'liga' Standard Ligatures lookup 13 subtable" uni0E24 uni0E45
EndChar

StartChar: uni0E260E45
Encoding: 65538 -1 443
Width: 950
Flags: W
LayerCount: 2
Fore
SplineSet
497 366 m 2,0,1
 497 466 497 466 448.5 504.5 c 128,-1,2
 400 543 400 543 314 543 c 0,3,4
 261 543 261 543 216.5 529 c 128,-1,5
 172 515 172 515 146 494 c 128,-1,6
 120 473 120 473 120 453 c 0,7,8
 120 436 120 436 136 421.5 c 128,-1,9
 152 407 152 407 172 397.5 c 128,-1,10
 192 388 192 388 200 388 c 0,11,12
 209 388 209 388 228 395 c 0,13,14
 250 403 250 403 260 403 c 0,15,16
 267 403 267 403 273.5 392.5 c 128,-1,17
 280 382 280 382 282 371 c 128,-1,18
 284 360 284 360 279 360 c 0,19,20
 232 360 232 360 208.5 338 c 128,-1,21
 185 316 185 316 185 268 c 0,22,23
 185 236 185 236 190 207 c 128,-1,24
 195 178 195 178 196 173 c 0,25,26
 206 119 206 119 206 89 c 0,27,28
 206 45 206 45 179.5 18.5 c 128,-1,29
 153 -8 153 -8 107 -8 c 0,30,31
 67 -8 67 -8 41.5 17 c 128,-1,32
 16 42 16 42 16 80 c 0,33,34
 16 117 16 117 39 139 c 128,-1,35
 62 161 62 161 90 161 c 0,36,37
 107 161 107 161 117.5 152.5 c 128,-1,38
 128 144 128 144 128 129 c 1,39,-1
 109 129 l 2,40,41
 84 129 84 129 70.5 116 c 128,-1,42
 57 103 57 103 57 80 c 0,43,44
 57 59 57 59 70.5 45.5 c 128,-1,45
 84 32 84 32 107 32 c 0,46,47
 131 32 131 32 144.5 47.5 c 128,-1,48
 158 63 158 63 158 90 c 0,49,50
 158 118 158 118 152 146.5 c 128,-1,51
 146 175 146 175 145 180 c 0,52,53
 138 209 138 209 134.5 229 c 128,-1,54
 131 249 131 249 131 270 c 0,55,56
 131 325 131 325 163 355 c 1,57,58
 126 367 126 367 95.5 394.5 c 128,-1,59
 65 422 65 422 65 450 c 0,60,61
 65 480 65 480 97.5 512 c 128,-1,62
 130 544 130 544 187 565 c 128,-1,63
 244 586 244 586 314 586 c 0,64,65
 440 586 440 586 499 520 c 1,66,67
 533 549 533 549 579 567.5 c 128,-1,68
 625 586 625 586 678 586 c 0,69,70
 764 586 764 586 817 538.5 c 128,-1,71
 870 491 870 491 870 405 c 2,72,-1
 870 -218 l 1,73,-1
 817 -218 l 1,74,-1
 817 402 l 2,75,76
 817 471 817 471 780.5 506.5 c 128,-1,77
 744 542 744 542 679 542 c 0,78,79
 591 542 591 542 526 480 c 1,80,81
 550 432 550 432 550 366 c 2,82,-1
 550 -220 l 1,83,-1
 497 -220 l 1,84,-1
 497 366 l 2,0,1
EndSplineSet
Ligature2: "'liga' Standard Ligatures lookup 13 subtable" uni0E26 uni0E45
EndChar

StartChar: uni0E0D
Encoding: 3597 3597 444
Width: 940
GlyphClass: 2
Flags: W
AnchorPoint: "Anchor-12" 860 550 basechar 0
AnchorPoint: "Anchor-11" 855 -228 basechar 0
LayerCount: 2
Fore
SplineSet
514 32 m 128,-1,1
 467 73 467 73 467 165 c 2,2,-1
 467 383 l 2,3,4
 467 463 467 463 421 503 c 128,-1,5
 375 543 375 543 291 543 c 0,6,7
 238 543 238 543 196 527 c 128,-1,8
 154 511 154 511 131 487.5 c 128,-1,9
 108 464 108 464 108 443 c 0,10,11
 108 423 108 423 137 406 c 128,-1,12
 166 389 166 389 190 389 c 0,13,14
 206 389 206 389 225 396 c 0,15,16
 229 397 229 397 236.5 399 c 128,-1,17
 244 401 244 401 250 401 c 0,18,19
 257 401 257 401 265.5 388 c 128,-1,20
 274 375 274 375 274 366 c 0,21,22
 274 358 274 358 266 358 c 0,23,24
 199 358 199 358 172.5 323.5 c 128,-1,25
 146 289 146 289 146 221 c 2,26,-1
 146 114 l 2,27,28
 146 75 146 75 163 54.5 c 128,-1,29
 180 34 180 34 209 34 c 0,30,31
 235 34 235 34 249 48 c 128,-1,32
 263 62 263 62 263 87 c 0,33,34
 263 110 263 110 249.5 123.5 c 128,-1,35
 236 137 236 137 213 137 c 0,36,37
 194 137 194 137 170 129 c 1,38,39
 167 135 167 135 167 140 c 0,40,41
 167 154 167 154 180.5 164 c 128,-1,42
 194 174 194 174 217 174 c 0,43,44
 254 174 254 174 279.5 151.5 c 128,-1,45
 305 129 305 129 305 87 c 256,46,47
 305 45 305 45 277.5 19 c 128,-1,48
 250 -7 250 -7 206 -7 c 0,49,50
 153 -7 153 -7 122.5 26 c 128,-1,51
 92 59 92 59 92 113 c 2,52,-1
 92 221 l 2,53,54
 92 270 92 270 105 302.5 c 128,-1,55
 118 335 118 335 144 357 c 1,56,57
 113 367 113 367 84 391 c 128,-1,58
 55 415 55 415 55 440 c 0,59,60
 55 472 55 472 84 506.5 c 128,-1,61
 113 541 113 541 166.5 563.5 c 128,-1,62
 220 586 220 586 291 586 c 0,63,64
 393 586 393 586 457 535.5 c 128,-1,65
 521 485 521 485 521 383 c 2,66,-1
 521 167 l 2,67,68
 521 96 521 96 553 67 c 128,-1,69
 585 38 585 38 660 38 c 0,70,71
 740 38 740 38 773.5 66.5 c 128,-1,72
 807 95 807 95 807 165 c 2,73,-1
 807 576 l 1,74,-1
 860 576 l 1,75,-1
 860 165 l 2,76,77
 860 72 860 72 811.5 31.5 c 128,-1,78
 763 -9 763 -9 660 -9 c 0,79,0
 561 -9 561 -9 514 32 c 128,-1,1
523.5 -201.5 m 128,-1,81
 482 -175 482 -175 482 -127 c 0,82,83
 482 -90 482 -90 505.5 -68.5 c 128,-1,84
 529 -47 529 -47 562 -47 c 0,85,86
 593 -47 593 -47 613 -66.5 c 128,-1,87
 633 -86 633 -86 633 -113 c 0,88,89
 633 -134 633 -134 622 -147 c 128,-1,90
 611 -160 611 -160 597 -160 c 0,91,92
 593 -160 593 -160 585 -158 c 1,93,94
 596 -143 596 -143 596 -123 c 0,95,96
 596 -106 596 -106 587 -95.5 c 128,-1,97
 578 -85 578 -85 561 -85 c 256,98,99
 544 -85 544 -85 534 -95.5 c 128,-1,100
 524 -106 524 -106 524 -124 c 0,101,102
 524 -152 524 -152 551 -168.5 c 128,-1,103
 578 -185 578 -185 630 -185 c 0,104,105
 692 -185 692 -185 725 -162.5 c 128,-1,106
 758 -140 758 -140 776 -91 c 0,107,108
 786 -68 786 -68 803 -68 c 0,109,110
 815 -68 815 -68 837 -78 c 1,111,112
 822 -150 822 -150 766.5 -189 c 128,-1,113
 711 -228 711 -228 630 -228 c 0,114,80
 565 -228 565 -228 523.5 -201.5 c 128,-1,81
EndSplineSet
Substitution2: "Single Substitution lookup 14 subtable" yoYingthai.less
Substitution2: "'aalt' Access All Alternates lookup 0 subtable" yoYingthai.less
EndChar

StartChar: yoYingthai.less
Encoding: 65539 -1 445
Width: 940
GlyphClass: 2
Flags: W
AnchorPoint: "Anchor-12" 860 550 basechar 0
AnchorPoint: "Anchor-11" 860 0 basechar 0
LayerCount: 2
Fore
SplineSet
514 32 m 128,-1,1
 467 73 467 73 467 165 c 2,2,-1
 467 383 l 2,3,4
 467 463 467 463 421 503 c 128,-1,5
 375 543 375 543 291 543 c 0,6,7
 238 543 238 543 196 527 c 128,-1,8
 154 511 154 511 131 487.5 c 128,-1,9
 108 464 108 464 108 443 c 0,10,11
 108 423 108 423 137 406 c 128,-1,12
 166 389 166 389 190 389 c 0,13,14
 206 389 206 389 225 396 c 0,15,16
 229 397 229 397 236.5 399 c 128,-1,17
 244 401 244 401 250 401 c 0,18,19
 257 401 257 401 265.5 388 c 128,-1,20
 274 375 274 375 274 366 c 0,21,22
 274 358 274 358 266 358 c 0,23,24
 199 358 199 358 172.5 323.5 c 128,-1,25
 146 289 146 289 146 221 c 2,26,-1
 146 114 l 2,27,28
 146 75 146 75 163 54.5 c 128,-1,29
 180 34 180 34 209 34 c 0,30,31
 235 34 235 34 249 48 c 128,-1,32
 263 62 263 62 263 87 c 0,33,34
 263 110 263 110 249.5 123.5 c 128,-1,35
 236 137 236 137 213 137 c 0,36,37
 194 137 194 137 170 129 c 1,38,39
 167 135 167 135 167 140 c 0,40,41
 167 154 167 154 180.5 164 c 128,-1,42
 194 174 194 174 217 174 c 0,43,44
 254 174 254 174 279.5 151.5 c 128,-1,45
 305 129 305 129 305 87 c 256,46,47
 305 45 305 45 277.5 19 c 128,-1,48
 250 -7 250 -7 206 -7 c 0,49,50
 153 -7 153 -7 122.5 26 c 128,-1,51
 92 59 92 59 92 113 c 2,52,-1
 92 221 l 2,53,54
 92 270 92 270 105 302.5 c 128,-1,55
 118 335 118 335 144 357 c 1,56,57
 113 367 113 367 84 391 c 128,-1,58
 55 415 55 415 55 440 c 0,59,60
 55 472 55 472 84 506.5 c 128,-1,61
 113 541 113 541 166.5 563.5 c 128,-1,62
 220 586 220 586 291 586 c 0,63,64
 393 586 393 586 457 535.5 c 128,-1,65
 521 485 521 485 521 383 c 2,66,-1
 521 167 l 2,67,68
 521 96 521 96 553 67 c 128,-1,69
 585 38 585 38 660 38 c 0,70,71
 740 38 740 38 773.5 66.5 c 128,-1,72
 807 95 807 95 807 165 c 2,73,-1
 807 576 l 1,74,-1
 860 576 l 1,75,-1
 860 165 l 2,76,77
 860 72 860 72 811.5 31.5 c 128,-1,78
 763 -9 763 -9 660 -9 c 0,79,0
 561 -9 561 -9 514 32 c 128,-1,1
EndSplineSet
EndChar

StartChar: uni0E0E
Encoding: 3598 3598 446
Width: 630
GlyphClass: 2
Flags: W
AnchorPoint: "Anchor-12" 550 550 basechar 0
AnchorPoint: "Anchor-11" 550 -245 basechar 0
LayerCount: 2
Fore
SplineSet
484 534.5 m 128,-1,1
 550 483 550 483 550 366 c 2,2,-1
 550 -245 l 1,3,-1
 496 -245 l 1,4,5
 444 -185 444 -185 389 -148 c 1,6,7
 363 -194 363 -194 317.5 -221 c 128,-1,8
 272 -248 272 -248 221 -248 c 0,9,10
 165 -248 165 -248 128.5 -223 c 128,-1,11
 92 -198 92 -198 92 -157 c 0,12,13
 92 -131 92 -131 111 -108.5 c 128,-1,14
 130 -86 130 -86 164.5 -73 c 128,-1,15
 199 -60 199 -60 242 -60 c 0,16,17
 302 -60 302 -60 360 -85 c 1,18,19
 369 -50 369 -50 370 -18 c 1,20,21
 391 -18 391 -18 402 -27.5 c 128,-1,22
 413 -37 413 -37 413 -52 c 0,23,24
 413 -80 413 -80 405 -109 c 1,25,26
 451 -137 451 -137 497 -186 c 1,27,-1
 497 366 l 2,28,29
 497 466 497 466 448.5 504.5 c 128,-1,30
 400 543 400 543 314 543 c 0,31,32
 261 543 261 543 216.5 529 c 128,-1,33
 172 515 172 515 146 494 c 128,-1,34
 120 473 120 473 120 453 c 0,35,36
 120 436 120 436 136 421.5 c 128,-1,37
 152 407 152 407 172 397.5 c 128,-1,38
 192 388 192 388 200 388 c 0,39,40
 209 388 209 388 228 395 c 0,41,42
 250 403 250 403 260 403 c 0,43,44
 267 403 267 403 273.5 392.5 c 128,-1,45
 280 382 280 382 282 371 c 128,-1,46
 284 360 284 360 279 360 c 0,47,48
 232 360 232 360 208.5 338 c 128,-1,49
 185 316 185 316 185 268 c 0,50,51
 185 236 185 236 190 207 c 128,-1,52
 195 178 195 178 196 173 c 0,53,54
 206 119 206 119 206 89 c 0,55,56
 206 45 206 45 179.5 18.5 c 128,-1,57
 153 -8 153 -8 107 -8 c 0,58,59
 67 -8 67 -8 41.5 17 c 128,-1,60
 16 42 16 42 16 80 c 0,61,62
 16 117 16 117 39 139 c 128,-1,63
 62 161 62 161 90 161 c 0,64,65
 107 161 107 161 117.5 152.5 c 128,-1,66
 128 144 128 144 128 129 c 1,67,-1
 109 129 l 2,68,69
 84 129 84 129 70.5 116 c 128,-1,70
 57 103 57 103 57 80 c 0,71,72
 57 59 57 59 70.5 45.5 c 128,-1,73
 84 32 84 32 107 32 c 0,74,75
 131 32 131 32 144.5 47.5 c 128,-1,76
 158 63 158 63 158 90 c 0,77,78
 158 118 158 118 152 146.5 c 128,-1,79
 146 175 146 175 145 180 c 0,80,81
 138 209 138 209 134.5 229 c 128,-1,82
 131 249 131 249 131 270 c 0,83,84
 131 325 131 325 163 355 c 1,85,86
 126 367 126 367 95.5 394.5 c 128,-1,87
 65 422 65 422 65 450 c 0,88,89
 65 480 65 480 97.5 512 c 128,-1,90
 130 544 130 544 187 565 c 128,-1,91
 244 586 244 586 314 586 c 0,92,0
 418 586 418 586 484 534.5 c 128,-1,1
293 -185.5 m 128,-1,94
 326 -165 326 -165 346 -124 c 1,95,96
 293 -99 293 -99 247 -99 c 0,97,98
 197 -99 197 -99 169 -115 c 128,-1,99
 141 -131 141 -131 141 -158 c 0,100,101
 141 -181 141 -181 163.5 -193.5 c 128,-1,102
 186 -206 186 -206 220 -206 c 0,103,93
 260 -206 260 -206 293 -185.5 c 128,-1,94
EndSplineSet
Substitution2: "Single Substitution lookup 14 subtable" doChadathai.short
Substitution2: "'aalt' Access All Alternates lookup 0 subtable" doChadathai.short
EndChar

StartChar: doChadathai.short
Encoding: 65540 -1 447
Width: 630
GlyphClass: 2
Flags: W
AnchorPoint: "Anchor-12" 550 550 basechar 0
AnchorPoint: "Anchor-11" 550 -195 basechar 0
LayerCount: 2
Fore
SplineSet
484 534.5 m 128,-1,1
 550 483 550 483 550 366 c 2,2,-1
 550 -195 l 1,3,-1
 497 -195 l 1,4,5
 444 -134 444 -134 389 -98 c 1,6,7
 364 -144 364 -144 319.5 -171 c 128,-1,8
 275 -198 275 -198 224 -198 c 0,9,10
 168 -198 168 -198 132.5 -173.5 c 128,-1,11
 97 -149 97 -149 97 -108 c 0,12,13
 97 -66 97 -66 137 -38 c 128,-1,14
 177 -10 177 -10 242 -10 c 0,15,16
 303 -10 303 -10 364 -39 c 1,17,18
 374 -7 374 -7 375 27 c 1,19,20
 393 27 393 27 403 18.5 c 128,-1,21
 413 10 413 10 413 -5 c 0,22,23
 413 -34 413 -34 405 -61 c 1,24,25
 456 -95 456 -95 497 -139 c 1,26,-1
 497 366 l 2,27,28
 497 466 497 466 448.5 504.5 c 128,-1,29
 400 543 400 543 314 543 c 0,30,31
 261 543 261 543 216.5 529 c 128,-1,32
 172 515 172 515 146 494 c 128,-1,33
 120 473 120 473 120 453 c 0,34,35
 120 436 120 436 136 421.5 c 128,-1,36
 152 407 152 407 172 397.5 c 128,-1,37
 192 388 192 388 200 388 c 0,38,39
 209 388 209 388 228 395 c 0,40,41
 250 403 250 403 260 403 c 0,42,43
 267 403 267 403 273.5 392.5 c 128,-1,44
 280 382 280 382 282 371 c 128,-1,45
 284 360 284 360 279 360 c 0,46,47
 232 360 232 360 208.5 338 c 128,-1,48
 185 316 185 316 185 268 c 0,49,50
 185 236 185 236 190 207 c 128,-1,51
 195 178 195 178 196 173 c 0,52,53
 206 119 206 119 206 89 c 0,54,55
 206 45 206 45 179.5 18.5 c 128,-1,56
 153 -8 153 -8 107 -8 c 0,57,58
 67 -8 67 -8 41.5 17 c 128,-1,59
 16 42 16 42 16 80 c 0,60,61
 16 117 16 117 39 139 c 128,-1,62
 62 161 62 161 90 161 c 0,63,64
 107 161 107 161 117.5 152.5 c 128,-1,65
 128 144 128 144 128 129 c 1,66,-1
 109 129 l 2,67,68
 84 129 84 129 70.5 116 c 128,-1,69
 57 103 57 103 57 80 c 0,70,71
 57 59 57 59 70.5 45.5 c 128,-1,72
 84 32 84 32 107 32 c 0,73,74
 131 32 131 32 144.5 47.5 c 128,-1,75
 158 63 158 63 158 90 c 0,76,77
 158 118 158 118 152 146.5 c 128,-1,78
 146 175 146 175 145 180 c 0,79,80
 138 209 138 209 134.5 229 c 128,-1,81
 131 249 131 249 131 270 c 0,82,83
 131 325 131 325 163 355 c 1,84,85
 126 367 126 367 95.5 394.5 c 128,-1,86
 65 422 65 422 65 450 c 0,87,88
 65 480 65 480 97.5 512 c 128,-1,89
 130 544 130 544 187 565 c 128,-1,90
 244 586 244 586 314 586 c 0,91,0
 418 586 418 586 484 534.5 c 128,-1,1
297 -136.5 m 128,-1,93
 330 -116 330 -116 350 -76 c 1,94,95
 294 -49 294 -49 247 -49 c 0,96,97
 196 -49 196 -49 170 -65 c 128,-1,98
 144 -81 144 -81 144 -109 c 0,99,100
 144 -133 144 -133 165 -145 c 128,-1,101
 186 -157 186 -157 223 -157 c 0,102,92
 264 -157 264 -157 297 -136.5 c 128,-1,93
EndSplineSet
EndChar

StartChar: uni0E0F
Encoding: 3599 3599 448
Width: 630
GlyphClass: 2
Flags: W
AnchorPoint: "Anchor-12" 550 550 basechar 0
AnchorPoint: "Anchor-11" 550 -250 basechar 0
LayerCount: 2
Fore
SplineSet
484 534.5 m 128,-1,1
 550 483 550 483 550 366 c 2,2,-1
 550 -250 l 1,3,-1
 494 -250 l 1,4,-1
 416 -195 l 1,5,-1
 335 -247 l 1,6,-1
 284 -196 l 1,7,8
 261 -222 261 -222 230.5 -237 c 128,-1,9
 200 -252 200 -252 165 -252 c 0,10,11
 121 -252 121 -252 92 -228 c 128,-1,12
 63 -204 63 -204 63 -167 c 0,13,14
 63 -128 63 -128 94 -105 c 128,-1,15
 125 -82 125 -82 167 -82 c 0,16,17
 220 -82 220 -82 271 -127 c 1,18,19
 285 -90 285 -90 285 -42 c 1,20,21
 303 -42 303 -42 315.5 -51 c 128,-1,22
 328 -60 328 -60 328 -79 c 0,23,24
 328 -123 328 -123 307 -162 c 1,25,-1
 340 -194 l 1,26,-1
 417 -146 l 1,27,-1
 498 -201 l 1,28,-1
 497 366 l 2,29,30
 497 466 497 466 448.5 504.5 c 128,-1,31
 400 543 400 543 314 543 c 0,32,33
 261 543 261 543 216.5 529 c 128,-1,34
 172 515 172 515 146 494 c 128,-1,35
 120 473 120 473 120 453 c 0,36,37
 120 436 120 436 136 421.5 c 128,-1,38
 152 407 152 407 172 397.5 c 128,-1,39
 192 388 192 388 200 388 c 0,40,41
 209 388 209 388 228 395 c 0,42,43
 250 403 250 403 260 403 c 0,44,45
 267 403 267 403 273.5 392.5 c 128,-1,46
 280 382 280 382 282 371 c 128,-1,47
 284 360 284 360 279 360 c 0,48,49
 232 360 232 360 208.5 338 c 128,-1,50
 185 316 185 316 185 268 c 0,51,52
 185 236 185 236 190 207 c 128,-1,53
 195 178 195 178 196 173 c 0,54,55
 206 119 206 119 206 89 c 0,56,57
 206 45 206 45 179.5 18.5 c 128,-1,58
 153 -8 153 -8 107 -8 c 0,59,60
 67 -8 67 -8 41.5 17 c 128,-1,61
 16 42 16 42 16 80 c 0,62,63
 16 117 16 117 39 139 c 128,-1,64
 62 161 62 161 90 161 c 0,65,66
 107 161 107 161 117.5 152.5 c 128,-1,67
 128 144 128 144 128 129 c 1,68,-1
 109 129 l 2,69,70
 84 129 84 129 70.5 116 c 128,-1,71
 57 103 57 103 57 80 c 0,72,73
 57 59 57 59 70.5 45.5 c 128,-1,74
 84 32 84 32 107 32 c 0,75,76
 131 32 131 32 144.5 47.5 c 128,-1,77
 158 63 158 63 158 90 c 0,78,79
 158 118 158 118 152 146.5 c 128,-1,80
 146 175 146 175 145 180 c 0,81,82
 138 209 138 209 134.5 229 c 128,-1,83
 131 249 131 249 131 270 c 0,84,85
 131 325 131 325 163 355 c 1,86,87
 126 367 126 367 95.5 394.5 c 128,-1,88
 65 422 65 422 65 450 c 0,89,90
 65 480 65 480 97.5 512 c 128,-1,91
 130 544 130 544 187 565 c 128,-1,92
 244 586 244 586 314 586 c 0,93,0
 418 586 418 586 484 534.5 c 128,-1,1
214 -200.5 m 128,-1,95
 236 -188 236 -188 252 -165 c 1,96,97
 229 -143 229 -143 209.5 -132 c 128,-1,98
 190 -121 190 -121 168 -121 c 0,99,100
 141 -121 141 -121 123.5 -132.5 c 128,-1,101
 106 -144 106 -144 106 -165 c 0,102,103
 106 -187 106 -187 123 -200 c 128,-1,104
 140 -213 140 -213 169 -213 c 0,105,94
 192 -213 192 -213 214 -200.5 c 128,-1,95
EndSplineSet
Substitution2: "Single Substitution lookup 14 subtable" toPatakthai.short
Substitution2: "'aalt' Access All Alternates lookup 0 subtable" toPatakthai.short
EndChar

StartChar: toPatakthai.short
Encoding: 65541 -1 449
Width: 630
GlyphClass: 2
Flags: W
AnchorPoint: "Anchor-12" 550 550 basechar 0
AnchorPoint: "Anchor-11" 550 -199 basechar 0
LayerCount: 2
Fore
SplineSet
484 534.5 m 128,-1,1
 550 483 550 483 550 366 c 2,2,-1
 550 -199 l 1,3,-1
 494 -199 l 1,4,-1
 416 -144 l 1,5,-1
 335 -196 l 1,6,-1
 283 -144 l 1,7,8
 261 -170 261 -170 230.5 -185 c 128,-1,9
 200 -200 200 -200 165 -200 c 0,10,11
 121 -200 121 -200 92 -176.5 c 128,-1,12
 63 -153 63 -153 63 -116 c 0,13,14
 63 -77 63 -77 94 -54 c 128,-1,15
 125 -31 125 -31 167 -31 c 0,16,17
 220 -31 220 -31 271 -76 c 1,18,19
 285 -39 285 -39 285 10 c 1,20,21
 303 10 303 10 315.5 1 c 128,-1,22
 328 -8 328 -8 328 -27 c 0,23,24
 328 -68 328 -68 307 -110 c 1,25,-1
 340 -143 l 1,26,-1
 417 -95 l 1,27,-1
 498 -150 l 1,28,-1
 497 366 l 2,29,30
 496 466 496 466 448 504.5 c 128,-1,31
 400 543 400 543 314 543 c 0,32,33
 261 543 261 543 216.5 529 c 128,-1,34
 172 515 172 515 146 494 c 128,-1,35
 120 473 120 473 120 453 c 0,36,37
 120 436 120 436 136 421.5 c 128,-1,38
 152 407 152 407 172 397.5 c 128,-1,39
 192 388 192 388 200 388 c 0,40,41
 209 388 209 388 228 395 c 0,42,43
 250 403 250 403 260 403 c 0,44,45
 267 403 267 403 273.5 392.5 c 128,-1,46
 280 382 280 382 282 371 c 128,-1,47
 284 360 284 360 279 360 c 0,48,49
 232 360 232 360 208.5 338 c 128,-1,50
 185 316 185 316 185 268 c 0,51,52
 185 236 185 236 190 207 c 128,-1,53
 195 178 195 178 196 173 c 0,54,55
 206 119 206 119 206 89 c 0,56,57
 206 45 206 45 179.5 18.5 c 128,-1,58
 153 -8 153 -8 107 -8 c 0,59,60
 67 -8 67 -8 41.5 17 c 128,-1,61
 16 42 16 42 16 80 c 0,62,63
 16 117 16 117 39 139 c 128,-1,64
 62 161 62 161 90 161 c 0,65,66
 107 161 107 161 117.5 152.5 c 128,-1,67
 128 144 128 144 128 129 c 1,68,-1
 109 129 l 2,69,70
 84 129 84 129 70.5 116 c 128,-1,71
 57 103 57 103 57 80 c 0,72,73
 57 59 57 59 70.5 45.5 c 128,-1,74
 84 32 84 32 107 32 c 0,75,76
 131 32 131 32 144.5 47.5 c 128,-1,77
 158 63 158 63 158 90 c 0,78,79
 158 118 158 118 152 146.5 c 128,-1,80
 146 175 146 175 145 180 c 0,81,82
 138 209 138 209 134.5 229 c 128,-1,83
 131 249 131 249 131 270 c 0,84,85
 131 325 131 325 163 355 c 1,86,87
 126 367 126 367 95.5 394.5 c 128,-1,88
 65 422 65 422 65 450 c 0,89,90
 65 480 65 480 97.5 512 c 128,-1,91
 130 544 130 544 187 565 c 128,-1,92
 244 586 244 586 314 586 c 0,93,0
 418 586 418 586 484 534.5 c 128,-1,1
214.5 -149 m 128,-1,95
 236 -137 236 -137 252 -113 c 1,96,97
 228 -91 228 -91 209 -80 c 128,-1,98
 190 -69 190 -69 168 -69 c 0,99,100
 141 -69 141 -69 123.5 -80.5 c 128,-1,101
 106 -92 106 -92 106 -114 c 256,102,103
 106 -136 106 -136 123 -148.5 c 128,-1,104
 140 -161 140 -161 169 -161 c 0,105,94
 193 -161 193 -161 214.5 -149 c 128,-1,95
EndSplineSet
EndChar

StartChar: uni0E10
Encoding: 3600 3600 450
Width: 589
GlyphClass: 2
Flags: W
AnchorPoint: "Anchor-12" 496 550 basechar 0
AnchorPoint: "Anchor-11" 495 -279 basechar 0
LayerCount: 2
Fore
SplineSet
518 561 m 0,1,2
 518 539 518 539 485.5 527.5 c 128,-1,3
 453 516 453 516 405 516 c 0,4,5
 381 516 381 516 319 526 c 0,6,7
 314 527 314 527 279.5 532 c 128,-1,8
 245 537 245 537 213 537 c 0,9,10
 164 537 164 537 138.5 515.5 c 128,-1,11
 113 494 113 494 113 453 c 0,12,13
 113 435 113 435 117 419.5 c 128,-1,14
 121 404 121 404 128 396 c 1,15,16
 137 396 137 396 157 399 c 0,17,18
 251 409 251 409 312 408 c 0,19,20
 400 406 400 406 448.5 367.5 c 128,-1,21
 497 329 497 329 497 253 c 0,22,23
 497 222 497 222 492 188.5 c 128,-1,24
 487 155 487 155 476 101 c 0,25,26
 469 72 469 72 460 18 c 0,27,28
 458 6 458 6 432.5 -1.5 c 128,-1,29
 407 -9 407 -9 367 -9 c 256,30,31
 327 -9 327 -9 299 -0.5 c 128,-1,32
 271 8 271 8 271 19 c 0,33,34
 270 64 270 64 267.5 106.5 c 128,-1,35
 265 149 265 149 259 184 c 0,36,37
 253 221 253 221 239.5 236 c 128,-1,38
 226 251 226 251 200 251 c 0,39,40
 178 251 178 251 164 238 c 128,-1,41
 150 225 150 225 150 202 c 0,42,43
 150 180 150 180 163.5 166.5 c 128,-1,44
 177 153 177 153 200 153 c 256,45,46
 223 153 223 153 241 167 c 1,47,48
 244 161 244 161 244 155 c 0,49,50
 244 140 244 140 229.5 129 c 128,-1,51
 215 118 215 118 189 118 c 0,52,53
 152 118 152 118 129.5 141.5 c 128,-1,54
 107 165 107 165 107 202 c 0,55,56
 107 242 107 242 132.5 266.5 c 128,-1,57
 158 291 158 291 201 291 c 0,58,59
 292 291 292 291 306 195 c 0,60,61
 318 108 318 108 318 43 c 0,62,63
 318 39 318 39 333.5 35 c 128,-1,64
 349 31 349 31 366 31 c 0,65,66
 385 31 385 31 400 34.5 c 128,-1,67
 415 38 415 38 416 43 c 0,68,69
 418 60 418 60 427 110 c 0,70,71
 444 203 444 203 444 249 c 0,72,73
 444 309 444 309 409 336 c 128,-1,74
 374 363 374 363 292 363 c 0,75,76
 248 363 248 363 141 353 c 2,77,-1
 98 349 l 1,78,79
 81 366 81 366 70.5 394 c 128,-1,80
 60 422 60 422 60 452 c 0,81,82
 60 513 60 513 103 547.5 c 128,-1,83
 146 582 146 582 213 582 c 0,84,85
 252 582 252 582 320 572 c 0,86,87
 376 564 376 564 395 564 c 0,88,89
 469 564 469 564 503 592 c 1,90,0
 518 577 518 577 518 561 c 0,1,2
483 -76.5 m 128,-1,92
 504 -97 504 -97 504 -131 c 0,93,94
 504 -146 504 -146 499.5 -162.5 c 128,-1,95
 495 -179 495 -179 490 -195 c 0,96,97
 472 -241 472 -241 472 -277 c 1,98,-1
 423 -277 l 1,99,-1
 365 -243 l 1,100,-1
 298 -280 l 1,101,-1
 252 -230 l 1,102,103
 234 -253 234 -253 208.5 -266.5 c 128,-1,104
 183 -280 183 -280 156 -280 c 0,105,106
 114 -280 114 -280 90.5 -256.5 c 128,-1,107
 67 -233 67 -233 67 -202 c 0,108,109
 67 -165 67 -165 92 -143.5 c 128,-1,110
 117 -122 117 -122 155 -122 c 0,111,112
 197 -122 197 -122 243 -168 c 1,113,114
 251 -136 251 -136 251 -99 c 1,115,116
 270 -99 270 -99 279 -105 c 128,-1,117
 288 -111 288 -111 288 -126 c 0,118,119
 288 -165 288 -165 272 -199 c 1,120,-1
 304 -235 l 1,121,-1
 363 -203 l 1,122,-1
 433 -240 l 1,123,124
 433 -227 433 -227 436.5 -215.5 c 128,-1,125
 440 -204 440 -204 447 -188 c 0,126,127
 462 -156 462 -156 462 -133 c 0,128,129
 462 -114 462 -114 452 -103 c 128,-1,130
 442 -92 442 -92 423 -92 c 0,131,132
 406 -92 406 -92 395.5 -102 c 128,-1,133
 385 -112 385 -112 385 -128 c 0,134,135
 385 -145 385 -145 396 -156 c 128,-1,136
 407 -167 407 -167 428 -169 c 1,137,138
 426 -184 426 -184 404 -184 c 256,139,140
 382 -184 382 -184 365.5 -168.5 c 128,-1,141
 349 -153 349 -153 349 -129 c 0,142,143
 349 -96 349 -96 370.5 -76 c 128,-1,144
 392 -56 392 -56 424 -56 c 0,145,91
 462 -56 462 -56 483 -76.5 c 128,-1,92
228 -205 m 1,147,148
 207 -182 207 -182 189.5 -170.5 c 128,-1,149
 172 -159 172 -159 155 -159 c 0,150,151
 134 -159 134 -159 120.5 -170 c 128,-1,152
 107 -181 107 -181 107 -200 c 0,153,154
 107 -222 107 -222 120 -233 c 128,-1,155
 133 -244 133 -244 157 -244 c 0,156,146
 205 -244 205 -244 228 -205 c 1,147,148
EndSplineSet
Substitution2: "Single Substitution lookup 14 subtable" thoThanthai.less
Substitution2: "'aalt' Access All Alternates lookup 0 subtable" thoThanthai.less
EndChar

StartChar: thoThanthai.less
Encoding: 65542 -1 451
Width: 575
GlyphClass: 2
Flags: W
AnchorPoint: "Anchor-12" 496 550 basechar 0
AnchorPoint: "Anchor-11" 475 0 basechar 0
LayerCount: 2
Fore
SplineSet
299 -0.5 m 128,-1,1
 271 8 271 8 271 19 c 0,2,3
 270 64 270 64 267.5 106.5 c 128,-1,4
 265 149 265 149 259 184 c 0,5,6
 253 221 253 221 239.5 236 c 128,-1,7
 226 251 226 251 200 251 c 0,8,9
 178 251 178 251 164 238 c 128,-1,10
 150 225 150 225 150 202 c 0,11,12
 150 180 150 180 163.5 166.5 c 128,-1,13
 177 153 177 153 200 153 c 256,14,15
 223 153 223 153 241 167 c 1,16,17
 244 161 244 161 244 155 c 0,18,19
 244 140 244 140 229.5 129 c 128,-1,20
 215 118 215 118 189 118 c 0,21,22
 152 118 152 118 129.5 141.5 c 128,-1,23
 107 165 107 165 107 202 c 0,24,25
 107 242 107 242 132.5 266.5 c 128,-1,26
 158 291 158 291 201 291 c 0,27,28
 292 291 292 291 306 195 c 0,29,30
 318 108 318 108 318 43 c 0,31,32
 318 39 318 39 333.5 35 c 128,-1,33
 349 31 349 31 366 31 c 0,34,35
 385 31 385 31 400 34.5 c 128,-1,36
 415 38 415 38 416 43 c 0,37,38
 418 60 418 60 427 110 c 0,39,40
 444 203 444 203 444 249 c 0,41,42
 444 309 444 309 409 336 c 128,-1,43
 374 363 374 363 292 363 c 0,44,45
 248 363 248 363 141 353 c 2,46,-1
 98 349 l 1,47,48
 81 366 81 366 70.5 394 c 128,-1,49
 60 422 60 422 60 452 c 0,50,51
 60 513 60 513 103 547.5 c 128,-1,52
 146 582 146 582 213 582 c 0,53,54
 252 582 252 582 320 572 c 0,55,56
 376 564 376 564 395 564 c 0,57,58
 469 564 469 564 503 592 c 1,59,60
 518 577 518 577 518 561 c 0,61,62
 518 539 518 539 485.5 527.5 c 128,-1,63
 453 516 453 516 405 516 c 0,64,65
 381 516 381 516 319 526 c 0,66,67
 314 527 314 527 279.5 532 c 128,-1,68
 245 537 245 537 213 537 c 0,69,70
 164 537 164 537 138.5 515.5 c 128,-1,71
 113 494 113 494 113 453 c 0,72,73
 113 435 113 435 117 419.5 c 128,-1,74
 121 404 121 404 128 396 c 1,75,76
 137 396 137 396 157 399 c 0,77,78
 251 409 251 409 312 408 c 0,79,80
 400 406 400 406 448.5 367.5 c 128,-1,81
 497 329 497 329 497 253 c 0,82,83
 497 222 497 222 492 188.5 c 128,-1,84
 487 155 487 155 476 101 c 0,85,86
 469 72 469 72 460 18 c 0,87,88
 458 6 458 6 432.5 -1.5 c 128,-1,89
 407 -9 407 -9 367 -9 c 256,90,0
 327 -9 327 -9 299 -0.5 c 128,-1,1
EndSplineSet
EndChar

StartChar: uni0E11
Encoding: 3601 3601 452
Width: 655
GlyphClass: 2
Flags: W
AnchorPoint: "Anchor-12" 575 550 basechar 0
AnchorPoint: "Anchor-11" 575 0 basechar 0
LayerCount: 2
Fore
SplineSet
542 545.5 m 128,-1,1
 575 511 575 511 575 445 c 2,2,-1
 575 0 l 1,3,-1
 522 0 l 1,4,-1
 522 439 l 2,5,6
 522 489 522 489 505.5 511.5 c 128,-1,7
 489 534 489 534 451 534 c 0,8,9
 426 534 426 534 404 520 c 128,-1,10
 382 506 382 506 358 477 c 128,-1,11
 334 448 334 448 282 380 c 2,12,-1
 270 364 l 2,13,14
 238 323 238 323 222 291.5 c 128,-1,15
 206 260 206 260 206 222 c 2,16,-1
 205 0 l 1,17,-1
 164 0 l 2,18,19
 149 0 149 0 149 15 c 0,20,21
 149 22 149 22 150.5 43 c 128,-1,22
 152 64 152 64 152 99 c 2,23,-1
 152 226 l 2,24,25
 152 261 152 261 163 289 c 128,-1,26
 174 317 174 317 186 333 c 128,-1,27
 198 349 198 349 230 390 c 0,28,29
 254 420 254 420 265.5 444.5 c 128,-1,30
 277 469 277 469 277 494 c 0,31,32
 277 515 277 515 268 526.5 c 128,-1,33
 259 538 259 538 241 538 c 0,34,35
 221 538 221 538 206.5 527 c 128,-1,36
 192 516 192 516 180 494 c 1,37,38
 167 518 167 518 153 529 c 128,-1,39
 139 540 139 540 118 540 c 0,40,41
 94 540 94 540 80 525 c 128,-1,42
 66 510 66 510 66 485 c 0,43,44
 66 458 66 458 80 443 c 128,-1,45
 94 428 94 428 117 428 c 256,46,47
 140 428 140 428 154 441 c 128,-1,48
 168 454 168 454 173 474 c 1,49,50
 189 469 189 469 189 452 c 0,51,52
 189 427 189 427 168 408.5 c 128,-1,53
 147 390 147 390 116 390 c 0,54,55
 75 390 75 390 49 416.5 c 128,-1,56
 23 443 23 443 23 484 c 0,57,58
 23 528 23 528 49.5 554 c 128,-1,59
 76 580 76 580 113 580 c 0,60,61
 160 580 160 580 181 542 c 1,62,63
 206 579 206 579 251 579 c 0,64,65
 280 579 280 579 299.5 560.5 c 128,-1,66
 319 542 319 542 324 509 c 1,67,68
 349 541 349 541 381 560.5 c 128,-1,69
 413 580 413 580 449 580 c 0,70,0
 509 580 509 580 542 545.5 c 128,-1,1
EndSplineSet
EndChar

StartChar: uni0E12
Encoding: 3602 3602 453
Width: 929
GlyphClass: 2
Flags: W
AnchorPoint: "Anchor-12" 833 550 basechar 0
AnchorPoint: "Anchor-11" 833 0 basechar 0
LayerCount: 2
Fore
SplineSet
834.5 47.5 m 128,-1,1
 836 25 836 25 836 19 c 0,2,3
 836 0 836 0 819 0 c 2,4,-1
 785 0 l 1,5,6
 708 179 708 179 547 194 c 1,7,-1
 547 133 l 1,8,-1
 547 101 l 2,9,10
 546 49 546 49 525 20 c 128,-1,11
 504 -9 504 -9 461 -9 c 0,12,13
 420 -9 420 -9 394 21.5 c 128,-1,14
 368 52 368 52 368 103 c 0,15,16
 368 161 368 161 404 194.5 c 128,-1,17
 440 228 440 228 493 235 c 1,18,-1
 493 370 l 2,19,20
 493 447 493 447 472 484 c 128,-1,21
 451 521 451 521 403 536 c 1,22,23
 383 519 383 519 340 492 c 2,24,-1
 316 477 l 1,25,26
 310 480 310 480 279 499 c 128,-1,27
 248 518 248 518 227 536 c 1,28,29
 177 519 177 519 148.5 471 c 128,-1,30
 120 423 120 423 120 343 c 0,31,32
 120 277 120 277 139.5 232 c 128,-1,33
 159 187 159 187 194 152 c 1,34,35
 211 169 211 169 243.5 191 c 128,-1,36
 276 213 276 213 284 218 c 2,37,-1
 316 240 l 2,38,39
 361 273 361 273 361 313 c 0,40,41
 361 339 361 339 347 354 c 128,-1,42
 333 369 333 369 307 369 c 256,43,44
 281 369 281 369 266.5 355 c 128,-1,45
 252 341 252 341 252 317 c 0,46,47
 252 275 252 275 294 259 c 1,48,49
 288 243 288 243 266 243 c 256,50,51
 244 243 244 243 227 264 c 128,-1,52
 210 285 210 285 210 316 c 0,53,54
 210 358 210 358 237.5 384 c 128,-1,55
 265 410 265 410 308 410 c 0,56,57
 353 410 353 410 379.5 382.5 c 128,-1,58
 406 355 406 355 406 318 c 0,59,60
 406 280 406 280 390 256 c 128,-1,61
 374 232 374 232 340 208 c 2,62,-1
 315 190 l 2,63,64
 265 155 265 155 236 130 c 128,-1,65
 207 105 207 105 188 73 c 128,-1,66
 169 41 169 41 169 0 c 1,67,-1
 126 0 l 2,68,69
 121 0 121 0 118 2 c 128,-1,70
 115 4 115 4 115 11 c 0,71,72
 115 31 115 31 123 49.5 c 128,-1,73
 131 68 131 68 145 91 c 0,74,75
 157 108 157 108 157 114 c 0,76,77
 157 116 157 116 145 130 c 0,78,79
 112 167 112 167 88.5 214.5 c 128,-1,80
 65 262 65 262 65 342 c 0,81,82
 65 434 65 434 106.5 496.5 c 128,-1,83
 148 559 148 559 227 586 c 1,84,85
 294 544 294 544 316 524 c 1,86,87
 338 543 338 543 384 573 c 2,88,-1
 403 586 l 1,89,90
 482 563 482 563 514.5 513.5 c 128,-1,91
 547 464 547 464 547 374 c 2,92,-1
 547 236 l 1,93,94
 694 224 694 224 780 101 c 1,95,-1
 780 576 l 1,96,-1
 833 576 l 1,97,-1
 833 125 l 2,98,0
 833 70 833 70 834.5 47.5 c 128,-1,1
494 171 m 2,100,-1
 493 193 l 1,101,102
 458 187 458 187 437 165.5 c 128,-1,103
 416 144 416 144 416 106 c 0,104,105
 416 35 416 35 460 35 c 0,106,107
 478 35 478 35 486.5 50.5 c 128,-1,108
 495 66 495 66 495 102 c 0,109,99
 496 125 496 125 494 171 c 2,100,-1
EndSplineSet
EndChar

StartChar: uni0E13
Encoding: 3603 3603 454
Width: 933
GlyphClass: 2
Flags: W
AnchorPoint: "Anchor-12" 854 550 basechar 0
AnchorPoint: "Anchor-11" 854 0 basechar 0
LayerCount: 2
Fore
SplineSet
875 168.5 m 128,-1,1
 895 139 895 139 895 100 c 0,2,3
 895 51 895 51 864.5 23.5 c 128,-1,4
 834 -4 834 -4 789 -4 c 256,5,6
 744 -4 744 -4 715 23 c 128,-1,7
 686 50 686 50 686 99 c 0,8,9
 686 130 686 130 698.5 152 c 128,-1,10
 711 174 711 174 733 194 c 1,11,12
 728 195 728 195 717 195 c 0,13,14
 671 195 671 195 626.5 167.5 c 128,-1,15
 582 140 582 140 553.5 95 c 128,-1,16
 525 50 525 50 525 0 c 1,17,-1
 485 0 l 2,18,19
 468 0 468 0 470 20 c 0,20,21
 474 76 474 76 474 118 c 2,22,-1
 473 383 l 2,23,24
 473 463 473 463 426 503 c 128,-1,25
 379 543 379 543 295 543 c 0,26,27
 241 543 241 543 198 527 c 128,-1,28
 155 511 155 511 131 487.5 c 128,-1,29
 107 464 107 464 107 443 c 0,30,31
 107 423 107 423 136.5 406 c 128,-1,32
 166 389 166 389 190 389 c 0,33,34
 203 389 203 389 225 397 c 0,35,36
 243 403 243 403 251 403 c 0,37,38
 258 403 258 403 267 390.5 c 128,-1,39
 276 378 276 378 276 369 c 0,40,41
 276 363 276 363 270 363 c 0,42,43
 201 363 201 363 173.5 326.5 c 128,-1,44
 146 290 146 290 146 221 c 2,45,-1
 146 114 l 2,46,47
 146 75 146 75 163 54.5 c 128,-1,48
 180 34 180 34 209 34 c 0,49,50
 235 34 235 34 249 48 c 128,-1,51
 263 62 263 62 263 87 c 0,52,53
 263 110 263 110 249.5 123.5 c 128,-1,54
 236 137 236 137 213 137 c 0,55,56
 194 137 194 137 170 129 c 1,57,58
 167 135 167 135 167 140 c 0,59,60
 167 154 167 154 180.5 164 c 128,-1,61
 194 174 194 174 217 174 c 0,62,63
 254 174 254 174 279.5 151.5 c 128,-1,64
 305 129 305 129 305 87 c 256,65,66
 305 45 305 45 277.5 19 c 128,-1,67
 250 -7 250 -7 206 -7 c 0,68,69
 153 -7 153 -7 122.5 26 c 128,-1,70
 92 59 92 59 92 113 c 2,71,-1
 92 221 l 2,72,73
 92 312 92 312 145 357 c 1,74,75
 114 367 114 367 84.5 390.5 c 128,-1,76
 55 414 55 414 55 440 c 0,77,78
 55 472 55 472 84.5 506.5 c 128,-1,79
 114 541 114 541 168.5 563.5 c 128,-1,80
 223 586 223 586 295 586 c 0,81,82
 399 586 399 586 462 535.5 c 128,-1,83
 525 485 525 485 525 383 c 2,84,-1
 525 133 l 1,85,86
 559 182 559 182 609.5 209 c 128,-1,87
 660 236 660 236 720 236 c 0,88,89
 746 236 746 236 774 231 c 1,90,91
 802 259 802 259 802 301 c 2,92,-1
 802 576 l 1,93,-1
 854 576 l 1,94,-1
 854 298 l 2,95,96
 854 251 854 251 820 215 c 1,97,0
 855 198 855 198 875 168.5 c 128,-1,1
833.5 55.5 m 128,-1,99
 849 73 849 73 849 104 c 0,100,101
 849 132 849 132 832 152.5 c 128,-1,102
 815 173 815 173 785 184 c 1,103,104
 757 161 757 161 744 144.5 c 128,-1,105
 731 128 731 128 731 103 c 0,106,107
 731 74 731 74 746 56 c 128,-1,108
 761 38 761 38 789 38 c 0,109,98
 818 38 818 38 833.5 55.5 c 128,-1,99
EndSplineSet
EndChar

StartChar: uni0E14
Encoding: 3604 3604 455
Width: 622
GlyphClass: 2
Flags: W
AnchorPoint: "Anchor-12" 542 550 basechar 0
AnchorPoint: "Anchor-11" 542 0 basechar 0
LayerCount: 2
Fore
SplineSet
483 526.5 m 128,-1,1
 542 467 542 467 542 358 c 2,2,-1
 542 0 l 1,3,-1
 490 0 l 1,4,-1
 490 353 l 2,5,6
 490 443 490 443 446 492.5 c 128,-1,7
 402 542 402 542 310 542 c 0,8,9
 221 542 221 542 170 490 c 128,-1,10
 119 438 119 438 119 347 c 0,11,12
 119 282 119 282 137 235 c 128,-1,13
 155 188 155 188 189 152 c 1,14,15
 206 170 206 170 239 193 c 128,-1,16
 272 216 272 216 279 221 c 2,17,-1
 309 241 l 2,18,19
 353 272 353 272 353 315 c 0,20,21
 353 341 353 341 339.5 355.5 c 128,-1,22
 326 370 326 370 301 370 c 256,23,24
 276 370 276 370 261.5 356 c 128,-1,25
 247 342 247 342 247 319 c 0,26,27
 247 297 247 297 258 283.5 c 128,-1,28
 269 270 269 270 292 261 c 1,29,30
 285 246 285 246 265 246 c 0,31,32
 241 246 241 246 223 267 c 128,-1,33
 205 288 205 288 205 318 c 0,34,35
 205 359 205 359 232 385 c 128,-1,36
 259 411 259 411 301 411 c 0,37,38
 345 411 345 411 371.5 383.5 c 128,-1,39
 398 356 398 356 398 320 c 0,40,41
 398 283 398 283 382 257 c 128,-1,42
 366 231 366 231 333 209 c 0,43,44
 269 165 269 165 238 139.5 c 128,-1,45
 207 114 207 114 184.5 79 c 128,-1,46
 162 44 162 44 162 0 c 1,47,-1
 118 0 l 2,48,49
 113 0 113 0 110 2 c 128,-1,50
 107 4 107 4 107 11 c 0,51,52
 107 34 107 34 115.5 53.5 c 128,-1,53
 124 73 124 73 138 95 c 0,54,55
 140 98 140 98 144.5 105.5 c 128,-1,56
 149 113 149 113 149 116 c 0,57,58
 149 120 149 120 143 129 c 128,-1,59
 137 138 137 138 135 141 c 0,60,61
 106 182 106 182 85.5 231 c 128,-1,62
 65 280 65 280 65 352 c 0,63,64
 65 421 65 421 96.5 474 c 128,-1,65
 128 527 128 527 183.5 556.5 c 128,-1,66
 239 586 239 586 310 586 c 0,67,0
 424 586 424 586 483 526.5 c 128,-1,1
EndSplineSet
EndChar

StartChar: uni0E15
Encoding: 3605 3605 456
Width: 630
GlyphClass: 2
Flags: W
AnchorPoint: "Anchor-12" 550 550 basechar 0
AnchorPoint: "Anchor-11" 550 0 basechar 0
LayerCount: 2
Fore
SplineSet
516.5 515 m 128,-1,1
 550 465 550 465 550 374 c 2,2,-1
 550 0 l 1,3,-1
 497 0 l 1,4,-1
 497 370 l 2,5,6
 497 447 497 447 475 485 c 128,-1,7
 453 523 453 523 405 536 c 1,8,9
 389 523 389 523 339 490 c 2,10,-1
 319 477 l 1,11,12
 254 517 254 517 231 536 c 1,13,14
 181 519 181 519 150.5 470.5 c 128,-1,15
 120 422 120 422 120 343 c 0,16,17
 120 279 120 279 140.5 234 c 128,-1,18
 161 189 161 189 198 152 c 1,19,20
 217 171 217 171 274 207 c 0,21,22
 304 225 304 225 318 235 c 0,23,24
 343 252 343 252 353 269.5 c 128,-1,25
 363 287 363 287 363 309 c 0,26,27
 363 334 363 334 349 349 c 128,-1,28
 335 364 335 364 309 364 c 256,29,30
 283 364 283 364 268.5 350 c 128,-1,31
 254 336 254 336 254 312 c 0,32,33
 254 271 254 271 299 253 c 1,34,35
 294 245 294 245 288 241.5 c 128,-1,36
 282 238 282 238 271 238 c 0,37,38
 247 238 247 238 229.5 259 c 128,-1,39
 212 280 212 280 212 311 c 0,40,41
 212 353 212 353 239 379 c 128,-1,42
 266 405 266 405 309 405 c 0,43,44
 354 405 354 405 381 377.5 c 128,-1,45
 408 350 408 350 408 312 c 256,46,47
 408 274 408 274 392 250 c 128,-1,48
 376 226 376 226 343 203 c 0,49,50
 339 200 339 200 334 197 c 128,-1,51
 329 194 329 194 323 189 c 0,52,53
 269 153 269 153 239.5 129.5 c 128,-1,54
 210 106 210 106 191 74 c 128,-1,55
 172 42 172 42 172 0 c 1,56,-1
 129 0 l 2,57,58
 124 0 124 0 121 2 c 128,-1,59
 118 4 118 4 118 11 c 0,60,61
 118 30 118 30 125.5 47 c 128,-1,62
 133 64 133 64 145 85 c 0,63,64
 158 109 158 109 158 116 c 0,65,66
 158 120 158 120 144 137 c 0,67,68
 111 175 111 175 88 222 c 128,-1,69
 65 269 65 269 65 342 c 0,70,71
 65 435 65 435 108 497.5 c 128,-1,72
 151 560 151 560 231 586 c 1,73,74
 294 546 294 546 319 524 c 1,75,76
 339 542 339 542 368.5 561.5 c 128,-1,77
 398 581 398 581 405 586 c 1,78,0
 483 565 483 565 516.5 515 c 128,-1,1
EndSplineSet
EndChar

StartChar: uni0E16
Encoding: 3606 3606 457
Width: 615
GlyphClass: 2
Flags: W
AnchorPoint: "Anchor-12" 535 550 basechar 0
AnchorPoint: "Anchor-11" 535 0 basechar 0
LayerCount: 2
Fore
SplineSet
467.5 535 m 128,-1,1
 535 484 535 484 535 383 c 2,2,-1
 535 0 l 1,3,-1
 482 0 l 1,4,-1
 482 383 l 2,5,6
 482 462 482 462 432 502.5 c 128,-1,7
 382 543 382 543 298 543 c 0,8,9
 245 543 245 543 201.5 527 c 128,-1,10
 158 511 158 511 133 487 c 128,-1,11
 108 463 108 463 108 443 c 256,12,13
 108 423 108 423 134.5 406.5 c 128,-1,14
 161 390 161 390 185 390 c 0,15,16
 196 390 196 390 218 396 c 0,17,18
 233 401 233 401 244 401 c 0,19,20
 251 401 251 401 259.5 387 c 128,-1,21
 268 373 268 373 268 363 c 0,22,23
 268 357 268 357 263 357 c 0,24,25
 195 357 195 357 170.5 323.5 c 128,-1,26
 146 290 146 290 146 221 c 2,27,-1
 146 114 l 2,28,29
 146 75 146 75 163 54.5 c 128,-1,30
 180 34 180 34 209 34 c 0,31,32
 235 34 235 34 249 48 c 128,-1,33
 263 62 263 62 263 87 c 0,34,35
 263 110 263 110 249.5 123.5 c 128,-1,36
 236 137 236 137 213 137 c 0,37,38
 194 137 194 137 170 129 c 1,39,40
 167 135 167 135 167 140 c 0,41,42
 167 154 167 154 180.5 164 c 128,-1,43
 194 174 194 174 217 174 c 0,44,45
 254 174 254 174 279.5 152 c 128,-1,46
 305 130 305 130 305 87 c 0,47,48
 305 45 305 45 277.5 19 c 128,-1,49
 250 -7 250 -7 206 -7 c 0,50,51
 153 -7 153 -7 122.5 26 c 128,-1,52
 92 59 92 59 92 113 c 2,53,-1
 92 221 l 2,54,55
 92 270 92 270 103.5 302.5 c 128,-1,56
 115 335 115 335 139 356 c 1,57,58
 109 367 109 367 82 390.5 c 128,-1,59
 55 414 55 414 55 440 c 0,60,61
 55 472 55 472 86 506 c 128,-1,62
 117 540 117 540 172.5 563 c 128,-1,63
 228 586 228 586 298 586 c 0,64,0
 400 586 400 586 467.5 535 c 128,-1,1
EndSplineSet
EndChar

StartChar: uni0E17
Encoding: 3607 3607 458
Width: 665
GlyphClass: 2
Flags: W
AnchorPoint: "Anchor-12" 585 550 basechar 0
AnchorPoint: "Anchor-11" 585 0 basechar 0
LayerCount: 2
Fore
SplineSet
554 553.5 m 128,-1,1
 585 521 585 521 585 459 c 2,2,-1
 585 0 l 1,3,-1
 532 0 l 1,4,-1
 532 455 l 2,5,6
 532 498 532 498 515.5 518.5 c 128,-1,7
 499 539 499 539 464 539 c 0,8,9
 423 539 423 539 394.5 507 c 128,-1,10
 366 475 366 475 336 407 c 0,11,12
 281 278 281 278 257.5 201 c 128,-1,13
 234 124 234 124 232 42 c 2,14,-1
 231 0 l 1,15,-1
 188 0 l 2,16,17
 181 0 181 0 178.5 3.5 c 128,-1,18
 176 7 176 7 176 16 c 0,19,20
 176 24 176 24 177.5 49.5 c 128,-1,21
 179 75 179 75 179 102 c 2,22,-1
 179 481 l 2,23,24
 179 511 179 511 166 528 c 128,-1,25
 153 545 153 545 127 545 c 0,26,27
 103 545 103 545 90 532 c 128,-1,28
 77 519 77 519 77 496 c 0,29,30
 77 472 77 472 91 459 c 128,-1,31
 105 446 105 446 128 446 c 2,32,-1
 152 446 l 1,33,34
 152 410 152 410 111 410 c 0,35,36
 82 410 82 410 58.5 433.5 c 128,-1,37
 35 457 35 457 35 496 c 256,38,39
 35 535 35 535 61.5 560.5 c 128,-1,40
 88 586 88 586 129 586 c 0,41,42
 176 586 176 586 204.5 558.5 c 128,-1,43
 233 531 233 531 233 481 c 2,44,-1
 233 260 l 1,45,46
 266 356 266 356 297 430 c 0,47,48
 328 503 328 503 368 544.5 c 128,-1,49
 408 586 408 586 469 586 c 0,50,0
 523 586 523 586 554 553.5 c 128,-1,1
EndSplineSet
EndChar

StartChar: uni0E18
Encoding: 3608 3608 459
Width: 590
GlyphClass: 2
Flags: W
AnchorPoint: "Anchor-12" 495 550 basechar 0
AnchorPoint: "Anchor-11" 471 0 basechar 0
LayerCount: 2
Fore
SplineSet
179 5.5 m 128,-1,1
 138 20 138 20 119 54.5 c 128,-1,2
 100 89 100 89 100 150 c 2,3,-1
 100 264 l 1,4,5
 114 268 114 268 128 268 c 0,6,7
 154 268 154 268 154 247 c 2,8,-1
 154 154 l 2,9,10
 154 108 154 108 164.5 83.5 c 128,-1,11
 175 59 175 59 204 48 c 128,-1,12
 233 37 233 37 291 37 c 0,13,14
 350 37 350 37 382.5 47 c 128,-1,15
 415 57 415 57 428.5 80.5 c 128,-1,16
 442 104 442 104 442 146 c 2,17,-1
 442 225 l 2,18,19
 442 273 442 273 422.5 295.5 c 128,-1,20
 403 318 403 318 361 325 c 0,21,22
 292 336 292 336 136 336 c 2,23,-1
 106 336 l 1,24,25
 89 351 89 351 78 382.5 c 128,-1,26
 67 414 67 414 67 445 c 0,27,28
 67 509 67 509 109.5 545.5 c 128,-1,29
 152 582 152 582 221 582 c 0,30,31
 246 582 246 582 277.5 579 c 128,-1,32
 309 576 309 576 319 575 c 0,33,34
 379 569 379 569 399 569 c 0,35,36
 461 569 461 569 500 595 c 1,37,38
 515 580 515 580 515 561 c 0,39,40
 515 541 515 541 487 530.5 c 128,-1,41
 459 520 459 520 416 520 c 0,42,43
 389 520 389 520 323 528 c 0,44,45
 262 537 262 537 221 537 c 0,46,47
 171 537 171 537 145 513.5 c 128,-1,48
 119 490 119 490 119 446 c 0,49,50
 119 406 119 406 135 383 c 1,51,52
 295 383 295 383 372 369 c 0,53,54
 431 358 431 358 463 326.5 c 128,-1,55
 495 295 495 295 495 225 c 2,56,-1
 495 150 l 2,57,58
 495 88 495 88 473 53.5 c 128,-1,59
 451 19 451 19 407 5 c 128,-1,60
 363 -9 363 -9 291 -9 c 0,61,0
 220 -9 220 -9 179 5.5 c 128,-1,1
EndSplineSet
EndChar

StartChar: uni0E19
Encoding: 3609 3609 460
Width: 637
GlyphClass: 2
Flags: W
AnchorPoint: "Anchor-12" 557 550 basechar 0
AnchorPoint: "Anchor-11" 557 0 basechar 0
LayerCount: 2
Fore
SplineSet
598 97 m 0,1,2
 598 51 598 51 568 23.5 c 128,-1,3
 538 -4 538 -4 492 -4 c 0,4,5
 447 -4 447 -4 418 23.5 c 128,-1,6
 389 51 389 51 389 97 c 0,7,8
 389 127 389 127 401 148.5 c 128,-1,9
 413 170 413 170 434 188 c 1,10,11
 427 189 427 189 413 189 c 0,12,13
 368 189 368 189 321 162 c 128,-1,14
 274 135 274 135 243.5 91 c 128,-1,15
 213 47 213 47 213 0 c 1,16,-1
 176 0 l 2,17,18
 156 0 156 0 156 20 c 0,19,20
 156 31 156 31 157 40 c 0,21,22
 160 91 160 91 160 113 c 2,23,-1
 159 481 l 2,24,25
 159 511 159 511 146 528 c 128,-1,26
 133 545 133 545 107 545 c 0,27,28
 83 545 83 545 70 532 c 128,-1,29
 57 519 57 519 57 496 c 0,30,31
 57 472 57 472 71 459 c 128,-1,32
 85 446 85 446 108 446 c 2,33,-1
 132 446 l 1,34,35
 132 410 132 410 91 410 c 0,36,37
 62 410 62 410 38.5 433.5 c 128,-1,38
 15 457 15 457 15 496 c 256,39,40
 15 535 15 535 41.5 560.5 c 128,-1,41
 68 586 68 586 109 586 c 0,42,43
 156 586 156 586 184.5 558.5 c 128,-1,44
 213 531 213 531 213 481 c 2,45,-1
 213 123 l 1,46,47
 249 174 249 174 302 202.5 c 128,-1,48
 355 231 355 231 416 231 c 0,49,50
 443 231 443 231 475 226 c 1,51,52
 490 242 490 242 497 257 c 128,-1,53
 504 272 504 272 504 292 c 2,54,-1
 504 576 l 1,55,-1
 557 576 l 1,56,-1
 557 287 l 2,57,58
 557 264 557 264 548.5 246 c 128,-1,59
 540 228 540 228 523 211 c 1,60,0
 598 178 598 178 598 97 c 0,1,2
535.5 55.5 m 128,-1,62
 551 72 551 72 551 101 c 0,63,64
 551 157 551 157 487 179 c 1,65,66
 460 158 460 158 447 141.5 c 128,-1,67
 434 125 434 125 434 101 c 0,68,69
 434 73 434 73 449.5 56 c 128,-1,70
 465 39 465 39 492 39 c 0,71,61
 520 39 520 39 535.5 55.5 c 128,-1,62
EndSplineSet
EndChar

StartChar: uni0E1A
Encoding: 3610 3610 461
Width: 665
GlyphClass: 2
Flags: W
AnchorPoint: "Anchor-12" 585 550 basechar 0
AnchorPoint: "Anchor-11" 585 0 basechar 0
LayerCount: 2
Fore
SplineSet
190 48 m 0,1,2
 171 68 171 68 165 98.5 c 128,-1,3
 159 129 159 129 159 185 c 2,4,-1
 159 481 l 2,5,6
 159 511 159 511 146 528 c 128,-1,7
 133 545 133 545 107 545 c 0,8,9
 83 545 83 545 70 532 c 128,-1,10
 57 519 57 519 57 496 c 0,11,12
 57 472 57 472 71 459 c 128,-1,13
 85 446 85 446 108 446 c 2,14,-1
 132 446 l 1,15,16
 132 410 132 410 91 410 c 0,17,18
 62 410 62 410 38.5 433.5 c 128,-1,19
 15 457 15 457 15 496 c 256,20,21
 15 535 15 535 41.5 560.5 c 128,-1,22
 68 586 68 586 109 586 c 0,23,24
 156 586 156 586 184.5 558.5 c 128,-1,25
 213 531 213 531 213 481 c 2,26,-1
 213 187 l 2,27,28
 213 139 213 139 217 113 c 128,-1,29
 221 87 221 87 232 76 c 0,30,31
 252 57 252 57 288.5 46 c 128,-1,32
 325 35 325 35 373 35 c 0,33,34
 422 35 422 35 458.5 45.5 c 128,-1,35
 495 56 495 56 514 76 c 0,36,37
 526 88 526 88 529 109.5 c 128,-1,38
 532 131 532 131 532 178 c 2,39,-1
 532 576 l 1,40,-1
 585 576 l 1,41,-1
 585 185 l 2,42,43
 585 125 585 125 579 96.5 c 128,-1,44
 573 68 573 68 553 48 c 0,45,46
 495 -9 495 -9 373 -9 c 0,47,0
 246 -9 246 -9 190 48 c 0,1,2
EndSplineSet
EndChar

StartChar: uni0E1B
Encoding: 3611 3611 462
Width: 665
GlyphClass: 2
Flags: W
AnchorPoint: "Anchor-12" 458 550 basechar 0
AnchorPoint: "Anchor-11" 585 0 basechar 0
LayerCount: 2
Fore
SplineSet
190 48 m 0,1,2
 171 68 171 68 165 98.5 c 128,-1,3
 159 129 159 129 159 185 c 2,4,-1
 159 481 l 2,5,6
 159 511 159 511 146 528 c 128,-1,7
 133 545 133 545 107 545 c 0,8,9
 83 545 83 545 70 532 c 128,-1,10
 57 519 57 519 57 496 c 0,11,12
 57 472 57 472 71 459 c 128,-1,13
 85 446 85 446 108 446 c 2,14,-1
 132 446 l 1,15,16
 132 410 132 410 91 410 c 0,17,18
 62 410 62 410 38.5 433.5 c 128,-1,19
 15 457 15 457 15 496 c 256,20,21
 15 535 15 535 41.5 560.5 c 128,-1,22
 68 586 68 586 109 586 c 0,23,24
 156 586 156 586 184.5 558.5 c 128,-1,25
 213 531 213 531 213 481 c 2,26,-1
 213 187 l 2,27,28
 213 139 213 139 217 113 c 128,-1,29
 221 87 221 87 232 76 c 0,30,31
 252 57 252 57 288.5 46 c 128,-1,32
 325 35 325 35 373 35 c 0,33,34
 422 35 422 35 458.5 45.5 c 128,-1,35
 495 56 495 56 514 76 c 0,36,37
 526 88 526 88 529 109.5 c 128,-1,38
 532 131 532 131 532 178 c 2,39,-1
 532 783 l 1,40,-1
 585 783 l 1,41,-1
 585 185 l 2,42,43
 585 125 585 125 579 96.5 c 128,-1,44
 573 68 573 68 553 48 c 0,45,46
 495 -9 495 -9 373 -9 c 0,47,0
 246 -9 246 -9 190 48 c 0,1,2
EndSplineSet
EndChar

StartChar: uni0E1C
Encoding: 3612 3612 463
Width: 624
GlyphClass: 2
Flags: W
AnchorPoint: "Anchor-12" 540 550 basechar 0
AnchorPoint: "Anchor-11" 540 0 basechar 0
LayerCount: 2
Fore
SplineSet
543 49 m 2,1,-1
 544 22 l 2,2,3
 544 9 544 9 540.5 4.5 c 128,-1,4
 537 0 537 0 529 0 c 2,5,-1
 488 0 l 1,6,-1
 488 14 l 2,7,8
 488 63 488 63 436 131.5 c 128,-1,9
 384 200 384 200 312 259 c 1,10,11
 238 200 238 200 183 131.5 c 128,-1,12
 128 63 128 63 128 14 c 2,13,-1
 128 0 l 1,14,-1
 83 0 l 2,15,16
 70 0 70 0 70 11 c 2,17,-1
 72 42 l 2,18,19
 76 84 76 84 76 120 c 2,20,-1
 76 467 l 2,21,22
 76 522 76 522 108.5 554 c 128,-1,23
 141 586 141 586 191 586 c 0,24,25
 236 586 236 586 263.5 560 c 128,-1,26
 291 534 291 534 291 493 c 0,27,28
 291 451 291 451 265.5 427.5 c 128,-1,29
 240 404 240 404 202 404 c 0,30,31
 180 404 180 404 166.5 415.5 c 128,-1,32
 153 427 153 427 153 441 c 0,33,34
 153 447 153 447 154 450 c 1,35,36
 171 441 171 441 199 441 c 0,37,38
 223 441 223 441 236 455 c 128,-1,39
 249 469 249 469 249 493 c 0,40,41
 249 545 249 545 193 545 c 0,42,43
 163 545 163 545 146 525 c 128,-1,44
 129 505 129 505 129 466 c 2,45,-1
 130 130 l 1,46,47
 159 175 159 175 209.5 225.5 c 128,-1,48
 260 276 260 276 309 311 c 1,49,-1
 316 311 l 1,50,51
 364 279 364 279 411.5 229 c 128,-1,52
 459 179 459 179 487 133 c 1,53,-1
 487 576 l 1,54,-1
 540 576 l 1,55,-1
 540 132 l 2,56,0
 540 94 540 94 543 49 c 2,1,-1
EndSplineSet
EndChar

StartChar: uni0E1D
Encoding: 3613 3613 464
Width: 624
GlyphClass: 2
Flags: W
AnchorPoint: "Anchor-12" 417 550 basechar 0
AnchorPoint: "Anchor-11" 540 0 basechar 0
LayerCount: 2
Fore
SplineSet
543 49 m 2,1,-1
 544 22 l 2,2,3
 544 9 544 9 540.5 4.5 c 128,-1,4
 537 0 537 0 529 0 c 2,5,-1
 488 0 l 1,6,-1
 488 14 l 2,7,8
 488 63 488 63 436 131.5 c 128,-1,9
 384 200 384 200 312 259 c 1,10,11
 238 200 238 200 183 131.5 c 128,-1,12
 128 63 128 63 128 14 c 2,13,-1
 128 0 l 1,14,-1
 83 0 l 2,15,16
 70 0 70 0 70 11 c 2,17,-1
 72 42 l 2,18,19
 76 84 76 84 76 120 c 2,20,-1
 76 467 l 2,21,22
 76 522 76 522 108.5 554 c 128,-1,23
 141 586 141 586 191 586 c 0,24,25
 236 586 236 586 263.5 560 c 128,-1,26
 291 534 291 534 291 493 c 0,27,28
 291 451 291 451 265.5 427.5 c 128,-1,29
 240 404 240 404 202 404 c 0,30,31
 180 404 180 404 166.5 415.5 c 128,-1,32
 153 427 153 427 153 441 c 0,33,34
 153 447 153 447 154 450 c 1,35,36
 171 441 171 441 199 441 c 0,37,38
 223 441 223 441 236 455 c 128,-1,39
 249 469 249 469 249 493 c 0,40,41
 249 545 249 545 193 545 c 0,42,43
 163 545 163 545 146 525 c 128,-1,44
 129 505 129 505 129 466 c 2,45,-1
 130 130 l 1,46,47
 159 175 159 175 209.5 225.5 c 128,-1,48
 260 276 260 276 309 311 c 1,49,-1
 316 311 l 1,50,51
 364 279 364 279 411.5 229 c 128,-1,52
 459 179 459 179 487 133 c 1,53,-1
 487 783 l 1,54,-1
 540 783 l 1,55,-1
 540 132 l 2,56,0
 540 94 540 94 543 49 c 2,1,-1
EndSplineSet
EndChar

StartChar: uni0E1E
Encoding: 3614 3614 465
Width: 719
GlyphClass: 2
Flags: W
AnchorPoint: "Anchor-12" 634 550 basechar 0
AnchorPoint: "Anchor-11" 634 0 basechar 0
LayerCount: 2
Fore
SplineSet
639 11 m 0,1,2
 639 4 639 4 636 2 c 128,-1,3
 633 0 633 0 628 0 c 2,4,-1
 582 0 l 1,5,-1
 582 14 l 2,6,7
 582 74 582 74 526.5 201 c 128,-1,8
 471 328 471 328 406 445 c 1,9,10
 342 331 342 331 286 202.5 c 128,-1,11
 230 74 230 74 230 14 c 2,12,-1
 230 0 l 1,13,-1
 182 0 l 2,14,15
 177 0 177 0 174 2 c 128,-1,16
 171 4 171 4 171 11 c 0,17,18
 171 16 171 16 172 20 c 0,19,20
 177 43 177 43 178 70 c 128,-1,21
 179 97 179 97 179 190 c 2,22,-1
 179 481 l 2,23,24
 179 511 179 511 166 528 c 128,-1,25
 153 545 153 545 127 545 c 0,26,27
 103 545 103 545 90 532 c 128,-1,28
 77 519 77 519 77 496 c 0,29,30
 77 472 77 472 91 459 c 128,-1,31
 105 446 105 446 128 446 c 2,32,-1
 152 446 l 1,33,34
 152 410 152 410 111 410 c 0,35,36
 82 410 82 410 58.5 433.5 c 128,-1,37
 35 457 35 457 35 496 c 256,38,39
 35 535 35 535 61.5 560.5 c 128,-1,40
 88 586 88 586 129 586 c 0,41,42
 176 586 176 586 204.5 558.5 c 128,-1,43
 233 531 233 531 233 481 c 2,44,-1
 233 190 l 1,45,46
 280 322 280 322 398 525 c 1,47,-1
 414 525 l 1,48,49
 459 451 459 451 506.5 357.5 c 128,-1,50
 554 264 554 264 581 188 c 1,51,-1
 581 576 l 1,52,-1
 634 576 l 1,53,-1
 634 190 l 1,54,-1
 634 137 l 2,55,56
 634 41 634 41 638 20 c 0,57,0
 639 16 639 16 639 11 c 0,1,2
EndSplineSet
EndChar

StartChar: uni0E1F
Encoding: 3615 3615 466
Width: 719
GlyphClass: 2
Flags: W
AnchorPoint: "Anchor-12" 511 550 basechar 0
AnchorPoint: "Anchor-11" 634 0 basechar 0
LayerCount: 2
Fore
SplineSet
639 11 m 0,1,2
 639 4 639 4 636 2 c 128,-1,3
 633 0 633 0 628 0 c 2,4,-1
 582 0 l 1,5,-1
 582 14 l 2,6,7
 582 74 582 74 526.5 201 c 128,-1,8
 471 328 471 328 406 445 c 1,9,10
 342 331 342 331 286 202.5 c 128,-1,11
 230 74 230 74 230 14 c 2,12,-1
 230 0 l 1,13,-1
 182 0 l 2,14,15
 177 0 177 0 174 2 c 128,-1,16
 171 4 171 4 171 11 c 0,17,18
 171 16 171 16 172 20 c 0,19,20
 177 43 177 43 178 70 c 128,-1,21
 179 97 179 97 179 190 c 2,22,-1
 179 481 l 2,23,24
 179 511 179 511 166 528 c 128,-1,25
 153 545 153 545 127 545 c 0,26,27
 103 545 103 545 90 532 c 128,-1,28
 77 519 77 519 77 496 c 0,29,30
 77 472 77 472 91 459 c 128,-1,31
 105 446 105 446 128 446 c 2,32,-1
 152 446 l 1,33,34
 152 410 152 410 111 410 c 0,35,36
 82 410 82 410 58.5 433.5 c 128,-1,37
 35 457 35 457 35 496 c 256,38,39
 35 535 35 535 61.5 560.5 c 128,-1,40
 88 586 88 586 129 586 c 0,41,42
 176 586 176 586 204.5 558.5 c 128,-1,43
 233 531 233 531 233 481 c 2,44,-1
 233 190 l 1,45,46
 280 322 280 322 398 525 c 1,47,-1
 414 525 l 1,48,49
 459 451 459 451 506.5 357.5 c 128,-1,50
 554 264 554 264 581 188 c 1,51,-1
 581 783 l 1,52,-1
 634 783 l 1,53,-1
 634 190 l 1,54,-1
 634 137 l 2,55,56
 634 41 634 41 638 20 c 0,57,0
 639 16 639 16 639 11 c 0,1,2
EndSplineSet
EndChar

StartChar: uni0E20
Encoding: 3616 3616 467
Width: 630
GlyphClass: 2
Flags: W
AnchorPoint: "Anchor-12" 550 550 basechar 0
AnchorPoint: "Anchor-11" 550 0 basechar 0
LayerCount: 2
Fore
SplineSet
484 534.5 m 128,-1,1
 550 483 550 483 550 366 c 2,2,-1
 550 0 l 1,3,-1
 497 0 l 1,4,-1
 497 366 l 2,5,6
 497 466 497 466 448.5 504.5 c 128,-1,7
 400 543 400 543 314 543 c 0,8,9
 261 543 261 543 216.5 529 c 128,-1,10
 172 515 172 515 146 494 c 128,-1,11
 120 473 120 473 120 453 c 0,12,13
 120 436 120 436 136 421.5 c 128,-1,14
 152 407 152 407 172 397.5 c 128,-1,15
 192 388 192 388 200 388 c 0,16,17
 209 388 209 388 228 395 c 0,18,19
 250 403 250 403 260 403 c 0,20,21
 267 403 267 403 273.5 392.5 c 128,-1,22
 280 382 280 382 282 371 c 128,-1,23
 284 360 284 360 279 360 c 0,24,25
 232 360 232 360 208.5 338 c 128,-1,26
 185 316 185 316 185 268 c 0,27,28
 185 236 185 236 190 207 c 128,-1,29
 195 178 195 178 196 173 c 0,30,31
 206 119 206 119 206 89 c 0,32,33
 206 45 206 45 179.5 18.5 c 128,-1,34
 153 -8 153 -8 107 -8 c 0,35,36
 67 -8 67 -8 41.5 17 c 128,-1,37
 16 42 16 42 16 80 c 0,38,39
 16 117 16 117 39 139 c 128,-1,40
 62 161 62 161 90 161 c 0,41,42
 107 161 107 161 117.5 152.5 c 128,-1,43
 128 144 128 144 128 129 c 1,44,-1
 109 129 l 2,45,46
 84 129 84 129 70.5 116 c 128,-1,47
 57 103 57 103 57 80 c 0,48,49
 57 59 57 59 70.5 45.5 c 128,-1,50
 84 32 84 32 107 32 c 0,51,52
 131 32 131 32 144.5 47.5 c 128,-1,53
 158 63 158 63 158 90 c 0,54,55
 158 118 158 118 152 146.5 c 128,-1,56
 146 175 146 175 145 180 c 0,57,58
 138 209 138 209 134.5 229 c 128,-1,59
 131 249 131 249 131 270 c 0,60,61
 131 325 131 325 163 355 c 1,62,63
 126 367 126 367 95.5 394.5 c 128,-1,64
 65 422 65 422 65 450 c 0,65,66
 65 480 65 480 97.5 512 c 128,-1,67
 130 544 130 544 187 565 c 128,-1,68
 244 586 244 586 314 586 c 0,69,0
 418 586 418 586 484 534.5 c 128,-1,1
EndSplineSet
EndChar

StartChar: uni0E21
Encoding: 3617 3617 468
Width: 657
GlyphClass: 2
Flags: W
AnchorPoint: "Anchor-12" 560 550 basechar 0
AnchorPoint: "Anchor-11" 560 0 basechar 0
LayerCount: 2
Fore
SplineSet
562 58 m 128,-1,1
 564 27 564 27 564 19 c 0,2,3
 564 0 564 0 550 0 c 2,4,-1
 509 0 l 1,5,6
 483 99 483 99 416 153.5 c 128,-1,7
 349 208 349 208 254 214 c 1,8,-1
 255 168 l 2,9,10
 257 123 257 123 256 106 c 0,11,12
 255 47 255 47 232.5 19 c 128,-1,13
 210 -9 210 -9 166 -9 c 0,14,15
 124 -9 124 -9 97 23 c 128,-1,16
 70 55 70 55 70 108 c 0,17,18
 70 171 70 171 107 209 c 128,-1,19
 144 247 144 247 200 255 c 1,20,21
 199 275 199 275 199 300 c 2,22,-1
 199 481 l 2,23,24
 199 511 199 511 186 528 c 128,-1,25
 173 545 173 545 147 545 c 0,26,27
 123 545 123 545 110 532 c 128,-1,28
 97 519 97 519 97 496 c 0,29,30
 97 472 97 472 111 459 c 128,-1,31
 125 446 125 446 148 446 c 2,32,-1
 172 446 l 1,33,34
 172 410 172 410 131 410 c 0,35,36
 102 410 102 410 78.5 433.5 c 128,-1,37
 55 457 55 457 55 496 c 256,38,39
 55 535 55 535 81.5 560.5 c 128,-1,40
 108 586 108 586 149 586 c 0,41,42
 196 586 196 586 224.5 558.5 c 128,-1,43
 253 531 253 531 253 481 c 2,44,-1
 253 257 l 1,45,46
 332 257 332 257 399.5 220.5 c 128,-1,47
 467 184 467 184 507 120 c 1,48,-1
 507 576 l 1,49,-1
 560 576 l 1,50,-1
 560 131 l 2,51,0
 560 89 560 89 562 58 c 128,-1,1
195 51 m 128,-1,53
 204 67 204 67 204 107 c 0,54,55
 204 131 204 131 202 179 c 2,56,-1
 201 211 l 1,57,58
 119 196 119 196 119 111 c 0,59,60
 119 75 119 75 131 55 c 128,-1,61
 143 35 143 35 165 35 c 0,62,52
 186 35 186 35 195 51 c 128,-1,53
EndSplineSet
EndChar

StartChar: uni0E22
Encoding: 3618 3618 469
Width: 610
GlyphClass: 2
Flags: W
AnchorPoint: "Anchor-12" 529 550 basechar 0
AnchorPoint: "Anchor-11" 529 0 basechar 0
LayerCount: 2
Fore
SplineSet
530 193 m 2,0,1
 530 138 530 138 523 105 c 128,-1,2
 516 72 516 72 494 50 c 0,3,4
 462 18 462 18 411.5 4.5 c 128,-1,5
 361 -9 361 -9 309 -9 c 0,6,7
 256 -9 256 -9 204 4 c 128,-1,8
 152 17 152 17 121 49 c 0,9,10
 99 71 99 71 89 99.5 c 128,-1,11
 79 128 79 128 79 172 c 2,12,-1
 79 181 l 2,13,14
 79 228 79 228 100.5 258.5 c 128,-1,15
 122 289 122 289 153 303 c 1,16,17
 119 318 119 318 94.5 354 c 128,-1,18
 70 390 70 390 70 446 c 0,19,20
 70 486 70 486 88 518 c 128,-1,21
 106 550 106 550 136.5 568 c 128,-1,22
 167 586 167 586 203 586 c 0,23,24
 250 586 250 586 277 561 c 128,-1,25
 304 536 304 536 304 496 c 0,26,27
 304 457 304 457 280 433.5 c 128,-1,28
 256 410 256 410 219 410 c 0,29,30
 193 410 193 410 175 423.5 c 128,-1,31
 157 437 157 437 157 455 c 0,32,33
 157 461 157 461 158 464 c 1,34,35
 182 446 182 446 210 446 c 0,36,37
 234 446 234 446 247 459 c 128,-1,38
 260 472 260 472 260 495 c 0,39,40
 260 519 260 519 246.5 532 c 128,-1,41
 233 545 233 545 206 545 c 0,42,43
 168 545 168 545 146 519.5 c 128,-1,44
 124 494 124 494 124 444 c 0,45,46
 124 375 124 375 168 344.5 c 128,-1,47
 212 314 212 314 316 314 c 0,48,49
 321 314 321 314 321 307 c 0,50,51
 321 296 321 296 313 282.5 c 128,-1,52
 305 269 305 269 297 269 c 0,53,54
 285 269 285 269 257 275 c 0,55,56
 227 281 227 281 210 281 c 0,57,58
 177 281 177 281 155 255 c 128,-1,59
 133 229 133 229 133 184 c 2,60,-1
 133 171 l 2,61,62
 133 136 133 136 139 115.5 c 128,-1,63
 145 95 145 95 160 79 c 0,64,65
 179 59 179 59 218.5 47.5 c 128,-1,66
 258 36 258 36 309 36 c 0,67,68
 359 36 359 36 396 48 c 128,-1,69
 433 60 433 60 453 81 c 0,70,71
 467 97 467 97 472 123.5 c 128,-1,72
 477 150 477 150 477 195 c 2,73,-1
 476 284 l 1,74,-1
 476 576 l 1,75,-1
 529 576 l 1,76,-1
 529 284 l 1,77,-1
 530 193 l 2,0,1
EndSplineSet
EndChar

StartChar: uni0E23
Encoding: 3619 3619 470
Width: 508
GlyphClass: 2
Flags: W
AnchorPoint: "Anchor-12" 430 550 basechar 0
AnchorPoint: "Anchor-11" 411 0 basechar 0
LayerCount: 2
Fore
SplineSet
218 20 m 128,-1,1
 188 49 188 49 188 91 c 0,2,3
 188 134 188 134 215 160.5 c 128,-1,4
 242 187 242 187 283 187 c 0,5,6
 307 187 307 187 318.5 175.5 c 128,-1,7
 330 164 330 164 329 146 c 1,8,9
 309 149 309 149 289 149 c 0,10,11
 263 149 263 149 247.5 133.5 c 128,-1,12
 232 118 232 118 232 91 c 0,13,14
 232 65 232 65 248.5 49.5 c 128,-1,15
 265 34 265 34 291 34 c 0,16,17
 362 34 362 34 362 131 c 2,18,-1
 362 207 l 2,19,20
 362 266 362 266 344 293 c 128,-1,21
 326 320 326 320 280 331 c 0,22,23
 232 343 232 343 152 343 c 2,24,-1
 80 342 l 1,25,26
 64 357 64 357 53.5 385 c 128,-1,27
 43 413 43 413 43 441 c 0,28,29
 43 507 43 507 85.5 544.5 c 128,-1,30
 128 582 128 582 190 582 c 0,31,32
 213 582 213 582 281 575 c 0,33,34
 329 569 329 569 347 569 c 0,35,36
 412 569 412 569 446 592 c 1,37,38
 452 589 452 589 456.5 581 c 128,-1,39
 461 573 461 573 461 565 c 0,40,41
 461 544 461 544 431 532.5 c 128,-1,42
 401 521 401 521 357 521 c 0,43,44
 332 521 332 521 278 529 c 0,45,46
 228 538 228 538 190 538 c 0,47,48
 145 538 145 538 121 514 c 128,-1,49
 97 490 97 490 97 442 c 0,50,51
 97 409 97 409 112 387 c 1,52,-1
 132 387 l 2,53,54
 237 387 237 387 295 374 c 0,55,56
 354 361 354 361 384.5 323 c 128,-1,57
 415 285 415 285 415 210 c 2,58,-1
 415 131 l 2,59,60
 415 64 415 64 381 27.5 c 128,-1,61
 347 -9 347 -9 291 -9 c 0,62,0
 248 -9 248 -9 218 20 c 128,-1,1
EndSplineSet
EndChar

StartChar: uni0E24
Encoding: 3620 3620 471
Width: 615
GlyphClass: 2
Flags: W
AnchorPoint: "Anchor-12" 535 550 basechar 0
AnchorPoint: "Anchor-11" 535 -220 basechar 0
LayerCount: 2
Fore
SplineSet
482 383 m 2,0,1
 482 462 482 462 432 502.5 c 128,-1,2
 382 543 382 543 298 543 c 0,3,4
 245 543 245 543 201.5 527 c 128,-1,5
 158 511 158 511 133 487 c 128,-1,6
 108 463 108 463 108 443 c 256,7,8
 108 423 108 423 134.5 406.5 c 128,-1,9
 161 390 161 390 185 390 c 0,10,11
 196 390 196 390 218 396 c 0,12,13
 233 401 233 401 244 401 c 0,14,15
 251 401 251 401 259.5 387 c 128,-1,16
 268 373 268 373 268 363 c 0,17,18
 268 357 268 357 263 357 c 0,19,20
 195 357 195 357 170.5 323.5 c 128,-1,21
 146 290 146 290 146 221 c 2,22,-1
 146 114 l 2,23,24
 146 75 146 75 163 54.5 c 128,-1,25
 180 34 180 34 209 34 c 0,26,27
 235 34 235 34 249 48 c 128,-1,28
 263 62 263 62 263 87 c 0,29,30
 263 110 263 110 249.5 123.5 c 128,-1,31
 236 137 236 137 213 137 c 0,32,33
 194 137 194 137 170 129 c 1,34,35
 167 135 167 135 167 140 c 0,36,37
 167 154 167 154 180.5 164 c 128,-1,38
 194 174 194 174 217 174 c 0,39,40
 254 174 254 174 279.5 152 c 128,-1,41
 305 130 305 130 305 87 c 0,42,43
 305 45 305 45 277.5 19 c 128,-1,44
 250 -7 250 -7 206 -7 c 0,45,46
 153 -7 153 -7 122.5 26 c 128,-1,47
 92 59 92 59 92 113 c 2,48,-1
 92 221 l 2,49,50
 92 271 92 271 103.5 303.5 c 128,-1,51
 115 336 115 336 139 357 c 1,52,53
 109 367 109 367 82 391 c 128,-1,54
 55 415 55 415 55 440 c 0,55,56
 55 472 55 472 86 506 c 128,-1,57
 117 540 117 540 172.5 563 c 128,-1,58
 228 586 228 586 298 586 c 0,59,60
 400 586 400 586 467.5 535 c 128,-1,61
 535 484 535 484 535 383 c 2,62,-1
 535 -220 l 1,63,-1
 482 -220 l 1,64,-1
 482 383 l 2,0,1
EndSplineSet
Substitution2: "Single Substitution lookup 14 subtable" uni0E24.short
Substitution2: "'aalt' Access All Alternates lookup 0 subtable" uni0E24.short
EndChar

StartChar: uni0E24.short
Encoding: 65543 -1 472
Width: 615
GlyphClass: 2
Flags: W
AnchorPoint: "Anchor-12" 535 550 basechar 0
AnchorPoint: "Anchor-11" 535 -160 basechar 0
LayerCount: 2
Fore
SplineSet
482 383 m 2,0,1
 482 462 482 462 432 502.5 c 128,-1,2
 382 543 382 543 298 543 c 0,3,4
 245 543 245 543 201.5 527 c 128,-1,5
 158 511 158 511 133 487 c 128,-1,6
 108 463 108 463 108 443 c 256,7,8
 108 423 108 423 134.5 406.5 c 128,-1,9
 161 390 161 390 185 390 c 0,10,11
 196 390 196 390 218 396 c 0,12,13
 233 401 233 401 244 401 c 0,14,15
 251 401 251 401 259.5 387 c 128,-1,16
 268 373 268 373 268 363 c 0,17,18
 268 357 268 357 263 357 c 0,19,20
 195 357 195 357 170.5 323.5 c 128,-1,21
 146 290 146 290 146 221 c 2,22,-1
 146 114 l 2,23,24
 146 75 146 75 163 54.5 c 128,-1,25
 180 34 180 34 209 34 c 0,26,27
 235 34 235 34 249 48 c 128,-1,28
 263 62 263 62 263 87 c 0,29,30
 263 110 263 110 249.5 123.5 c 128,-1,31
 236 137 236 137 213 137 c 0,32,33
 194 137 194 137 170 129 c 1,34,35
 167 135 167 135 167 140 c 0,36,37
 167 154 167 154 180.5 164 c 128,-1,38
 194 174 194 174 217 174 c 0,39,40
 254 174 254 174 279.5 152 c 128,-1,41
 305 130 305 130 305 87 c 0,42,43
 305 45 305 45 277.5 19 c 128,-1,44
 250 -7 250 -7 206 -7 c 0,45,46
 153 -7 153 -7 122.5 26 c 128,-1,47
 92 59 92 59 92 113 c 2,48,-1
 92 221 l 2,49,50
 92 271 92 271 103.5 303.5 c 128,-1,51
 115 336 115 336 139 357 c 1,52,53
 109 367 109 367 82 391 c 128,-1,54
 55 415 55 415 55 440 c 0,55,56
 55 472 55 472 86 506 c 128,-1,57
 117 540 117 540 172.5 563 c 128,-1,58
 228 586 228 586 298 586 c 0,59,60
 400 586 400 586 467.5 535 c 128,-1,61
 535 484 535 484 535 383 c 2,62,-1
 535 -160 l 1,63,-1
 482 -160 l 1,64,-1
 482 383 l 2,0,1
EndSplineSet
EndChar

StartChar: uni0E25
Encoding: 3621 3621 473
Width: 618
GlyphClass: 2
Flags: W
AnchorPoint: "Anchor-12" 525 550 basechar 0
AnchorPoint: "Anchor-11" 525 0 basechar 0
LayerCount: 2
Fore
SplineSet
529 283 m 0,1,2
 523 213 523 213 523 177 c 0,3,4
 523 127 523 127 529 61 c 0,5,6
 532 31 532 31 532 15 c 0,7,8
 532 0 532 0 521 0 c 2,9,-1
 475 0 l 1,10,11
 475 161 475 161 421.5 244.5 c 128,-1,12
 368 328 368 328 275 328 c 0,13,14
 210 328 210 328 173 284.5 c 128,-1,15
 136 241 136 241 136 166 c 0,16,17
 136 98 136 98 157 65 c 128,-1,18
 178 32 178 32 214 32 c 0,19,20
 240 32 240 32 253.5 46 c 128,-1,21
 267 60 267 60 267 83 c 0,22,23
 267 105 267 105 254.5 117.5 c 128,-1,24
 242 130 242 130 218 130 c 0,25,26
 201 130 201 130 189 123 c 128,-1,27
 177 116 177 116 165 103 c 1,28,29
 162 109 162 109 162 119 c 0,30,31
 162 137 162 137 180 152 c 128,-1,32
 198 167 198 167 226 167 c 0,33,34
 263 167 263 167 286 143 c 128,-1,35
 309 119 309 119 309 82 c 0,36,37
 309 41 309 41 283 16 c 128,-1,38
 257 -9 257 -9 213 -9 c 0,39,40
 155 -9 155 -9 119.5 35.5 c 128,-1,41
 84 80 84 80 84 166 c 0,42,43
 84 231 84 231 109 278 c 128,-1,44
 134 325 134 325 177.5 349 c 128,-1,45
 221 373 221 373 276 373 c 0,46,47
 345 373 345 373 396.5 337 c 128,-1,48
 448 301 448 301 476 238 c 1,49,50
 482 333 482 333 481 390 c 0,51,52
 480 461 480 461 436.5 501 c 128,-1,53
 393 541 393 541 314 541 c 0,54,55
 250 541 250 541 205 518 c 128,-1,56
 160 495 160 495 118 453 c 0,57,58
 111 446 111 446 103 446 c 0,59,60
 94 446 94 446 84 454 c 128,-1,61
 74 462 74 462 68 475 c 1,62,63
 103 521 103 521 166 553.5 c 128,-1,64
 229 586 229 586 315 586 c 0,65,66
 417 586 417 586 476 536 c 128,-1,67
 535 486 535 486 535 397 c 0,68,0
 535 357 535 357 529 283 c 0,1,2
EndSplineSet
EndChar

StartChar: uni0E26
Encoding: 3622 3622 474
Width: 630
GlyphClass: 2
Flags: W
AnchorPoint: "Anchor-12" 550 550 basechar 0
AnchorPoint: "Anchor-11" 550 -220 basechar 0
LayerCount: 2
Fore
SplineSet
497 366 m 2,0,1
 497 466 497 466 448.5 504.5 c 128,-1,2
 400 543 400 543 314 543 c 0,3,4
 261 543 261 543 216.5 529 c 128,-1,5
 172 515 172 515 146 494 c 128,-1,6
 120 473 120 473 120 453 c 0,7,8
 120 436 120 436 136 421.5 c 128,-1,9
 152 407 152 407 172 397.5 c 128,-1,10
 192 388 192 388 200 388 c 0,11,12
 209 388 209 388 228 395 c 0,13,14
 250 403 250 403 260 403 c 0,15,16
 267 403 267 403 273.5 392.5 c 128,-1,17
 280 382 280 382 282 371 c 128,-1,18
 284 360 284 360 279 360 c 0,19,20
 232 360 232 360 208.5 338 c 128,-1,21
 185 316 185 316 185 268 c 0,22,23
 185 236 185 236 190 207 c 128,-1,24
 195 178 195 178 196 173 c 0,25,26
 206 119 206 119 206 89 c 0,27,28
 206 45 206 45 179.5 18.5 c 128,-1,29
 153 -8 153 -8 107 -8 c 0,30,31
 67 -8 67 -8 41.5 17 c 128,-1,32
 16 42 16 42 16 80 c 0,33,34
 16 117 16 117 39 139 c 128,-1,35
 62 161 62 161 90 161 c 0,36,37
 107 161 107 161 117.5 152.5 c 128,-1,38
 128 144 128 144 128 129 c 1,39,-1
 109 129 l 2,40,41
 84 129 84 129 70.5 116 c 128,-1,42
 57 103 57 103 57 80 c 0,43,44
 57 59 57 59 70.5 45.5 c 128,-1,45
 84 32 84 32 107 32 c 0,46,47
 131 32 131 32 144.5 47.5 c 128,-1,48
 158 63 158 63 158 90 c 0,49,50
 158 118 158 118 152 146.5 c 128,-1,51
 146 175 146 175 145 180 c 0,52,53
 138 209 138 209 134.5 229 c 128,-1,54
 131 249 131 249 131 270 c 0,55,56
 131 325 131 325 163 355 c 1,57,58
 126 367 126 367 95.5 394.5 c 128,-1,59
 65 422 65 422 65 450 c 0,60,61
 65 480 65 480 97.5 512 c 128,-1,62
 130 544 130 544 187 565 c 128,-1,63
 244 586 244 586 314 586 c 0,64,65
 418 586 418 586 484 534.5 c 128,-1,66
 550 483 550 483 550 366 c 2,67,-1
 550 -220 l 1,68,-1
 497 -220 l 1,69,-1
 497 366 l 2,0,1
EndSplineSet
Substitution2: "Single Substitution lookup 14 subtable" uni0E26.short
Substitution2: "'aalt' Access All Alternates lookup 0 subtable" uni0E26.short
EndChar

StartChar: uni0E26.short
Encoding: 65544 -1 475
Width: 630
GlyphClass: 2
Flags: W
AnchorPoint: "Anchor-12" 550 550 basechar 0
AnchorPoint: "Anchor-11" 550 -160 basechar 0
LayerCount: 2
Fore
SplineSet
497 366 m 2,0,1
 497 466 497 466 448.5 504.5 c 128,-1,2
 400 543 400 543 314 543 c 0,3,4
 261 543 261 543 216.5 529 c 128,-1,5
 172 515 172 515 146 494 c 128,-1,6
 120 473 120 473 120 453 c 0,7,8
 120 436 120 436 136 421.5 c 128,-1,9
 152 407 152 407 172 397.5 c 128,-1,10
 192 388 192 388 200 388 c 0,11,12
 209 388 209 388 228 395 c 0,13,14
 250 403 250 403 260 403 c 0,15,16
 267 403 267 403 273.5 392.5 c 128,-1,17
 280 382 280 382 282 371 c 128,-1,18
 284 360 284 360 279 360 c 0,19,20
 232 360 232 360 208.5 338 c 128,-1,21
 185 316 185 316 185 268 c 0,22,23
 185 236 185 236 190 207 c 128,-1,24
 195 178 195 178 196 173 c 0,25,26
 206 119 206 119 206 89 c 0,27,28
 206 45 206 45 179.5 18.5 c 128,-1,29
 153 -8 153 -8 107 -8 c 0,30,31
 67 -8 67 -8 41.5 17 c 128,-1,32
 16 42 16 42 16 80 c 0,33,34
 16 117 16 117 39 139 c 128,-1,35
 62 161 62 161 90 161 c 0,36,37
 107 161 107 161 117.5 152.5 c 128,-1,38
 128 144 128 144 128 129 c 1,39,-1
 109 129 l 2,40,41
 84 129 84 129 70.5 116 c 128,-1,42
 57 103 57 103 57 80 c 0,43,44
 57 59 57 59 70.5 45.5 c 128,-1,45
 84 32 84 32 107 32 c 0,46,47
 131 32 131 32 144.5 47.5 c 128,-1,48
 158 63 158 63 158 90 c 0,49,50
 158 118 158 118 152 146.5 c 128,-1,51
 146 175 146 175 145 180 c 0,52,53
 138 209 138 209 134.5 229 c 128,-1,54
 131 249 131 249 131 270 c 0,55,56
 131 325 131 325 163 355 c 1,57,58
 126 367 126 367 95.5 394.5 c 128,-1,59
 65 422 65 422 65 450 c 0,60,61
 65 480 65 480 97.5 512 c 128,-1,62
 130 544 130 544 187 565 c 128,-1,63
 244 586 244 586 314 586 c 0,64,65
 418 586 418 586 484 534.5 c 128,-1,66
 550 483 550 483 550 366 c 2,67,-1
 550 -160 l 1,68,-1
 497 -160 l 1,69,-1
 497 366 l 2,0,1
EndSplineSet
EndChar

StartChar: uni0E27
Encoding: 3623 3623 476
Width: 528
GlyphClass: 2
Flags: W
AnchorPoint: "Anchor-12" 443 550 basechar 0
AnchorPoint: "Anchor-11" 443 0 basechar 0
LayerCount: 2
Fore
SplineSet
248 18 m 128,-1,1
 218 46 218 46 218 89 c 0,2,3
 218 131 218 131 245.5 157.5 c 128,-1,4
 273 184 273 184 312 184 c 0,5,6
 336 184 336 184 348.5 174 c 128,-1,7
 361 164 361 164 361 150 c 0,8,9
 361 147 361 147 359 141 c 1,10,11
 345 147 345 147 318 147 c 0,12,13
 293 147 293 147 278 131.5 c 128,-1,14
 263 116 263 116 263 90 c 0,15,16
 263 65 263 65 279 49.5 c 128,-1,17
 295 34 295 34 321 34 c 0,18,19
 356 34 356 34 374 56.5 c 128,-1,20
 392 79 392 79 392 123 c 2,21,-1
 392 387 l 2,22,23
 392 460 392 460 353.5 501 c 128,-1,24
 315 542 315 542 245 542 c 0,25,26
 187 542 187 542 149 518.5 c 128,-1,27
 111 495 111 495 80 450 c 0,28,29
 76 444 76 444 69 444 c 0,30,31
 61 444 61 444 48.5 452 c 128,-1,32
 36 460 36 460 29 470 c 1,33,34
 58 519 58 519 112.5 552.5 c 128,-1,35
 167 586 167 586 245 586 c 0,36,37
 339 586 339 586 391 534 c 128,-1,38
 443 482 443 482 443 384 c 2,39,-1
 443 124 l 2,40,41
 443 62 443 62 409 26 c 128,-1,42
 375 -10 375 -10 321 -10 c 0,43,0
 278 -10 278 -10 248 18 c 128,-1,1
EndSplineSet
EndChar

StartChar: uni0E28
Encoding: 3624 3624 477
Width: 609
GlyphClass: 2
Flags: W
AnchorPoint: "Anchor-12" 544 550 basechar 0
AnchorPoint: "Anchor-11" 544 0 basechar 0
LayerCount: 2
Fore
SplineSet
556.5 545 m 128,-1,1
 530 524 530 524 498 512 c 1,2,3
 544 455 544 455 544 361 c 2,4,-1
 544 0 l 1,5,-1
 491 0 l 1,6,-1
 491 356 l 2,7,8
 491 452 491 452 446 497 c 128,-1,9
 401 542 401 542 314 542 c 0,10,11
 226 542 226 542 176 496 c 128,-1,12
 126 450 126 450 126 356 c 0,13,14
 126 289 126 289 149 240 c 1,15,16
 175 305 175 305 217 344.5 c 128,-1,17
 259 384 259 384 319 384 c 0,18,19
 362 384 362 384 390.5 357.5 c 128,-1,20
 419 331 419 331 419 289 c 256,21,22
 419 247 419 247 392.5 221.5 c 128,-1,23
 366 196 366 196 324 196 c 0,24,25
 293 196 293 196 272 212.5 c 128,-1,26
 251 229 251 229 251 256 c 0,27,28
 251 277 251 277 267 283 c 1,29,30
 275 258 275 258 288 246 c 128,-1,31
 301 234 301 234 324 234 c 0,32,33
 350 234 350 234 363.5 248.5 c 128,-1,34
 377 263 377 263 377 289 c 256,35,36
 377 315 377 315 361.5 329 c 128,-1,37
 346 343 346 343 317 343 c 0,38,39
 271 343 271 343 234 298 c 128,-1,40
 197 253 197 253 175.5 174.5 c 128,-1,41
 154 96 154 96 152 0 c 1,42,-1
 113 0 l 2,43,44
 98 0 98 0 98 20 c 0,45,46
 98 64 98 64 117 142 c 0,47,48
 123 172 123 172 123 173 c 0,49,50
 123 178 123 178 112 202 c 0,51,52
 94 237 94 237 83 272 c 128,-1,53
 72 307 72 307 72 356 c 0,54,55
 72 429 72 429 103 480.5 c 128,-1,56
 134 532 134 532 189 559 c 128,-1,57
 244 586 244 586 314 586 c 0,58,59
 405 586 405 586 463 546 c 1,60,61
 515 564 515 564 543 618 c 1,62,63
 561 616 561 616 572 606.5 c 128,-1,64
 583 597 583 597 583 586 c 0,65,0
 583 566 583 566 556.5 545 c 128,-1,1
EndSplineSet
EndChar

StartChar: uni0E29
Encoding: 3625 3625 478
Width: 665
GlyphClass: 2
Flags: W
AnchorPoint: "Anchor-12" 585 550 basechar 0
AnchorPoint: "Anchor-11" 585 0 basechar 0
LayerCount: 2
Fore
SplineSet
585 576 m 1,0,-1
 585 185 l 2,1,2
 585 125 585 125 579 96.5 c 128,-1,3
 573 68 573 68 553 48 c 0,4,5
 495 -9 495 -9 373 -9 c 0,6,7
 246 -9 246 -9 190 48 c 0,8,9
 171 68 171 68 165 98.5 c 128,-1,10
 159 129 159 129 159 185 c 2,11,-1
 159 481 l 2,12,13
 159 511 159 511 146 528 c 128,-1,14
 133 545 133 545 107 545 c 0,15,16
 83 545 83 545 70 532 c 128,-1,17
 57 519 57 519 57 496 c 0,18,19
 57 472 57 472 71 459 c 128,-1,20
 85 446 85 446 108 446 c 2,21,-1
 132 446 l 1,22,23
 132 410 132 410 91 410 c 0,24,25
 62 410 62 410 38.5 433.5 c 128,-1,26
 15 457 15 457 15 496 c 256,27,28
 15 535 15 535 41.5 560.5 c 128,-1,29
 68 586 68 586 109 586 c 0,30,31
 156 586 156 586 184.5 558.5 c 128,-1,32
 213 531 213 531 213 481 c 2,33,-1
 213 187 l 2,34,35
 213 139 213 139 217 113 c 128,-1,36
 221 87 221 87 232 76 c 0,37,38
 252 57 252 57 288.5 46 c 128,-1,39
 325 35 325 35 373 35 c 0,40,41
 422 35 422 35 458.5 45.5 c 128,-1,42
 495 56 495 56 514 76 c 0,43,44
 526 88 526 88 529 109.5 c 128,-1,45
 532 131 532 131 532 178 c 2,46,-1
 532 242 l 1,47,48
 514 217 514 217 482.5 201.5 c 128,-1,49
 451 186 451 186 412 186 c 0,50,51
 358 186 358 186 321.5 215 c 128,-1,52
 285 244 285 244 285 293 c 0,53,54
 285 327 285 327 309.5 349 c 128,-1,55
 334 371 334 371 367 371 c 0,56,57
 399 371 399 371 420 353 c 128,-1,58
 441 335 441 335 441 303 c 0,59,60
 441 280 441 280 428.5 265.5 c 128,-1,61
 416 251 416 251 398 251 c 0,62,63
 390 251 390 251 382 255 c 1,64,65
 404 270 404 270 404 296 c 0,66,67
 404 312 404 312 394 322.5 c 128,-1,68
 384 333 384 333 368 333 c 0,69,70
 350 333 350 333 338 323 c 128,-1,71
 326 313 326 313 326 294 c 0,72,73
 326 262 326 262 350.5 244 c 128,-1,74
 375 226 375 226 415 226 c 0,75,76
 460 226 460 226 491.5 250.5 c 128,-1,77
 523 275 523 275 532 320 c 1,78,-1
 532 576 l 1,79,-1
 585 576 l 1,0,-1
EndSplineSet
EndChar

StartChar: uni0E2A
Encoding: 3626 3626 479
Width: 616
GlyphClass: 2
Flags: W
AnchorPoint: "Anchor-12" 528 550 basechar 0
AnchorPoint: "Anchor-11" 528 0 basechar 0
LayerCount: 2
Fore
SplineSet
556.5 545 m 128,-1,1
 530 524 530 524 498 512 c 1,2,3
 535 466 535 466 535 397 c 0,4,5
 535 357 535 357 529 283 c 0,6,7
 523 213 523 213 523 177 c 0,8,9
 523 127 523 127 529 61 c 0,10,11
 532 31 532 31 532 15 c 0,12,13
 532 0 532 0 521 0 c 2,14,-1
 475 0 l 1,15,16
 475 161 475 161 421.5 244.5 c 128,-1,17
 368 328 368 328 275 328 c 0,18,19
 210 328 210 328 173 284.5 c 128,-1,20
 136 241 136 241 136 166 c 0,21,22
 136 98 136 98 157 65 c 128,-1,23
 178 32 178 32 214 32 c 0,24,25
 240 32 240 32 253.5 46 c 128,-1,26
 267 60 267 60 267 83 c 0,27,28
 267 105 267 105 254.5 117.5 c 128,-1,29
 242 130 242 130 218 130 c 0,30,31
 201 130 201 130 189 123 c 128,-1,32
 177 116 177 116 165 103 c 1,33,34
 162 109 162 109 162 119 c 0,35,36
 162 137 162 137 180 152 c 128,-1,37
 198 167 198 167 226 167 c 0,38,39
 263 167 263 167 286 143 c 128,-1,40
 309 119 309 119 309 82 c 0,41,42
 309 41 309 41 283 16 c 128,-1,43
 257 -9 257 -9 213 -9 c 0,44,45
 155 -9 155 -9 119.5 35.5 c 128,-1,46
 84 80 84 80 84 166 c 0,47,48
 84 231 84 231 109 278 c 128,-1,49
 134 325 134 325 177.5 349 c 128,-1,50
 221 373 221 373 276 373 c 0,51,52
 345 373 345 373 396.5 337 c 128,-1,53
 448 301 448 301 476 238 c 1,54,55
 482 333 482 333 481 390 c 0,56,57
 480 461 480 461 436.5 501 c 128,-1,58
 393 541 393 541 314 541 c 0,59,60
 250 541 250 541 205 518 c 128,-1,61
 160 495 160 495 118 453 c 0,62,63
 111 446 111 446 103 446 c 0,64,65
 94 446 94 446 84 454 c 128,-1,66
 74 462 74 462 68 475 c 1,67,68
 103 521 103 521 166 553.5 c 128,-1,69
 229 586 229 586 315 586 c 0,70,71
 406 586 406 586 463 546 c 1,72,73
 515 564 515 564 543 618 c 1,74,75
 561 616 561 616 572 606.5 c 128,-1,76
 583 597 583 597 583 586 c 0,77,0
 583 566 583 566 556.5 545 c 128,-1,1
EndSplineSet
EndChar

StartChar: uni0E2B
Encoding: 3627 3627 480
Width: 658
GlyphClass: 2
Flags: W
AnchorPoint: "Anchor-12" 579 550 basechar 0
AnchorPoint: "Anchor-11" 579 0 basechar 0
LayerCount: 2
Fore
SplineSet
579 278 m 2,1,-1
 579 0 l 1,2,-1
 526 0 l 1,3,-1
 526 265 l 2,4,5
 526 296 526 296 517.5 313 c 128,-1,6
 509 330 509 330 491 344 c 1,7,8
 393 298 393 298 335 262.5 c 128,-1,9
 277 227 277 227 245 182.5 c 128,-1,10
 213 138 213 138 213 79 c 2,11,-1
 213 0 l 1,12,-1
 170 0 l 2,13,14
 155 0 155 0 155 15 c 2,15,-1
 156 42 l 2,16,17
 159 105 159 105 159 116 c 2,18,-1
 159 481 l 2,19,20
 159 511 159 511 146 528 c 128,-1,21
 133 545 133 545 107 545 c 0,22,23
 83 545 83 545 70 532 c 128,-1,24
 57 519 57 519 57 496 c 0,25,26
 57 472 57 472 71 459 c 128,-1,27
 85 446 85 446 108 446 c 2,28,-1
 132 446 l 1,29,30
 132 410 132 410 91 410 c 0,31,32
 62 410 62 410 38.5 433.5 c 128,-1,33
 15 457 15 457 15 496 c 256,34,35
 15 535 15 535 41.5 560.5 c 128,-1,36
 68 586 68 586 109 586 c 0,37,38
 156 586 156 586 184.5 558.5 c 128,-1,39
 213 531 213 531 213 481 c 2,40,-1
 213 216 l 1,41,42
 241 256 241 256 294 290.5 c 128,-1,43
 347 325 347 325 447 373 c 1,44,45
 385 419 385 419 385 479 c 0,46,47
 385 527 385 527 416.5 556.5 c 128,-1,48
 448 586 448 586 496 586 c 0,49,50
 543 586 543 586 575 558 c 128,-1,51
 607 530 607 530 607 478 c 0,52,53
 607 442 607 442 588.5 415.5 c 128,-1,54
 570 389 570 389 536 367 c 1,55,0
 579 331 579 331 579 278 c 2,1,-1
450 524.5 m 128,-1,57
 433 507 433 507 433 478 c 0,58,59
 433 452 433 452 447.5 434.5 c 128,-1,60
 462 417 462 417 494 396 c 1,61,62
 528 414 528 414 543.5 432.5 c 128,-1,63
 559 451 559 451 559 479 c 0,64,65
 559 508 559 508 543.5 525 c 128,-1,66
 528 542 528 542 496 542 c 0,67,56
 467 542 467 542 450 524.5 c 128,-1,57
EndSplineSet
EndChar

StartChar: uni0E2C
Encoding: 3628 3628 481
Width: 708
GlyphClass: 2
Flags: W
AnchorPoint: "Anchor-12" 634 550 basechar 0
AnchorPoint: "Anchor-11" 636 0 basechar 0
LayerCount: 2
Fore
SplineSet
695.5 594 m 128,-1,1
 706 586 706 586 706 574 c 0,2,3
 706 561 706 561 695 537 c 0,4,5
 673 496 673 496 634 469 c 1,6,-1
 634 190 l 2,7,8
 634 49 634 49 638 20 c 0,9,10
 639 17 639 17 639 11 c 0,11,12
 639 4 639 4 636 2 c 128,-1,13
 633 0 633 0 628 0 c 2,14,-1
 582 0 l 1,15,-1
 582 14 l 2,16,17
 582 77 582 77 533 155 c 128,-1,18
 484 233 484 233 411 317 c 1,19,20
 231 120 231 120 231 14 c 2,21,-1
 231 0 l 1,22,-1
 182 0 l 2,23,24
 177 0 177 0 174 2.5 c 128,-1,25
 171 5 171 5 171 12 c 0,26,27
 171 17 171 17 172 20 c 0,28,29
 177 43 177 43 178 70 c 128,-1,30
 179 97 179 97 179 190 c 2,31,-1
 179 481 l 2,32,33
 179 511 179 511 166 528 c 128,-1,34
 153 545 153 545 127 545 c 0,35,36
 103 545 103 545 90 532 c 128,-1,37
 77 519 77 519 77 496 c 0,38,39
 77 472 77 472 91 459 c 128,-1,40
 105 446 105 446 128 446 c 2,41,-1
 152 446 l 1,42,43
 152 410 152 410 111 410 c 0,44,45
 82 410 82 410 58.5 433.5 c 128,-1,46
 35 457 35 457 35 496 c 256,47,48
 35 535 35 535 61.5 560.5 c 128,-1,49
 88 586 88 586 129 586 c 0,50,51
 176 586 176 586 204.5 558.5 c 128,-1,52
 233 531 233 531 233 481 c 2,53,-1
 233 163 l 1,54,55
 258 209 258 209 296 256.5 c 128,-1,56
 334 304 334 304 391 367 c 2,57,-1
 406 383 l 1,58,-1
 416 383 l 1,59,-1
 443 351 l 2,60,61
 497 288 497 288 528.5 246 c 128,-1,62
 560 204 560 204 581 162 c 1,63,-1
 581 443 l 1,64,65
 548 432 548 432 512 432 c 0,66,67
 454 432 454 432 418 458 c 128,-1,68
 382 484 382 484 382 525 c 0,69,70
 382 564 382 564 417 588.5 c 128,-1,71
 452 613 452 613 499 613 c 0,72,73
 544 613 544 613 578.5 590 c 128,-1,74
 613 567 613 567 627 529 c 1,75,76
 652 558 652 558 670 604 c 1,77,0
 685 602 685 602 695.5 594 c 128,-1,1
581 491 m 1,79,80
 580 528 580 528 558.5 549.5 c 128,-1,81
 537 571 537 571 499 571 c 0,82,83
 471 571 471 571 452 559 c 128,-1,84
 433 547 433 547 433 524 c 0,85,86
 433 500 433 500 453.5 487.5 c 128,-1,87
 474 475 474 475 511 475 c 0,88,78
 552 475 552 475 581 491 c 1,79,80
EndSplineSet
Substitution2: "Single Substitution lookup 14 subtable" loChulathai.short
Substitution2: "'aalt' Access All Alternates lookup 0 subtable" loChulathai.short
EndChar

StartChar: uni0E2D
Encoding: 3629 3629 483
Width: 615
GlyphClass: 2
Flags: W
AnchorPoint: "Anchor-12" 525 550 basechar 0
AnchorPoint: "Anchor-11" 525 0 basechar 0
LayerCount: 2
Fore
SplineSet
141 44.5 m 128,-1,1
 87 98 87 98 87 210 c 0,2,3
 87 260 87 260 106 295.5 c 128,-1,4
 125 331 125 331 155 349 c 128,-1,5
 185 367 185 367 218 367 c 0,6,7
 260 367 260 367 285.5 342 c 128,-1,8
 311 317 311 317 311 275 c 0,9,10
 311 235 311 235 286.5 211.5 c 128,-1,11
 262 188 262 188 227 188 c 0,12,13
 203 188 203 188 186.5 201 c 128,-1,14
 170 214 170 214 170 237 c 1,15,16
 179 232 179 232 192 229 c 128,-1,17
 205 226 205 226 216 226 c 0,18,19
 240 226 240 226 254 239.5 c 128,-1,20
 268 253 268 253 268 277 c 0,21,22
 268 299 268 299 255.5 311.5 c 128,-1,23
 243 324 243 324 217 324 c 0,24,25
 181 324 181 324 161 295.5 c 128,-1,26
 141 267 141 267 141 210 c 0,27,28
 141 115 141 115 180.5 76 c 128,-1,29
 220 37 220 37 310 37 c 0,30,31
 373 37 373 37 410 59.5 c 128,-1,32
 447 82 447 82 464.5 132 c 128,-1,33
 482 182 482 182 482 267 c 2,34,-1
 482 307 l 2,35,36
 482 398 482 398 460.5 449 c 128,-1,37
 439 500 439 500 398.5 520.5 c 128,-1,38
 358 541 358 541 296 541 c 0,39,40
 241 541 241 541 195 514.5 c 128,-1,41
 149 488 149 488 115 449 c 0,42,43
 111 445 111 445 106.5 442 c 128,-1,44
 102 439 102 439 96 439 c 0,45,46
 88 439 88 439 78 448 c 128,-1,47
 68 457 68 457 60 469 c 1,48,49
 97 517 97 517 157 551.5 c 128,-1,50
 217 586 217 586 296 586 c 256,51,52
 375 586 375 586 427 561 c 128,-1,53
 479 536 479 536 507 474.5 c 128,-1,54
 535 413 535 413 535 307 c 2,55,-1
 535 267 l 2,56,57
 535 122 535 122 482.5 56.5 c 128,-1,58
 430 -9 430 -9 310 -9 c 0,59,0
 195 -9 195 -9 141 44.5 c 128,-1,1
EndSplineSet
EndChar

